AvenirLTStd-Black.ufo
<glyph name="exclam" format="2">
  <advance width="444"/>
  <unicode hex="0021"/>
  <outline>
    <contour>
      <point x="297" y="708" type="line"/>
      <point x="297" y="234" type="line"/>
      <point x="147" y="234" type="line"/>
      <point x="147" y="708" type="line"/>
    </contour>
    <contour>
      <point x="130" y="86" type="curve" smooth="yes"/>
      <point x="130" y="137"/>
      <point x="171" y="178"/>
      <point x="222" y="178" type="curve" smooth="yes"/>
      <point x="273" y="178"/>
      <point x="314" y="137"/>
      <point x="314" y="86" type="curve" smooth="yes"/>
      <point x="314" y="35"/>
      <point x="273" y="-6"/>
      <point x="222" y="-6" type="curve" smooth="yes"/>
      <point x="171" y="-6"/>
      <point x="130" y="35"/>
    </contour>
  </outline>
</glyph>
<glyph name="quotedbl" format="2">
  <advance width="520"/>
  <unicode hex="0022"/>
  <outline>
    <contour>
      <point x="313" y="426" type="line"/>
      <point x="313" y="708" type="line"/>
      <point x="439" y="708" type="line"/>
      <point x="439" y="426" type="line"/>
    </contour>
    <contour>
      <point x="81" y="426" type="line"/>
      <point x="81" y="708" type="line"/>
      <point x="207" y="708" type="line"/>
      <point x="207" y="426" type="line"/>
    </contour>
  </outline>
</glyph>
<glyph name="numbersign" format="2">
  <advance width="592"/>
  <unicode hex="0023"/>
  <outline>
    <contour>
      <point x="101" y="0" type="line"/>
      <point x="129" y="201" type="line"/>
      <point x="45" y="201" type="line"/>
      <point x="45" y="291" type="line"/>
      <point x="141" y="291" type="line"/>
      <point x="158" y="417" type="line"/>
      <point x="74" y="417" type="line"/>
      <point x="74" y="507" type="line"/>
      <point x="170" y="507" type="line"/>
      <point x="198" y="708" type="line"/>
      <point x="295" y="708" type="line"/>
      <point x="267" y="507" type="line"/>
      <point x="366" y="507" type="line"/>
      <point x="394" y="708" type="line"/>
      <point x="491" y="708" type="line"/>
      <point x="463" y="507" type="line"/>
      <point x="547" y="507" type="line"/>
      <point x="547" y="417" type="line"/>
      <point x="451" y="417" type="line"/>
      <point x="434" y="291" type="line"/>
      <point x="518" y="291" type="line"/>
      <point x="518" y="201" type="line"/>
      <point x="422" y="201" type="line"/>
      <point x="394" y="0" type="line"/>
      <point x="297" y="0" type="line"/>
      <point x="325" y="201" type="line"/>
      <point x="226" y="201" type="line"/>
      <point x="198" y="0" type="line"/>
    </contour>
    <contour>
      <point x="337" y="291" type="line"/>
      <point x="354" y="417" type="line"/>
      <point x="255" y="417" type="line"/>
      <point x="238" y="291" type="line"/>
    </contour>
  </outline>
</glyph>
<glyph name="dollar" format="2">
  <advance width="592"/>
  <unicode hex="0024"/>
  <outline>
    <contour>
      <point x="328" y="790" type="line"/>
      <point x="328" y="720" type="line"/>
      <point x="400" y="720"/>
      <point x="484" y="703"/>
      <point x="542" y="657" type="curve"/>
      <point x="446" y="540" type="line"/>
      <point x="414" y="568"/>
      <point x="371" y="580"/>
      <point x="328" y="582" type="curve"/>
      <point x="328" y="423" type="line"/>
      <point x="424" y="395" type="line" smooth="yes"/>
      <point x="512" y="369"/>
      <point x="569" y="307"/>
      <point x="569" y="214" type="curve" smooth="yes"/>
      <point x="569" y="74"/>
      <point x="459" y="1"/>
      <point x="328" y="-12" type="curve"/>
      <point x="328" y="-82" type="line"/>
      <point x="262" y="-82" type="line"/>
      <point x="262" y="-12" type="line"/>
      <point x="174" y="-12"/>
      <point x="81" y="9"/>
      <point x="15" y="69" type="curve"/>
      <point x="121" y="188" type="line"/>
      <point x="156" y="145"/>
      <point x="208" y="130"/>
      <point x="262" y="126" type="curve"/>
      <point x="262" y="295" type="line"/>
      <point x="189" y="317" type="line" smooth="yes"/>
      <point x="88" y="349"/>
      <point x="34" y="403"/>
      <point x="34" y="504" type="curve" smooth="yes"/>
      <point x="34" y="630"/>
      <point x="144" y="706"/>
      <point x="262" y="720" type="curve"/>
      <point x="262" y="790" type="line"/>
    </contour>
    <contour>
      <point x="262" y="439" type="curve"/>
      <point x="262" y="579" type="line"/>
      <point x="225" y="571"/>
      <point x="190" y="553"/>
      <point x="190" y="511" type="curve" smooth="yes"/>
      <point x="190" y="451"/>
      <point x="245" y="445"/>
    </contour>
    <contour>
      <point x="328" y="278" type="line"/>
      <point x="328" y="128" type="line"/>
      <point x="369" y="136"/>
      <point x="413" y="156"/>
      <point x="413" y="202" type="curve" smooth="yes"/>
      <point x="413" y="245"/>
      <point x="382" y="258"/>
      <point x="347" y="271" type="curve" smooth="yes"/>
    </contour>
  </outline>
</glyph>
<glyph name="percent" format="2">
  <advance width="907"/>
  <unicode hex="0025"/>
  <outline>
    <contour>
      <point x="508" y="187" type="curve" smooth="yes"/>
      <point x="508" y="297"/>
      <point x="596" y="385"/>
      <point x="705" y="385" type="curve" smooth="yes"/>
      <point x="814" y="385"/>
      <point x="902" y="297"/>
      <point x="902" y="187" type="curve" smooth="yes"/>
      <point x="902" y="77"/>
      <point x="814" y="-12"/>
      <point x="705" y="-12" type="curve" smooth="yes"/>
      <point x="596" y="-12"/>
      <point x="508" y="77"/>
    </contour>
    <contour>
      <point x="800" y="187" type="curve" smooth="yes"/>
      <point x="800" y="240"/>
      <point x="758" y="283"/>
      <point x="705" y="283" type="curve" smooth="yes"/>
      <point x="652" y="283"/>
      <point x="610" y="240"/>
      <point x="610" y="187" type="curve" smooth="yes"/>
      <point x="610" y="133"/>
      <point x="652" y="90"/>
      <point x="705" y="90" type="curve" smooth="yes"/>
      <point x="758" y="90"/>
      <point x="800" y="133"/>
    </contour>
    <contour>
      <point x="5" y="522" type="curve" smooth="yes"/>
      <point x="5" y="632"/>
      <point x="93" y="720"/>
      <point x="202" y="720" type="curve" smooth="yes"/>
      <point x="311" y="720"/>
      <point x="399" y="632"/>
      <point x="399" y="522" type="curve" smooth="yes"/>
      <point x="399" y="412"/>
      <point x="311" y="324"/>
      <point x="202" y="324" type="curve" smooth="yes"/>
      <point x="93" y="324"/>
      <point x="5" y="412"/>
    </contour>
    <contour>
      <point x="297" y="522" type="curve" smooth="yes"/>
      <point x="297" y="575"/>
      <point x="255" y="618"/>
      <point x="202" y="618" type="curve" smooth="yes"/>
      <point x="149" y="618"/>
      <point x="107" y="575"/>
      <point x="107" y="522" type="curve" smooth="yes"/>
      <point x="107" y="469"/>
      <point x="149" y="426"/>
      <point x="202" y="426" type="curve" smooth="yes"/>
      <point x="255" y="426"/>
      <point x="297" y="469"/>
    </contour>
    <contour>
      <point x="210" y="11" type="line"/>
      <point x="615" y="740" type="line"/>
      <point x="699" y="693" type="line"/>
      <point x="286" y="-32" type="line"/>
    </contour>
  </outline>
</glyph>
<glyph name="ampersand" format="2">
  <advance width="759"/>
  <unicode hex="0026"/>
  <outline>
    <contour>
      <point x="744" y="365" type="line"/>
      <point x="595" y="167" type="line"/>
      <point x="753" y="0" type="line"/>
      <point x="560" y="0" type="line"/>
      <point x="501" y="67" type="line"/>
      <point x="443" y="7"/>
      <point x="377" y="-18"/>
      <point x="293" y="-18" type="curve" smooth="yes"/>
      <point x="165" y="-18"/>
      <point x="42" y="52"/>
      <point x="42" y="194" type="curve" smooth="yes"/>
      <point x="42" y="285"/>
      <point x="108" y="359"/>
      <point x="192" y="387" type="curve"/>
      <point x="146" y="437"/>
      <point x="114" y="476"/>
      <point x="114" y="546" type="curve" smooth="yes"/>
      <point x="114" y="674"/>
      <point x="222" y="726"/>
      <point x="335" y="726" type="curve" smooth="yes"/>
      <point x="444" y="726"/>
      <point x="541" y="671"/>
      <point x="541" y="552" type="curve" smooth="yes"/>
      <point x="541" y="468"/>
      <point x="481" y="405"/>
      <point x="410" y="368" type="curve"/>
      <point x="501" y="271" type="line"/>
      <point x="570" y="365" type="line"/>
    </contour>
    <contour>
      <point x="333" y="606" type="curve" smooth="yes"/>
      <point x="294" y="606"/>
      <point x="264" y="580"/>
      <point x="264" y="540" type="curve" smooth="yes"/>
      <point x="264" y="505"/>
      <point x="299" y="473"/>
      <point x="323" y="451" type="curve"/>
      <point x="354" y="469"/>
      <point x="403" y="502"/>
      <point x="403" y="542" type="curve" smooth="yes"/>
      <point x="403" y="583"/>
      <point x="371" y="606"/>
    </contour>
    <contour>
      <point x="410" y="166" type="curve"/>
      <point x="285" y="302" type="line"/>
      <point x="246" y="278"/>
      <point x="204" y="254"/>
      <point x="204" y="201" type="curve" smooth="yes"/>
      <point x="204" y="149"/>
      <point x="250" y="114"/>
      <point x="299" y="114" type="curve" smooth="yes"/>
      <point x="345" y="114"/>
      <point x="377" y="137"/>
    </contour>
  </outline>
</glyph>
<glyph name="parenleft" format="2">
  <advance width="314"/>
  <unicode hex="0028"/>
  <outline>
    <contour>
      <point x="190" y="732" type="line"/>
      <point x="293" y="672" type="line"/>
      <point x="212" y="545"/>
      <point x="164" y="443"/>
      <point x="164" y="288" type="curve" smooth="yes"/>
      <point x="164" y="133"/>
      <point x="212" y="31"/>
      <point x="293" y="-96" type="curve"/>
      <point x="190" y="-156" type="line"/>
      <point x="188" y="-152" type="line"/>
      <point x="96" y="-16"/>
      <point x="44" y="124"/>
      <point x="44" y="288" type="curve" smooth="yes"/>
      <point x="44" y="452"/>
      <point x="96" y="592"/>
      <point x="188" y="728" type="curve"/>
    </contour>
  </outline>
</glyph>
<glyph name="parenright" format="2">
  <advance width="314"/>
  <unicode hex="0029"/>
  <outline>
    <contour>
      <point x="124" y="-156" type="line"/>
      <point x="21" y="-96" type="line"/>
      <point x="102" y="31"/>
      <point x="150" y="133"/>
      <point x="150" y="288" type="curve" smooth="yes"/>
      <point x="150" y="443"/>
      <point x="102" y="545"/>
      <point x="21" y="672" type="curve"/>
      <point x="124" y="732" type="line"/>
      <point x="126" y="728" type="line"/>
      <point x="218" y="592"/>
      <point x="270" y="452"/>
      <point x="270" y="288" type="curve" smooth="yes"/>
      <point x="270" y="124"/>
      <point x="218" y="-16"/>
      <point x="126" y="-152" type="curve"/>
    </contour>
  </outline>
</glyph>
<glyph name="asterisk" format="2">
  <advance width="482"/>
  <unicode hex="002A"/>
  <outline>
    <contour>
      <point x="293" y="708" type="line"/>
      <point x="293" y="570" type="line"/>
      <point x="424" y="613" type="line"/>
      <point x="454" y="518" type="line"/>
      <point x="323" y="476" type="line"/>
      <point x="406" y="362" type="line"/>
      <point x="323" y="301" type="line"/>
      <point x="239" y="416" type="line"/>
      <point x="158" y="306" type="line"/>
      <point x="77" y="367" type="line"/>
      <point x="161" y="476" type="line"/>
      <point x="28" y="522" type="line"/>
      <point x="60" y="617" type="line"/>
      <point x="191" y="570" type="line"/>
      <point x="191" y="708" type="line"/>
    </contour>
  </outline>
</glyph>
<glyph name="plus" format="2">
  <advance width="666"/>
  <unicode hex="002B"/>
  <outline>
    <contour>
      <point x="59" y="240" type="line"/>
      <point x="59" y="366" type="line"/>
      <point x="270" y="366" type="line"/>
      <point x="270" y="577" type="line"/>
      <point x="396" y="577" type="line"/>
      <point x="396" y="366" type="line"/>
      <point x="607" y="366" type="line"/>
      <point x="607" y="240" type="line"/>
      <point x="396" y="240" type="line"/>
      <point x="396" y="29" type="line"/>
      <point x="270" y="29" type="line"/>
      <point x="270" y="240" type="line"/>
    </contour>
  </outline>
</glyph>
<glyph name="comma" format="2">
  <advance width="296"/>
  <unicode hex="002C"/>
  <outline>
    <contour>
      <point x="17" y="-120" type="line"/>
      <point x="91" y="162" type="line"/>
      <point x="235" y="162" type="line"/>
      <point x="145" y="-120" type="line"/>
    </contour>
  </outline>
</glyph>
<glyph name="period" format="2">
  <advance width="296"/>
  <unicode hex="002E"/>
  <outline>
    <contour>
      <point x="56" y="86" type="curve" smooth="yes"/>
      <point x="56" y="137"/>
      <point x="97" y="178"/>
      <point x="148" y="178" type="curve" smooth="yes"/>
      <point x="199" y="178"/>
      <point x="240" y="137"/>
      <point x="240" y="86" type="curve" smooth="yes"/>
      <point x="240" y="35"/>
      <point x="199" y="-6"/>
      <point x="148" y="-6" type="curve" smooth="yes"/>
      <point x="97" y="-6"/>
      <point x="56" y="35"/>
    </contour>
  </outline>
</glyph>
<glyph name="slash" format="2">
  <advance width="407"/>
  <unicode hex="002F"/>
  <outline>
    <contour>
      <point x="-3" y="-18" type="line"/>
      <point x="296" y="761" type="line"/>
      <point x="410" y="726" type="line"/>
      <point x="110" y="-53" type="line"/>
    </contour>
  </outline>
</glyph>
<glyph name="zero" format="2">
  <advance width="592"/>
  <unicode hex="0030"/>
  <outline>
    <contour>
      <point x="33" y="354" type="curve" smooth="yes"/>
      <point x="33" y="522"/>
      <point x="86" y="720"/>
      <point x="296" y="720" type="curve" smooth="yes"/>
      <point x="506" y="720"/>
      <point x="559" y="522"/>
      <point x="559" y="354" type="curve" smooth="yes"/>
      <point x="559" y="186"/>
      <point x="506" y="-12"/>
      <point x="296" y="-12" type="curve" smooth="yes"/>
      <point x="86" y="-12"/>
      <point x="33" y="186"/>
    </contour>
    <contour>
      <point x="183" y="354" type="curve" smooth="yes"/>
      <point x="183" y="280"/>
      <point x="188" y="126"/>
      <point x="296" y="126" type="curve" smooth="yes"/>
      <point x="404" y="126"/>
      <point x="409" y="280"/>
      <point x="409" y="354" type="curve" smooth="yes"/>
      <point x="409" y="428"/>
      <point x="404" y="582"/>
      <point x="296" y="582" type="curve" smooth="yes"/>
      <point x="188" y="582"/>
      <point x="183" y="428"/>
    </contour>
  </outline>
</glyph>
<glyph name="one" format="2">
  <advance width="592"/>
  <unicode hex="0031"/>
  <outline>
    <contour>
      <point x="288" y="0" type="line"/>
      <point x="288" y="540" type="line"/>
      <point x="146" y="415" type="line"/>
      <point x="61" y="513" type="line"/>
      <point x="292" y="708" type="line"/>
      <point x="432" y="708" type="line"/>
      <point x="432" y="0" type="line"/>
    </contour>
  </outline>
</glyph>
<glyph name="two" format="2">
  <advance width="592"/>
  <unicode hex="0032"/>
  <outline>
    <contour>
      <point x="49" y="0" type="line"/>
      <point x="49" y="159" type="line"/>
      <point x="324" y="406" type="line" smooth="yes"/>
      <point x="352" y="432"/>
      <point x="387" y="462"/>
      <point x="387" y="505" type="curve" smooth="yes"/>
      <point x="387" y="553"/>
      <point x="346" y="582"/>
      <point x="300" y="582" type="curve" smooth="yes"/>
      <point x="245" y="582"/>
      <point x="212" y="543"/>
      <point x="208" y="492" type="curve"/>
      <point x="58" y="503" type="line"/>
      <point x="67" y="649"/>
      <point x="169" y="720"/>
      <point x="308" y="720" type="curve" smooth="yes"/>
      <point x="437" y="720"/>
      <point x="537" y="649"/>
      <point x="537" y="507" type="curve" smooth="yes"/>
      <point x="537" y="416"/>
      <point x="498" y="364"/>
      <point x="444" y="317" type="curve" smooth="yes"/>
      <point x="229" y="132" type="line"/>
      <point x="543" y="132" type="line"/>
      <point x="543" y="0" type="line"/>
    </contour>
  </outline>
</glyph>
<glyph name="three" format="2">
  <advance width="592"/>
  <unicode hex="0033"/>
  <outline>
    <contour>
      <point x="216" y="299" type="line"/>
      <point x="216" y="429" type="line"/>
      <point x="265" y="429" type="line" smooth="yes"/>
      <point x="320" y="429"/>
      <point x="379" y="441"/>
      <point x="379" y="508" type="curve" smooth="yes"/>
      <point x="379" y="551"/>
      <point x="340" y="582"/>
      <point x="291" y="582" type="curve" smooth="yes"/>
      <point x="244" y="582"/>
      <point x="212" y="553"/>
      <point x="203" y="516" type="curve"/>
      <point x="38" y="550" type="line"/>
      <point x="69" y="673"/>
      <point x="170" y="720"/>
      <point x="290" y="720" type="curve" smooth="yes"/>
      <point x="416" y="720"/>
      <point x="529" y="659"/>
      <point x="529" y="523" type="curve" smooth="yes"/>
      <point x="529" y="445"/>
      <point x="486" y="384"/>
      <point x="408" y="368" type="curve"/>
      <point x="408" y="365" type="line"/>
      <point x="493" y="354"/>
      <point x="541" y="282"/>
      <point x="541" y="200" type="curve" smooth="yes"/>
      <point x="541" y="58"/>
      <point x="425" y="-12"/>
      <point x="286" y="-12" type="curve" smooth="yes"/>
      <point x="160" y="-12"/>
      <point x="61" y="44"/>
      <point x="32" y="171" type="curve"/>
      <point x="190" y="208" type="line"/>
      <point x="200" y="158"/>
      <point x="231" y="126"/>
      <point x="295" y="126" type="curve" smooth="yes"/>
      <point x="360" y="126"/>
      <point x="391" y="164"/>
      <point x="391" y="217" type="curve" smooth="yes"/>
      <point x="391" y="297"/>
      <point x="318" y="299"/>
      <point x="251" y="299" type="curve" smooth="yes"/>
    </contour>
  </outline>
</glyph>
<glyph name="four" format="2">
  <advance width="592"/>
  <unicode hex="0034"/>
  <outline>
    <contour>
      <point x="333" y="0" type="line"/>
      <point x="333" y="142" type="line"/>
      <point x="24" y="142" type="line"/>
      <point x="24" y="268" type="line"/>
      <point x="313" y="708" type="line"/>
      <point x="477" y="708" type="line"/>
      <point x="477" y="268" type="line"/>
      <point x="568" y="268" type="line"/>
      <point x="568" y="142" type="line"/>
      <point x="477" y="142" type="line"/>
      <point x="477" y="0" type="line"/>
    </contour>
    <contour>
      <point x="333" y="268" type="line"/>
      <point x="333" y="512" type="line"/>
      <point x="331" y="512" type="line"/>
      <point x="174" y="268" type="line"/>
    </contour>
  </outline>
</glyph>
<glyph name="five" format="2">
  <advance width="592"/>
  <unicode hex="0035"/>
  <outline>
    <contour>
      <point x="517" y="708" type="line"/>
      <point x="517" y="576" type="line"/>
      <point x="236" y="576" type="line"/>
      <point x="233" y="467" type="line"/>
      <point x="250" y="473"/>
      <point x="269" y="475"/>
      <point x="296" y="475" type="curve" smooth="yes"/>
      <point x="439" y="475"/>
      <point x="541" y="386"/>
      <point x="541" y="241" type="curve" smooth="yes"/>
      <point x="541" y="81"/>
      <point x="426" y="-12"/>
      <point x="271" y="-12" type="curve" smooth="yes"/>
      <point x="149" y="-12"/>
      <point x="63" y="49"/>
      <point x="32" y="169" type="curve"/>
      <point x="189" y="205" type="line"/>
      <point x="197" y="154"/>
      <point x="234" y="120"/>
      <point x="286" y="120" type="curve" smooth="yes"/>
      <point x="350" y="120"/>
      <point x="391" y="165"/>
      <point x="391" y="226" type="curve" smooth="yes"/>
      <point x="391" y="319"/>
      <point x="306" y="343"/>
      <point x="228" y="343" type="curve" smooth="yes"/>
      <point x="179" y="343"/>
      <point x="128" y="333"/>
      <point x="81" y="317" type="curve"/>
      <point x="89" y="708" type="line"/>
    </contour>
  </outline>
</glyph>
<glyph name="six" format="2">
  <advance width="592"/>
  <unicode hex="0036"/>
  <outline>
    <contour>
      <point x="453" y="708" type="line"/>
      <point x="287" y="455" type="line"/>
      <point x="303" y="459"/>
      <point x="319" y="462"/>
      <point x="336" y="462" type="curve" smooth="yes"/>
      <point x="469" y="462"/>
      <point x="558" y="360"/>
      <point x="558" y="231" type="curve" smooth="yes"/>
      <point x="558" y="85"/>
      <point x="442" y="-12"/>
      <point x="294" y="-12" type="curve" smooth="yes"/>
      <point x="146" y="-12"/>
      <point x="30" y="85"/>
      <point x="30" y="231" type="curve" smooth="yes"/>
      <point x="30" y="333"/>
      <point x="70" y="395"/>
      <point x="115" y="466" type="curve" smooth="yes"/>
      <point x="270" y="708" type="line"/>
    </contour>
    <contour>
      <point x="408" y="237" type="curve" smooth="yes"/>
      <point x="408" y="301"/>
      <point x="361" y="348"/>
      <point x="294" y="348" type="curve" smooth="yes"/>
      <point x="227" y="348"/>
      <point x="180" y="301"/>
      <point x="180" y="237" type="curve" smooth="yes"/>
      <point x="180" y="173"/>
      <point x="227" y="126"/>
      <point x="294" y="126" type="curve" smooth="yes"/>
      <point x="361" y="126"/>
      <point x="408" y="173"/>
    </contour>
  </outline>
</glyph>
<glyph name="seven" format="2">
  <advance width="592"/>
  <unicode hex="0037"/>
  <outline>
    <contour>
      <point x="97" y="0" type="line"/>
      <point x="387" y="570" type="line"/>
      <point x="37" y="570" type="line"/>
      <point x="37" y="708" type="line"/>
      <point x="555" y="708" type="line"/>
      <point x="555" y="576" type="line"/>
      <point x="272" y="0" type="line"/>
    </contour>
  </outline>
</glyph>
<glyph name="eight" format="2">
  <advance width="592"/>
  <unicode hex="0038"/>
  <outline>
    <contour>
      <point x="59" y="525" type="curve" smooth="yes"/>
      <point x="59" y="655"/>
      <point x="166" y="720"/>
      <point x="296" y="720" type="curve" smooth="yes"/>
      <point x="426" y="720"/>
      <point x="533" y="655"/>
      <point x="533" y="525" type="curve" smooth="yes"/>
      <point x="533" y="448"/>
      <point x="489" y="390"/>
      <point x="413" y="368" type="curve"/>
      <point x="413" y="366" type="line"/>
      <point x="498" y="343"/>
      <point x="545" y="282"/>
      <point x="545" y="194" type="curve" smooth="yes"/>
      <point x="545" y="57"/>
      <point x="427" y="-12"/>
      <point x="296" y="-12" type="curve" smooth="yes"/>
      <point x="165" y="-12"/>
      <point x="47" y="57"/>
      <point x="47" y="194" type="curve" smooth="yes"/>
      <point x="47" y="282"/>
      <point x="94" y="343"/>
      <point x="179" y="366" type="curve"/>
      <point x="179" y="368" type="line"/>
      <point x="103" y="390"/>
      <point x="59" y="448"/>
    </contour>
    <contour>
      <point x="209" y="504" type="curve" smooth="yes"/>
      <point x="209" y="460"/>
      <point x="244" y="425"/>
      <point x="296" y="425" type="curve" smooth="yes"/>
      <point x="348" y="425"/>
      <point x="383" y="460"/>
      <point x="383" y="504" type="curve" smooth="yes"/>
      <point x="383" y="547"/>
      <point x="348" y="582"/>
      <point x="296" y="582" type="curve" smooth="yes"/>
      <point x="244" y="582"/>
      <point x="209" y="547"/>
    </contour>
    <contour>
      <point x="197" y="215" type="curve" smooth="yes"/>
      <point x="197" y="166"/>
      <point x="237" y="126"/>
      <point x="296" y="126" type="curve" smooth="yes"/>
      <point x="355" y="126"/>
      <point x="395" y="166"/>
      <point x="395" y="215" type="curve" smooth="yes"/>
      <point x="395" y="265"/>
      <point x="355" y="305"/>
      <point x="296" y="305" type="curve" smooth="yes"/>
      <point x="237" y="305"/>
      <point x="197" y="265"/>
    </contour>
  </outline>
</glyph>
<glyph name="nine" format="2">
  <advance width="592"/>
  <unicode hex="0039"/>
  <outline>
    <contour>
      <point x="139" y="0" type="line"/>
      <point x="305" y="253" type="line"/>
      <point x="289" y="249"/>
      <point x="273" y="246"/>
      <point x="256" y="246" type="curve" smooth="yes"/>
      <point x="123" y="246"/>
      <point x="34" y="348"/>
      <point x="34" y="477" type="curve" smooth="yes"/>
      <point x="34" y="623"/>
      <point x="150" y="720"/>
      <point x="298" y="720" type="curve" smooth="yes"/>
      <point x="446" y="720"/>
      <point x="562" y="623"/>
      <point x="562" y="477" type="curve" smooth="yes"/>
      <point x="562" y="375"/>
      <point x="522" y="313"/>
      <point x="477" y="242" type="curve" smooth="yes"/>
      <point x="322" y="0" type="line"/>
    </contour>
    <contour>
      <point x="184" y="471" type="curve" smooth="yes"/>
      <point x="184" y="407"/>
      <point x="231" y="360"/>
      <point x="298" y="360" type="curve" smooth="yes"/>
      <point x="365" y="360"/>
      <point x="412" y="407"/>
      <point x="412" y="471" type="curve" smooth="yes"/>
      <point x="412" y="535"/>
      <point x="365" y="582"/>
      <point x="298" y="582" type="curve" smooth="yes"/>
      <point x="231" y="582"/>
      <point x="184" y="535"/>
    </contour>
  </outline>
</glyph>
<glyph name="semicolon" format="2">
  <advance width="296"/>
  <unicode hex="003B"/>
  <outline>
    <contour>
      <point x="17" y="-120" type="line"/>
      <point x="91" y="162" type="line"/>
      <point x="235" y="162" type="line"/>
      <point x="145" y="-120" type="line"/>
    </contour>
    <contour>
      <point x="56" y="406" type="curve" smooth="yes"/>
      <point x="56" y="457"/>
      <point x="97" y="498"/>
      <point x="148" y="498" type="curve" smooth="yes"/>
      <point x="199" y="498"/>
      <point x="240" y="457"/>
      <point x="240" y="406" type="curve" smooth="yes"/>
      <point x="240" y="355"/>
      <point x="199" y="314"/>
      <point x="148" y="314" type="curve" smooth="yes"/>
      <point x="97" y="314"/>
      <point x="56" y="355"/>
    </contour>
  </outline>
</glyph>
<glyph name="less" format="2">
  <advance width="666"/>
  <unicode hex="003C"/>
  <outline>
    <contour>
      <point x="586" y="564" type="line"/>
      <point x="586" y="428" type="line"/>
      <point x="269" y="304" type="line"/>
      <point x="269" y="302" type="line"/>
      <point x="586" y="178" type="line"/>
      <point x="586" y="42" type="line"/>
      <point x="80" y="240" type="line"/>
      <point x="80" y="366" type="line"/>
    </contour>
  </outline>
</glyph>
<glyph name="equal" format="2">
  <advance width="666"/>
  <unicode hex="003D"/>
  <outline>
    <contour>
      <point x="59" y="336" type="line"/>
      <point x="59" y="462" type="line"/>
      <point x="607" y="462" type="line"/>
      <point x="607" y="336" type="line"/>
    </contour>
    <contour>
      <point x="59" y="144" type="line"/>
      <point x="59" y="270" type="line"/>
      <point x="607" y="270" type="line"/>
      <point x="607" y="144" type="line"/>
    </contour>
  </outline>
</glyph>
<glyph name="greater" format="2">
  <advance width="666"/>
  <unicode hex="003E"/>
  <outline>
    <contour>
      <point x="80" y="42" type="line"/>
      <point x="80" y="178" type="line"/>
      <point x="397" y="302" type="line"/>
      <point x="397" y="304" type="line"/>
      <point x="80" y="428" type="line"/>
      <point x="80" y="564" type="line"/>
      <point x="586" y="366" type="line"/>
      <point x="586" y="240" type="line"/>
    </contour>
  </outline>
</glyph>
<glyph name="question" format="2">
  <advance width="556"/>
  <unicode hex="003F"/>
  <outline>
    <contour>
      <point x="216" y="234" type="line"/>
      <point x="216" y="278" type="line" smooth="yes"/>
      <point x="216" y="318"/>
      <point x="226" y="344"/>
      <point x="251" y="368" type="curve" smooth="yes"/>
      <point x="325" y="439"/>
      <point x="379" y="472"/>
      <point x="379" y="518" type="curve" smooth="yes"/>
      <point x="379" y="562"/>
      <point x="348" y="588"/>
      <point x="307" y="588" type="curve" smooth="yes"/>
      <point x="245" y="588"/>
      <point x="212" y="548"/>
      <point x="208" y="499" type="curve"/>
      <point x="54" y="509" type="line"/>
      <point x="68" y="650"/>
      <point x="165" y="726"/>
      <point x="304" y="726" type="curve" smooth="yes"/>
      <point x="426" y="726"/>
      <point x="529" y="658"/>
      <point x="529" y="529" type="curve" smooth="yes"/>
      <point x="529" y="453"/>
      <point x="500" y="407"/>
      <point x="405" y="332" type="curve" smooth="yes"/>
      <point x="374" y="308"/>
      <point x="366" y="285"/>
      <point x="366" y="263" type="curve" smooth="yes"/>
      <point x="366" y="234" type="line"/>
    </contour>
    <contour>
      <point x="199" y="86" type="curve" smooth="yes"/>
      <point x="199" y="137"/>
      <point x="240" y="178"/>
      <point x="291" y="178" type="curve" smooth="yes"/>
      <point x="342" y="178"/>
      <point x="383" y="137"/>
      <point x="383" y="86" type="curve" smooth="yes"/>
      <point x="383" y="35"/>
      <point x="342" y="-6"/>
      <point x="291" y="-6" type="curve" smooth="yes"/>
      <point x="240" y="-6"/>
      <point x="199" y="35"/>
    </contour>
  </outline>
</glyph>
<glyph name="at" format="2">
  <advance width="800"/>
  <unicode hex="0040"/>
  <outline>
    <contour>
      <point x="475" y="364" type="curve" smooth="yes"/>
      <point x="475" y="417"/>
      <point x="451" y="456"/>
      <point x="401" y="456" type="curve" smooth="yes"/>
      <point x="340" y="456"/>
      <point x="301" y="401"/>
      <point x="301" y="332" type="curve" smooth="yes"/>
      <point x="301" y="290"/>
      <point x="314" y="243"/>
      <point x="370" y="243" type="curve" smooth="yes"/>
      <point x="454" y="243"/>
      <point x="475" y="309"/>
    </contour>
    <contour>
      <point x="605" y="534" type="line"/>
      <point x="568" y="337" type="line" smooth="yes"/>
      <point x="564" y="318"/>
      <point x="559" y="290"/>
      <point x="559" y="271" type="curve" smooth="yes"/>
      <point x="559" y="256"/>
      <point x="565" y="243"/>
      <point x="586" y="243" type="curve" smooth="yes"/>
      <point x="628" y="243"/>
      <point x="672" y="288"/>
      <point x="672" y="392" type="curve" smooth="yes"/>
      <point x="672" y="552"/>
      <point x="563" y="636"/>
      <point x="411" y="636" type="curve" smooth="yes"/>
      <point x="245" y="636"/>
      <point x="134" y="517"/>
      <point x="134" y="353" type="curve" smooth="yes"/>
      <point x="134" y="178"/>
      <point x="259" y="72"/>
      <point x="428" y="72" type="curve" smooth="yes"/>
      <point x="503" y="72"/>
      <point x="568" y="94"/>
      <point x="617" y="133" type="curve"/>
      <point x="727" y="133" type="line"/>
      <point x="656" y="35"/>
      <point x="542" y="-18"/>
      <point x="420" y="-18" type="curve" smooth="yes"/>
      <point x="207" y="-18"/>
      <point x="32" y="136"/>
      <point x="32" y="353" type="curve" smooth="yes"/>
      <point x="32" y="566"/>
      <point x="203" y="726"/>
      <point x="414" y="726" type="curve" smooth="yes"/>
      <point x="590" y="726"/>
      <point x="768" y="609"/>
      <point x="768" y="397" type="curve" smooth="yes"/>
      <point x="768" y="184"/>
      <point x="606" y="153"/>
      <point x="546" y="153" type="curve" smooth="yes"/>
      <point x="490" y="153"/>
      <point x="468" y="181"/>
      <point x="467" y="207" type="curve"/>
      <point x="465" y="207" type="line"/>
      <point x="439" y="180"/>
      <point x="400" y="153"/>
      <point x="337" y="153" type="curve" smooth="yes"/>
      <point x="251" y="153"/>
      <point x="193" y="222"/>
      <point x="193" y="321" type="curve" smooth="yes"/>
      <point x="193" y="438"/>
      <point x="269" y="546"/>
      <point x="393" y="546" type="curve" smooth="yes"/>
      <point x="446" y="546"/>
      <point x="481" y="530"/>
      <point x="501" y="489" type="curve"/>
      <point x="503" y="489" type="line"/>
      <point x="511" y="534" type="line"/>
    </contour>
  </outline>
</glyph>
<glyph name="B" format="2">
  <advance width="648"/>
  <unicode hex="0042"/>
  <outline>
    <contour>
      <point x="72" y="0" type="line"/>
      <point x="72" y="708" type="line"/>
      <point x="336" y="708" type="line" smooth="yes"/>
      <point x="460" y="708"/>
      <point x="595" y="682"/>
      <point x="595" y="528" type="curve" smooth="yes"/>
      <point x="595" y="449"/>
      <point x="546" y="395"/>
      <point x="473" y="372" type="curve"/>
      <point x="473" y="370" type="line"/>
      <point x="566" y="358"/>
      <point x="628" y="289"/>
      <point x="628" y="197" type="curve" smooth="yes"/>
      <point x="628" y="49"/>
      <point x="488" y="0"/>
      <point x="362" y="0" type="curve" smooth="yes"/>
    </contour>
    <contour>
      <point x="228" y="576" type="line"/>
      <point x="228" y="425" type="line"/>
      <point x="341" y="425" type="line" smooth="yes"/>
      <point x="389" y="425"/>
      <point x="439" y="445"/>
      <point x="439" y="502" type="curve" smooth="yes"/>
      <point x="439" y="561"/>
      <point x="383" y="576"/>
      <point x="334" y="576" type="curve" smooth="yes"/>
    </contour>
    <contour>
      <point x="228" y="293" type="line"/>
      <point x="228" y="132" type="line"/>
      <point x="368" y="132" type="line" smooth="yes"/>
      <point x="417" y="132"/>
      <point x="472" y="153"/>
      <point x="472" y="215" type="curve" smooth="yes"/>
      <point x="472" y="282"/>
      <point x="397" y="293"/>
      <point x="346" y="293" type="curve" smooth="yes"/>
    </contour>
  </outline>
</glyph>
<glyph name="C" format="2">
  <advance width="685"/>
  <unicode hex="0043"/>
  <outline>
    <contour>
      <point x="655" y="622" type="curve"/>
      <point x="535" y="524" type="line"/>
      <point x="504" y="561"/>
      <point x="459" y="582"/>
      <point x="401" y="582" type="curve" smooth="yes"/>
      <point x="283" y="582"/>
      <point x="196" y="486"/>
      <point x="196" y="354" type="curve" smooth="yes"/>
      <point x="196" y="222"/>
      <point x="283" y="126"/>
      <point x="396" y="126" type="curve" smooth="yes"/>
      <point x="459" y="126"/>
      <point x="510" y="154"/>
      <point x="542" y="202" type="curve"/>
      <point x="672" y="105" type="line"/>
      <point x="613" y="21"/>
      <point x="513" y="-18"/>
      <point x="416" y="-18" type="curve" smooth="yes"/>
      <point x="195" y="-18"/>
      <point x="34" y="127"/>
      <point x="34" y="354" type="curve" smooth="yes"/>
      <point x="34" y="581"/>
      <point x="195" y="726"/>
      <point x="416" y="726" type="curve" smooth="yes"/>
      <point x="495" y="726"/>
      <point x="595" y="699"/>
    </contour>
  </outline>
</glyph>
<glyph name="F" format="2">
  <advance width="593"/>
  <unicode hex="0046"/>
  <outline>
    <contour>
      <point x="78" y="0" type="line"/>
      <point x="78" y="708" type="line"/>
      <point x="553" y="708" type="line"/>
      <point x="553" y="564" type="line"/>
      <point x="234" y="564" type="line"/>
      <point x="234" y="420" type="line"/>
      <point x="529" y="420" type="line"/>
      <point x="529" y="276" type="line"/>
      <point x="234" y="276" type="line"/>
      <point x="234" y="0" type="line"/>
    </contour>
  </outline>
</glyph>
<glyph name="G" format="2">
  <advance width="778"/>
  <unicode hex="0047"/>
  <outline>
    <contour>
      <point x="713" y="420" type="line"/>
      <point x="713" y="50" type="line"/>
      <point x="621" y="2"/>
      <point x="520" y="-18"/>
      <point x="416" y="-18" type="curve" smooth="yes"/>
      <point x="195" y="-18"/>
      <point x="34" y="127"/>
      <point x="34" y="354" type="curve" smooth="yes"/>
      <point x="34" y="581"/>
      <point x="195" y="726"/>
      <point x="416" y="726" type="curve" smooth="yes"/>
      <point x="528" y="726"/>
      <point x="627" y="701"/>
      <point x="698" y="635" type="curve"/>
      <point x="588" y="515" type="line"/>
      <point x="546" y="559"/>
      <point x="495" y="582"/>
      <point x="416" y="582" type="curve" smooth="yes"/>
      <point x="283" y="582"/>
      <point x="196" y="486"/>
      <point x="196" y="354" type="curve" smooth="yes"/>
      <point x="196" y="222"/>
      <point x="283" y="126"/>
      <point x="416" y="126" type="curve" smooth="yes"/>
      <point x="484" y="126"/>
      <point x="534" y="145"/>
      <point x="563" y="161" type="curve"/>
      <point x="563" y="276" type="line"/>
      <point x="436" y="276" type="line"/>
      <point x="436" y="420" type="line"/>
    </contour>
  </outline>
</glyph>
<glyph name="H" format="2">
  <advance width="759"/>
  <unicode hex="0048"/>
  <outline>
    <contour>
      <point x="72" y="0" type="line"/>
      <point x="72" y="708" type="line"/>
      <point x="228" y="708" type="line"/>
      <point x="228" y="444" type="line"/>
      <point x="531" y="444" type="line"/>
      <point x="531" y="708" type="line"/>
      <point x="687" y="708" type="line"/>
      <point x="687" y="0" type="line"/>
      <point x="531" y="0" type="line"/>
      <point x="531" y="306" type="line"/>
      <point x="228" y="306" type="line"/>
      <point x="228" y="0" type="line"/>
    </contour>
  </outline>
</glyph>
<glyph name="J" format="2">
  <advance width="500"/>
  <unicode hex="004A"/>
  <outline>
    <contour>
      <point x="438" y="708" type="line"/>
      <point x="438" y="237" type="line" smooth="yes"/>
      <point x="438" y="106"/>
      <point x="404" y="-18"/>
      <point x="212" y="-18" type="curve" smooth="yes"/>
      <point x="100" y="-18"/>
      <point x="18" y="34"/>
      <point x="-5" y="147" type="curve"/>
      <point x="138" y="182" type="line"/>
      <point x="142" y="148"/>
      <point x="174" y="120"/>
      <point x="208" y="120" type="curve" smooth="yes"/>
      <point x="281" y="120"/>
      <point x="282" y="201"/>
      <point x="282" y="254" type="curve" smooth="yes"/>
      <point x="282" y="708" type="line"/>
    </contour>
  </outline>
</glyph>
<glyph name="K" format="2">
  <advance width="722"/>
  <unicode hex="004B"/>
  <outline>
    <contour>
      <point x="78" y="0" type="line"/>
      <point x="78" y="708" type="line"/>
      <point x="234" y="708" type="line"/>
      <point x="234" y="414" type="line"/>
      <point x="509" y="708" type="line"/>
      <point x="713" y="708" type="line"/>
      <point x="398" y="379" type="line"/>
      <point x="740" y="0" type="line"/>
      <point x="522" y="0" type="line"/>
      <point x="234" y="336" type="line"/>
      <point x="234" y="0" type="line"/>
    </contour>
  </outline>
</glyph>
<glyph name="L" format="2">
  <advance width="537"/>
  <unicode hex="004C"/>
  <outline>
    <contour>
      <point x="78" y="0" type="line"/>
      <point x="78" y="708" type="line"/>
      <point x="234" y="708" type="line"/>
      <point x="234" y="144" type="line"/>
      <point x="523" y="144" type="line"/>
      <point x="523" y="0" type="line"/>
    </contour>
  </outline>
</glyph>
<glyph name="M" format="2">
  <advance width="944"/>
  <unicode hex="004D"/>
  <outline>
    <contour>
      <point x="72" y="0" type="line"/>
      <point x="72" y="708" type="line"/>
      <point x="308" y="708" type="line"/>
      <point x="471" y="246" type="line"/>
      <point x="473" y="246" type="line"/>
      <point x="637" y="708" type="line"/>
      <point x="872" y="708" type="line"/>
      <point x="872" y="0" type="line"/>
      <point x="716" y="0" type="line"/>
      <point x="716" y="543" type="line"/>
      <point x="714" y="543" type="line"/>
      <point x="528" y="0" type="line"/>
      <point x="409" y="0" type="line"/>
      <point x="230" y="543" type="line"/>
      <point x="228" y="543" type="line"/>
      <point x="228" y="0" type="line"/>
    </contour>
  </outline>
</glyph>
<glyph name="P" format="2">
  <advance width="630"/>
  <unicode hex="0050"/>
  <outline>
    <contour>
      <point x="72" y="0" type="line"/>
      <point x="72" y="708" type="line"/>
      <point x="335" y="708" type="line" smooth="yes"/>
      <point x="482" y="708"/>
      <point x="604" y="661"/>
      <point x="604" y="493" type="curve" smooth="yes"/>
      <point x="604" y="327"/>
      <point x="491" y="276"/>
      <point x="342" y="276" type="curve" smooth="yes"/>
      <point x="228" y="276" type="line"/>
      <point x="228" y="0" type="line"/>
    </contour>
    <contour>
      <point x="228" y="576" type="line"/>
      <point x="228" y="408" type="line"/>
      <point x="332" y="408" type="line" smooth="yes"/>
      <point x="387" y="408"/>
      <point x="442" y="427"/>
      <point x="442" y="493" type="curve" smooth="yes"/>
      <point x="442" y="566"/>
      <point x="368" y="576"/>
      <point x="308" y="576" type="curve" smooth="yes"/>
    </contour>
  </outline>
</glyph>
<glyph name="Q" format="2">
  <advance width="852"/>
  <unicode hex="0051"/>
  <outline>
    <contour>
      <point x="847" y="120" type="line"/>
      <point x="847" y="0" type="line"/>
      <point x="418" y="0" type="line" smooth="yes"/>
      <point x="197" y="0"/>
      <point x="34" y="135"/>
      <point x="34" y="363" type="curve" smooth="yes"/>
      <point x="34" y="577"/>
      <point x="202" y="726"/>
      <point x="412" y="726" type="curve" smooth="yes"/>
      <point x="622" y="726"/>
      <point x="790" y="576"/>
      <point x="790" y="363" type="curve" smooth="yes"/>
      <point x="790" y="263"/>
      <point x="746" y="165"/>
      <point x="649" y="122" type="curve"/>
      <point x="649" y="120" type="line"/>
    </contour>
    <contour>
      <point x="196" y="363" type="curve" smooth="yes"/>
      <point x="196" y="241"/>
      <point x="293" y="144"/>
      <point x="412" y="144" type="curve" smooth="yes"/>
      <point x="531" y="144"/>
      <point x="628" y="241"/>
      <point x="628" y="363" type="curve" smooth="yes"/>
      <point x="628" y="485"/>
      <point x="531" y="582"/>
      <point x="412" y="582" type="curve" smooth="yes"/>
      <point x="293" y="582"/>
      <point x="196" y="485"/>
    </contour>
  </outline>
</glyph>
<glyph name="R" format="2">
  <advance width="648"/>
  <unicode hex="0052"/>
  <outline>
    <contour>
      <point x="72" y="0" type="line"/>
      <point x="72" y="708" type="line"/>
      <point x="346" y="708" type="line" smooth="yes"/>
      <point x="491" y="708"/>
      <point x="613" y="658"/>
      <point x="613" y="493" type="curve" smooth="yes"/>
      <point x="613" y="394"/>
      <point x="560" y="317"/>
      <point x="460" y="299" type="curve"/>
      <point x="640" y="0" type="line"/>
      <point x="453" y="0" type="line"/>
      <point x="305" y="283" type="line"/>
      <point x="228" y="283" type="line"/>
      <point x="228" y="0" type="line"/>
    </contour>
    <contour>
      <point x="228" y="576" type="line"/>
      <point x="228" y="415" type="line"/>
      <point x="320" y="415" type="line" smooth="yes"/>
      <point x="377" y="415"/>
      <point x="451" y="417"/>
      <point x="451" y="494" type="curve" smooth="yes"/>
      <point x="451" y="565"/>
      <point x="387" y="576"/>
      <point x="330" y="576" type="curve" smooth="yes"/>
    </contour>
  </outline>
</glyph>
<glyph name="S" format="2">
  <advance width="574"/>
  <unicode hex="0053"/>
  <outline>
    <contour>
      <point x="529" y="652" type="curve"/>
      <point x="422" y="535" type="line"/>
      <point x="397" y="567"/>
      <point x="347" y="582"/>
      <point x="309" y="582" type="curve" smooth="yes"/>
      <point x="265" y="582"/>
      <point x="204" y="562"/>
      <point x="204" y="509" type="curve" smooth="yes"/>
      <point x="204" y="380"/>
      <point x="530" y="463"/>
      <point x="530" y="215" type="curve" smooth="yes"/>
      <point x="530" y="57"/>
      <point x="403" y="-18"/>
      <point x="257" y="-18" type="curve" smooth="yes"/>
      <point x="166" y="-18"/>
      <point x="86" y="9"/>
      <point x="19" y="71" type="curve"/>
      <point x="130" y="193" type="line"/>
      <point x="162" y="151"/>
      <point x="214" y="126"/>
      <point x="266" y="126" type="curve" smooth="yes"/>
      <point x="317" y="126"/>
      <point x="374" y="150"/>
      <point x="374" y="200" type="curve" smooth="yes"/>
      <point x="374" y="330"/>
      <point x="42" y="260"/>
      <point x="42" y="496" type="curve" smooth="yes"/>
      <point x="42" y="647"/>
      <point x="173" y="726"/>
      <point x="312" y="726" type="curve" smooth="yes"/>
      <point x="392" y="726"/>
      <point x="469" y="705"/>
    </contour>
  </outline>
</glyph>
<glyph name="T" format="2">
  <advance width="574"/>
  <unicode hex="0054"/>
  <outline>
    <contour>
      <point x="209" y="0" type="line"/>
      <point x="209" y="570" type="line"/>
      <point x="7" y="570" type="line"/>
      <point x="7" y="708" type="line"/>
      <point x="567" y="708" type="line"/>
      <point x="567" y="570" type="line"/>
      <point x="365" y="570" type="line"/>
      <point x="365" y="0" type="line"/>
    </contour>
  </outline>
</glyph>
<glyph name="U" format="2">
  <advance width="741"/>
  <unicode hex="0055"/>
  <outline>
    <contour>
      <point x="669" y="708" type="line"/>
      <point x="669" y="273" type="line" smooth="yes"/>
      <point x="669" y="106"/>
      <point x="567" y="-18"/>
      <point x="371" y="-18" type="curve" smooth="yes"/>
      <point x="174" y="-18"/>
      <point x="72" y="106"/>
      <point x="72" y="273" type="curve" smooth="yes"/>
      <point x="72" y="708" type="line"/>
      <point x="228" y="708" type="line"/>
      <point x="228" y="279" type="line" smooth="yes"/>
      <point x="228" y="192"/>
      <point x="288" y="126"/>
      <point x="371" y="126" type="curve" smooth="yes"/>
      <point x="453" y="126"/>
      <point x="513" y="192"/>
      <point x="513" y="279" type="curve" smooth="yes"/>
      <point x="513" y="708" type="line"/>
    </contour>
  </outline>
</glyph>
<glyph name="V" format="2">
  <advance width="704"/>
  <unicode hex="0056"/>
  <outline>
    <contour>
      <point x="285" y="0" type="line"/>
      <point x="2" y="708" type="line"/>
      <point x="180" y="708" type="line"/>
      <point x="355" y="244" type="line"/>
      <point x="357" y="244" type="line"/>
      <point x="535" y="708" type="line"/>
      <point x="702" y="708" type="line"/>
      <point x="410" y="0" type="line"/>
    </contour>
  </outline>
</glyph>
<glyph name="W" format="2">
  <advance width="1000"/>
  <unicode hex="0057"/>
  <outline>
    <contour>
      <point x="208" y="0" type="line"/>
      <point x="-2" y="708" type="line"/>
      <point x="168" y="708" type="line"/>
      <point x="281" y="254" type="line"/>
      <point x="283" y="254" type="line"/>
      <point x="431" y="708" type="line"/>
      <point x="576" y="708" type="line"/>
      <point x="723" y="242" type="line"/>
      <point x="725" y="242" type="line"/>
      <point x="844" y="708" type="line"/>
      <point x="1002" y="708" type="line"/>
      <point x="795" y="0" type="line"/>
      <point x="656" y="0" type="line"/>
      <point x="500" y="490" type="line"/>
      <point x="498" y="490" type="line"/>
      <point x="342" y="0" type="line"/>
    </contour>
  </outline>
</glyph>
<glyph name="X" format="2">
  <advance width="722"/>
  <unicode hex="0058"/>
  <outline>
    <contour>
      <point x="0" y="0" type="line"/>
      <point x="248" y="370" type="line"/>
      <point x="14" y="708" type="line"/>
      <point x="210" y="708" type="line"/>
      <point x="361" y="460" type="line"/>
      <point x="506" y="708" type="line"/>
      <point x="695" y="708" type="line"/>
      <point x="466" y="373" type="line"/>
      <point x="722" y="0" type="line"/>
      <point x="526" y="0" type="line"/>
      <point x="353" y="285" type="line"/>
      <point x="185" y="0" type="line"/>
    </contour>
  </outline>
</glyph>
<glyph name="Z" format="2">
  <advance width="630"/>
  <unicode hex="005A"/>
  <outline>
    <contour>
      <point x="35" y="0" type="line"/>
      <point x="35" y="144" type="line"/>
      <point x="394" y="570" type="line"/>
      <point x="48" y="570" type="line"/>
      <point x="48" y="708" type="line"/>
      <point x="583" y="708" type="line"/>
      <point x="583" y="570" type="line"/>
      <point x="231" y="144" type="line"/>
      <point x="595" y="144" type="line"/>
      <point x="595" y="0" type="line"/>
    </contour>
  </outline>
</glyph>
<glyph name="backslash" format="2">
  <advance width="407"/>
  <unicode hex="005C"/>
  <outline>
    <contour>
      <point x="410" y="-18" type="line"/>
      <point x="297" y="-53" type="line"/>
      <point x="-3" y="726" type="line"/>
      <point x="111" y="761" type="line"/>
    </contour>
  </outline>
</glyph>
<glyph name="bracketright" format="2">
  <advance width="296"/>
  <unicode hex="005D"/>
  <outline>
    <contour>
      <point x="20" y="-156" type="line"/>
      <point x="20" y="-66" type="line"/>
      <point x="110" y="-66" type="line"/>
      <point x="110" y="642" type="line"/>
      <point x="20" y="642" type="line"/>
      <point x="20" y="732" type="line"/>
      <point x="230" y="732" type="line"/>
      <point x="230" y="-156" type="line"/>
    </contour>
  </outline>
</glyph>
<glyph name="grave" format="2">
  <advance width="260"/>
  <unicode hex="0060"/>
  <outline>
    <contour>
      <point x="131" y="708" type="line"/>
      <point x="232" y="564" type="line"/>
      <point x="100" y="564" type="line"/>
      <point x="-73" y="708" type="line"/>
    </contour>
  </outline>
</glyph>
<glyph name="b" format="2">
  <advance width="630"/>
  <unicode hex="0062"/>
  <outline>
    <contour>
      <point x="67" y="0" type="line"/>
      <point x="67" y="756" type="line"/>
      <point x="217" y="756" type="line"/>
      <point x="217" y="434" type="line"/>
      <point x="219" y="434" type="line"/>
      <point x="253" y="481"/>
      <point x="311" y="498"/>
      <point x="373" y="498" type="curve" smooth="yes"/>
      <point x="511" y="498"/>
      <point x="595" y="374"/>
      <point x="595" y="239" type="curve" smooth="yes"/>
      <point x="595" y="92"/>
      <point x="500" y="-12"/>
      <point x="356" y="-12" type="curve" smooth="yes"/>
      <point x="288" y="-12"/>
      <point x="230" y="29"/>
      <point x="207" y="64" type="curve"/>
      <point x="205" y="64" type="line"/>
      <point x="205" y="0" type="line"/>
    </contour>
    <contour>
      <point x="205" y="243" type="curve" smooth="yes"/>
      <point x="205" y="170"/>
      <point x="250" y="120"/>
      <point x="325" y="120" type="curve" smooth="yes"/>
      <point x="400" y="120"/>
      <point x="445" y="170"/>
      <point x="445" y="243" type="curve" smooth="yes"/>
      <point x="445" y="316"/>
      <point x="400" y="366"/>
      <point x="325" y="366" type="curve" smooth="yes"/>
      <point x="250" y="366"/>
      <point x="205" y="316"/>
    </contour>
  </outline>
</glyph>
<glyph name="c" format="2">
  <advance width="482"/>
  <unicode hex="0063"/>
  <outline>
    <contour>
      <point x="481" y="433" type="curve"/>
      <point x="382" y="329" type="line"/>
      <point x="367" y="350"/>
      <point x="339" y="366"/>
      <point x="308" y="366" type="curve" smooth="yes"/>
      <point x="233" y="366"/>
      <point x="188" y="316"/>
      <point x="188" y="243" type="curve" smooth="yes"/>
      <point x="188" y="170"/>
      <point x="233" y="120"/>
      <point x="308" y="120" type="curve" smooth="yes"/>
      <point x="341" y="120"/>
      <point x="365" y="137"/>
      <point x="382" y="157" type="curve"/>
      <point x="481" y="53" type="line"/>
      <point x="434" y="5"/>
      <point x="365" y="-12"/>
      <point x="308" y="-12" type="curve" smooth="yes"/>
      <point x="158" y="-12"/>
      <point x="38" y="88"/>
      <point x="38" y="243" type="curve" smooth="yes"/>
      <point x="38" y="398"/>
      <point x="158" y="498"/>
      <point x="308" y="498" type="curve" smooth="yes"/>
      <point x="365" y="498"/>
      <point x="434" y="481"/>
    </contour>
  </outline>
</glyph>
<glyph name="d" format="2">
  <advance width="630"/>
  <unicode hex="0064"/>
  <outline>
    <contour>
      <point x="563" y="756" type="line"/>
      <point x="563" y="0" type="line"/>
      <point x="425" y="0" type="line"/>
      <point x="425" y="64" type="line"/>
      <point x="423" y="64" type="line"/>
      <point x="400" y="29"/>
      <point x="342" y="-12"/>
      <point x="274" y="-12" type="curve" smooth="yes"/>
      <point x="130" y="-12"/>
      <point x="35" y="92"/>
      <point x="35" y="239" type="curve" smooth="yes"/>
      <point x="35" y="374"/>
      <point x="119" y="498"/>
      <point x="257" y="498" type="curve" smooth="yes"/>
      <point x="319" y="498"/>
      <point x="377" y="481"/>
      <point x="411" y="434" type="curve"/>
      <point x="413" y="434" type="line"/>
      <point x="413" y="756" type="line"/>
    </contour>
    <contour>
      <point x="425" y="243" type="curve" smooth="yes"/>
      <point x="425" y="316"/>
      <point x="380" y="366"/>
      <point x="305" y="366" type="curve" smooth="yes"/>
      <point x="230" y="366"/>
      <point x="185" y="316"/>
      <point x="185" y="243" type="curve" smooth="yes"/>
      <point x="185" y="170"/>
      <point x="230" y="120"/>
      <point x="305" y="120" type="curve" smooth="yes"/>
      <point x="380" y="120"/>
      <point x="425" y="170"/>
    </contour>
  </outline>
</glyph>
<glyph name="g" format="2">
  <advance width="630"/>
  <unicode hex="0067"/>
  <outline>
    <contour>
      <point x="563" y="486" type="line"/>
      <point x="563" y="41" type="line" smooth="yes"/>
      <point x="563" y="-142"/>
      <point x="470" y="-240"/>
      <point x="282" y="-240" type="curve" smooth="yes"/>
      <point x="196" y="-240"/>
      <point x="108" y="-225"/>
      <point x="38" y="-169" type="curve"/>
      <point x="121" y="-45" type="line"/>
      <point x="167" y="-84"/>
      <point x="218" y="-108"/>
      <point x="279" y="-108" type="curve" smooth="yes"/>
      <point x="370" y="-108"/>
      <point x="413" y="-58"/>
      <point x="413" y="11" type="curve" smooth="yes"/>
      <point x="413" y="58" type="line"/>
      <point x="411" y="58" type="line"/>
      <point x="377" y="11"/>
      <point x="319" y="-6"/>
      <point x="274" y="-6" type="curve" smooth="yes"/>
      <point x="130" y="-6"/>
      <point x="35" y="98"/>
      <point x="35" y="245" type="curve" smooth="yes"/>
      <point x="35" y="374"/>
      <point x="119" y="498"/>
      <point x="257" y="498" type="curve" smooth="yes"/>
      <point x="342" y="498"/>
      <point x="400" y="457"/>
      <point x="423" y="422" type="curve"/>
      <point x="425" y="422" type="line"/>
      <point x="425" y="486" type="line"/>
    </contour>
    <contour>
      <point x="185" y="246" type="curve" smooth="yes"/>
      <point x="185" y="183"/>
      <point x="237" y="126"/>
      <point x="305" y="126" type="curve" smooth="yes"/>
      <point x="373" y="126"/>
      <point x="425" y="183"/>
      <point x="425" y="246" type="curve" smooth="yes"/>
      <point x="425" y="309"/>
      <point x="373" y="366"/>
      <point x="305" y="366" type="curve" smooth="yes"/>
      <point x="237" y="366"/>
      <point x="185" y="309"/>
    </contour>
  </outline>
</glyph>
<glyph name="h" format="2">
  <advance width="574"/>
  <unicode hex="0068"/>
  <outline>
    <contour>
      <point x="53" y="756" type="line"/>
      <point x="203" y="756" type="line"/>
      <point x="203" y="420" type="line"/>
      <point x="205" y="420" type="line"/>
      <point x="219" y="458"/>
      <point x="268" y="498"/>
      <point x="341" y="498" type="curve" smooth="yes"/>
      <point x="493" y="498"/>
      <point x="521" y="398"/>
      <point x="521" y="268" type="curve" smooth="yes"/>
      <point x="521" y="0" type="line"/>
      <point x="371" y="0" type="line"/>
      <point x="371" y="238" type="line" smooth="yes"/>
      <point x="371" y="294"/>
      <point x="370" y="366"/>
      <point x="293" y="366" type="curve" smooth="yes"/>
      <point x="215" y="366"/>
      <point x="203" y="305"/>
      <point x="203" y="242" type="curve" smooth="yes"/>
      <point x="203" y="0" type="line"/>
      <point x="53" y="0" type="line"/>
    </contour>
  </outline>
</glyph>
<glyph name="i" format="2">
  <advance width="260"/>
  <unicode hex="0069"/>
  <outline>
    <contour>
      <point x="55" y="0" type="line"/>
      <point x="55" y="486" type="line"/>
      <point x="205" y="486" type="line"/>
      <point x="205" y="0" type="line"/>
    </contour>
    <contour>
      <point x="43" y="639" type="curve" smooth="yes"/>
      <point x="43" y="687"/>
      <point x="82" y="726"/>
      <point x="130" y="726" type="curve" smooth="yes"/>
      <point x="178" y="726"/>
      <point x="217" y="687"/>
      <point x="217" y="639" type="curve" smooth="yes"/>
      <point x="217" y="591"/>
      <point x="178" y="552"/>
      <point x="130" y="552" type="curve" smooth="yes"/>
      <point x="82" y="552"/>
      <point x="43" y="591"/>
    </contour>
  </outline>
</glyph>
<glyph name="j" format="2">
  <advance width="260"/>
  <unicode hex="006A"/>
  <outline>
    <contour>
      <point x="205" y="486" type="line"/>
      <point x="205" y="-36" type="line" smooth="yes"/>
      <point x="205" y="-160"/>
      <point x="162" y="-240"/>
      <point x="25" y="-240" type="curve" smooth="yes"/>
      <point x="2" y="-240"/>
      <point x="-23" y="-239"/>
      <point x="-45" y="-232" type="curve"/>
      <point x="-37" y="-99" type="line"/>
      <point x="-25" y="-105"/>
      <point x="-11" y="-108"/>
      <point x="2" y="-108" type="curve" smooth="yes"/>
      <point x="54" y="-108"/>
      <point x="55" y="-47"/>
      <point x="55" y="-10" type="curve" smooth="yes"/>
      <point x="55" y="486" type="line"/>
    </contour>
    <contour>
      <point x="43" y="639" type="curve" smooth="yes"/>
      <point x="43" y="687"/>
      <point x="82" y="726"/>
      <point x="130" y="726" type="curve" smooth="yes"/>
      <point x="178" y="726"/>
      <point x="217" y="687"/>
      <point x="217" y="639" type="curve" smooth="yes"/>
      <point x="217" y="591"/>
      <point x="178" y="552"/>
      <point x="130" y="552" type="curve" smooth="yes"/>
      <point x="82" y="552"/>
      <point x="43" y="591"/>
    </contour>
  </outline>
</glyph>
<glyph name="m" format="2">
  <advance width="870"/>
  <unicode hex="006D"/>
  <outline>
    <contour>
      <point x="53" y="0" type="line"/>
      <point x="53" y="486" type="line"/>
      <point x="197" y="486" type="line"/>
      <point x="197" y="420" type="line"/>
      <point x="199" y="420" type="line"/>
      <point x="219" y="458"/>
      <point x="268" y="498"/>
      <point x="341" y="498" type="curve" smooth="yes"/>
      <point x="409" y="498"/>
      <point x="465" y="470"/>
      <point x="491" y="411" type="curve"/>
      <point x="526" y="473"/>
      <point x="573" y="498"/>
      <point x="645" y="498" type="curve" smooth="yes"/>
      <point x="777" y="498"/>
      <point x="817" y="405"/>
      <point x="817" y="287" type="curve" smooth="yes"/>
      <point x="817" y="0" type="line"/>
      <point x="667" y="0" type="line"/>
      <point x="667" y="283" type="line" smooth="yes"/>
      <point x="667" y="328"/>
      <point x="650" y="366"/>
      <point x="601" y="366" type="curve" smooth="yes"/>
      <point x="532" y="366"/>
      <point x="510" y="317"/>
      <point x="510" y="257" type="curve" smooth="yes"/>
      <point x="510" y="0" type="line"/>
      <point x="360" y="0" type="line"/>
      <point x="360" y="257" type="line" smooth="yes"/>
      <point x="360" y="293"/>
      <point x="362" y="366"/>
      <point x="293" y="366" type="curve" smooth="yes"/>
      <point x="215" y="366"/>
      <point x="203" y="305"/>
      <point x="203" y="242" type="curve" smooth="yes"/>
      <point x="203" y="0" type="line"/>
    </contour>
  </outline>
</glyph>
<glyph name="n" format="2">
  <advance width="574"/>
  <unicode hex="006E"/>
  <outline>
    <contour>
      <point x="53" y="0" type="line"/>
      <point x="53" y="486" type="line"/>
      <point x="197" y="486" type="line"/>
      <point x="197" y="420" type="line"/>
      <point x="199" y="420" type="line"/>
      <point x="219" y="458"/>
      <point x="268" y="498"/>
      <point x="341" y="498" type="curve" smooth="yes"/>
      <point x="493" y="498"/>
      <point x="521" y="398"/>
      <point x="521" y="268" type="curve" smooth="yes"/>
      <point x="521" y="0" type="line"/>
      <point x="371" y="0" type="line"/>
      <point x="371" y="238" type="line" smooth="yes"/>
      <point x="371" y="294"/>
      <point x="370" y="366"/>
      <point x="293" y="366" type="curve" smooth="yes"/>
      <point x="215" y="366"/>
      <point x="203" y="305"/>
      <point x="203" y="242" type="curve" smooth="yes"/>
      <point x="203" y="0" type="line"/>
    </contour>
  </outline>
</glyph>
<glyph name="p" format="2">
  <advance width="630"/>
  <unicode hex="0070"/>
  <outline>
    <contour>
      <point x="67" y="-228" type="line"/>
      <point x="67" y="486" type="line"/>
      <point x="205" y="486" type="line"/>
      <point x="205" y="422" type="line"/>
      <point x="207" y="422" type="line"/>
      <point x="230" y="457"/>
      <point x="288" y="498"/>
      <point x="356" y="498" type="curve" smooth="yes"/>
      <point x="500" y="498"/>
      <point x="595" y="394"/>
      <point x="595" y="247" type="curve" smooth="yes"/>
      <point x="595" y="112"/>
      <point x="511" y="-12"/>
      <point x="373" y="-12" type="curve" smooth="yes"/>
      <point x="311" y="-12"/>
      <point x="253" y="5"/>
      <point x="219" y="52" type="curve"/>
      <point x="217" y="52" type="line"/>
      <point x="217" y="-228" type="line"/>
    </contour>
    <contour>
      <point x="205" y="243" type="curve" smooth="yes"/>
      <point x="205" y="170"/>
      <point x="250" y="120"/>
      <point x="325" y="120" type="curve" smooth="yes"/>
      <point x="400" y="120"/>
      <point x="445" y="170"/>
      <point x="445" y="243" type="curve" smooth="yes"/>
      <point x="445" y="316"/>
      <point x="400" y="366"/>
      <point x="325" y="366" type="curve" smooth="yes"/>
      <point x="250" y="366"/>
      <point x="205" y="316"/>
    </contour>
  </outline>
</glyph>
<glyph name="q" format="2">
  <advance width="630"/>
  <unicode hex="0071"/>
  <outline>
    <contour>
      <point x="563" y="486" type="line"/>
      <point x="563" y="-228" type="line"/>
      <point x="413" y="-228" type="line"/>
      <point x="413" y="52" type="line"/>
      <point x="411" y="52" type="line"/>
      <point x="377" y="5"/>
      <point x="319" y="-12"/>
      <point x="257" y="-12" type="curve" smooth="yes"/>
      <point x="119" y="-12"/>
      <point x="35" y="112"/>
      <point x="35" y="247" type="curve" smooth="yes"/>
      <point x="35" y="394"/>
      <point x="130" y="498"/>
      <point x="274" y="498" type="curve" smooth="yes"/>
      <point x="342" y="498"/>
      <point x="400" y="457"/>
      <point x="423" y="422" type="curve"/>
      <point x="425" y="422" type="line"/>
      <point x="425" y="486" type="line"/>
    </contour>
    <contour>
      <point x="425" y="243" type="curve" smooth="yes"/>
      <point x="425" y="316"/>
      <point x="380" y="366"/>
      <point x="305" y="366" type="curve" smooth="yes"/>
      <point x="230" y="366"/>
      <point x="185" y="316"/>
      <point x="185" y="243" type="curve" smooth="yes"/>
      <point x="185" y="170"/>
      <point x="230" y="120"/>
      <point x="305" y="120" type="curve" smooth="yes"/>
      <point x="380" y="120"/>
      <point x="425" y="170"/>
    </contour>
  </outline>
</glyph>
<glyph name="r" format="2">
  <advance width="407"/>
  <unicode hex="0072"/>
  <outline>
    <contour>
      <point x="53" y="0" type="line"/>
      <point x="53" y="486" type="line"/>
      <point x="203" y="486" type="line"/>
      <point x="203" y="408" type="line"/>
      <point x="205" y="408" type="line"/>
      <point x="237" y="467"/>
      <point x="279" y="498"/>
      <point x="345" y="498" type="curve" smooth="yes"/>
      <point x="362" y="498"/>
      <point x="381" y="497"/>
      <point x="395" y="493" type="curve"/>
      <point x="395" y="356" type="line"/>
      <point x="374" y="362"/>
      <point x="353" y="366"/>
      <point x="331" y="366" type="curve" smooth="yes"/>
      <point x="217" y="366"/>
      <point x="203" y="300"/>
      <point x="203" y="203" type="curve" smooth="yes"/>
      <point x="203" y="0" type="line"/>
    </contour>
  </outline>
</glyph>
<glyph name="s" format="2">
  <advance width="463"/>
  <unicode hex="0073"/>
  <outline>
    <contour>
      <point x="420" y="434" type="curve"/>
      <point x="328" y="343" type="line"/>
      <point x="306" y="370"/>
      <point x="277" y="384"/>
      <point x="241" y="384" type="curve" smooth="yes"/>
      <point x="216" y="384"/>
      <point x="186" y="373"/>
      <point x="186" y="344" type="curve" smooth="yes"/>
      <point x="186" y="272"/>
      <point x="439" y="333"/>
      <point x="439" y="148" type="curve" smooth="yes"/>
      <point x="439" y="24"/>
      <point x="319" y="-12"/>
      <point x="215" y="-12" type="curve" smooth="yes"/>
      <point x="147" y="-12"/>
      <point x="72" y="5"/>
      <point x="24" y="54" type="curve"/>
      <point x="115" y="155" type="line"/>
      <point x="143" y="121"/>
      <point x="176" y="102"/>
      <point x="221" y="102" type="curve" smooth="yes"/>
      <point x="255" y="102"/>
      <point x="289" y="111"/>
      <point x="289" y="137" type="curve" smooth="yes"/>
      <point x="289" y="215"/>
      <point x="36" y="149"/>
      <point x="36" y="334" type="curve" smooth="yes"/>
      <point x="36" y="448"/>
      <point x="138" y="498"/>
      <point x="240" y="498" type="curve" smooth="yes"/>
      <point x="304" y="498"/>
      <point x="375" y="482"/>
    </contour>
  </outline>
</glyph>
<glyph name="t" format="2">
  <advance width="407"/>
  <unicode hex="0074"/>
  <outline>
    <contour>
      <point x="384" y="486" type="line"/>
      <point x="384" y="366" type="line"/>
      <point x="252" y="366" type="line"/>
      <point x="252" y="204" type="line" smooth="yes"/>
      <point x="252" y="152"/>
      <point x="258" y="114"/>
      <point x="323" y="114" type="curve" smooth="yes"/>
      <point x="339" y="114"/>
      <point x="371" y="116"/>
      <point x="384" y="128" type="curve"/>
      <point x="384" y="3" type="line"/>
      <point x="351" y="-9"/>
      <point x="314" y="-12"/>
      <point x="279" y="-12" type="curve" smooth="yes"/>
      <point x="179" y="-12"/>
      <point x="102" y="29"/>
      <point x="102" y="135" type="curve" smooth="yes"/>
      <point x="102" y="366" type="line"/>
      <point x="6" y="366" type="line"/>
      <point x="6" y="486" type="line"/>
      <point x="102" y="486" type="line"/>
      <point x="102" y="630" type="line"/>
      <point x="252" y="630" type="line"/>
      <point x="252" y="486" type="line"/>
    </contour>
  </outline>
</glyph>
<glyph name="v" format="2">
  <advance width="556"/>
  <unicode hex="0076"/>
  <outline>
    <contour>
      <point x="203" y="0" type="line"/>
      <point x="2" y="486" type="line"/>
      <point x="164" y="486" type="line"/>
      <point x="287" y="156" type="line"/>
      <point x="289" y="156" type="line"/>
      <point x="403" y="486" type="line"/>
      <point x="554" y="486" type="line"/>
      <point x="362" y="0" type="line"/>
    </contour>
  </outline>
</glyph>
<glyph name="w" format="2">
  <advance width="833"/>
  <unicode hex="0077"/>
  <outline>
    <contour>
      <point x="173" y="0" type="line"/>
      <point x="-5" y="486" type="line"/>
      <point x="155" y="486" type="line"/>
      <point x="254" y="181" type="line"/>
      <point x="256" y="181" type="line"/>
      <point x="339" y="486" type="line"/>
      <point x="503" y="486" type="line"/>
      <point x="593" y="181" type="line"/>
      <point x="595" y="181" type="line"/>
      <point x="686" y="486" type="line"/>
      <point x="838" y="486" type="line"/>
      <point x="665" y="0" type="line"/>
      <point x="517" y="0" type="line"/>
      <point x="416" y="323" type="line"/>
      <point x="414" y="323" type="line"/>
      <point x="324" y="0" type="line"/>
    </contour>
  </outline>
</glyph>
<glyph name="x" format="2">
  <advance width="556"/>
  <unicode hex="0078"/>
  <outline>
    <contour>
      <point x="-8" y="0" type="line"/>
      <point x="184" y="260" type="line"/>
      <point x="22" y="486" type="line"/>
      <point x="199" y="486" type="line"/>
      <point x="285" y="354" type="line"/>
      <point x="368" y="486" type="line"/>
      <point x="535" y="486" type="line"/>
      <point x="377" y="260" type="line"/>
      <point x="564" y="0" type="line"/>
      <point x="387" y="0" type="line"/>
      <point x="281" y="162" type="line"/>
      <point x="167" y="0" type="line"/>
    </contour>
  </outline>
</glyph>
<glyph name="z" format="2">
  <advance width="500"/>
  <unicode hex="007A"/>
  <outline>
    <contour>
      <point x="34" y="0" type="line"/>
      <point x="34" y="150" type="line"/>
      <point x="286" y="366" type="line"/>
      <point x="40" y="366" type="line"/>
      <point x="40" y="486" type="line"/>
      <point x="460" y="486" type="line"/>
      <point x="460" y="342" type="line"/>
      <point x="196" y="120" type="line"/>
      <point x="466" y="120" type="line"/>
      <point x="466" y="0" type="line"/>
    </contour>
  </outline>
</glyph>
<glyph name="braceleft" format="2">
  <advance width="370"/>
  <unicode hex="007B"/>
  <outline>
    <contour>
      <point x="356" y="-42" type="line"/>
      <point x="356" y="-156" type="line"/>
      <point x="251" y="-156" type="line" smooth="yes"/>
      <point x="180" y="-156"/>
      <point x="122" y="-114"/>
      <point x="122" y="-10" type="curve" smooth="yes"/>
      <point x="122" y="162" type="line" smooth="yes"/>
      <point x="122" y="224"/>
      <point x="39" y="231"/>
      <point x="14" y="231" type="curve"/>
      <point x="14" y="345" type="line"/>
      <point x="39" y="345"/>
      <point x="122" y="352"/>
      <point x="122" y="414" type="curve" smooth="yes"/>
      <point x="122" y="587" type="line" smooth="yes"/>
      <point x="122" y="691"/>
      <point x="177" y="732"/>
      <point x="251" y="732" type="curve" smooth="yes"/>
      <point x="356" y="732" type="line"/>
      <point x="356" y="618" type="line"/>
      <point x="307" y="618" type="line" smooth="yes"/>
      <point x="246" y="618"/>
      <point x="242" y="581"/>
      <point x="242" y="554" type="curve" smooth="yes"/>
      <point x="242" y="393" type="line" smooth="yes"/>
      <point x="241" y="300"/>
      <point x="184" y="293"/>
      <point x="142" y="289" type="curve"/>
      <point x="142" y="287" type="line"/>
      <point x="184" y="284"/>
      <point x="241" y="277"/>
      <point x="242" y="184" type="curve" smooth="yes"/>
      <point x="242" y="22" type="line" smooth="yes"/>
      <point x="242" y="-5"/>
      <point x="246" y="-42"/>
      <point x="307" y="-42" type="curve" smooth="yes"/>
    </contour>
  </outline>
</glyph>
<glyph name="bar" format="2">
  <advance width="222"/>
  <unicode hex="007C"/>
  <outline>
    <contour>
      <point x="48" y="750" type="line"/>
      <point x="174" y="750" type="line"/>
      <point x="174" y="-250" type="line"/>
      <point x="48" y="-250" type="line"/>
    </contour>
  </outline>
</glyph>
<glyph name="braceright" format="2">
  <advance width="370"/>
  <unicode hex="007D"/>
  <outline>
    <contour>
      <point x="14" y="618" type="line"/>
      <point x="14" y="732" type="line"/>
      <point x="122" y="732" type="line" smooth="yes"/>
      <point x="190" y="732"/>
      <point x="248" y="690"/>
      <point x="248" y="586" type="curve" smooth="yes"/>
      <point x="248" y="414" type="line" smooth="yes"/>
      <point x="248" y="352"/>
      <point x="328" y="345"/>
      <point x="356" y="345" type="curve"/>
      <point x="356" y="231" type="line"/>
      <point x="328" y="231"/>
      <point x="248" y="224"/>
      <point x="248" y="162" type="curve" smooth="yes"/>
      <point x="248" y="-11" type="line" smooth="yes"/>
      <point x="248" y="-115"/>
      <point x="193" y="-156"/>
      <point x="119" y="-156" type="curve" smooth="yes"/>
      <point x="14" y="-156" type="line"/>
      <point x="14" y="-42" type="line"/>
      <point x="63" y="-42" type="line" smooth="yes"/>
      <point x="124" y="-42"/>
      <point x="128" y="-5"/>
      <point x="128" y="22" type="curve" smooth="yes"/>
      <point x="128" y="183" type="line" smooth="yes"/>
      <point x="129" y="276"/>
      <point x="186" y="283"/>
      <point x="228" y="287" type="curve"/>
      <point x="228" y="289" type="line"/>
      <point x="186" y="292"/>
      <point x="129" y="299"/>
      <point x="128" y="392" type="curve" smooth="yes"/>
      <point x="128" y="554" type="line" smooth="yes"/>
      <point x="128" y="581"/>
      <point x="124" y="618"/>
      <point x="63" y="618" type="curve" smooth="yes"/>
    </contour>
  </outline>
</glyph>
<glyph name="asciitilde" format="2">
  <advance width="666"/>
  <unicode hex="007E"/>
  <outline>
    <contour>
      <point x="528" y="400" type="curve"/>
      <point x="564" y="292" type="line"/>
      <point x="542" y="250"/>
      <point x="506" y="206"/>
      <point x="439" y="206" type="curve" smooth="yes"/>
      <point x="405" y="206"/>
      <point x="366" y="221"/>
      <point x="328" y="238" type="curve" smooth="yes"/>
      <point x="291" y="254"/>
      <point x="253" y="274"/>
      <point x="226" y="274" type="curve" smooth="yes"/>
      <point x="186" y="274"/>
      <point x="161" y="237"/>
      <point x="138" y="206" type="curve"/>
      <point x="102" y="314" type="line"/>
      <point x="124" y="356"/>
      <point x="160" y="400"/>
      <point x="227" y="400" type="curve" smooth="yes"/>
      <point x="261" y="400"/>
      <point x="300" y="385"/>
      <point x="338" y="368" type="curve" smooth="yes"/>
      <point x="375" y="352"/>
      <point x="413" y="332"/>
      <point x="440" y="332" type="curve" smooth="yes"/>
      <point x="480" y="332"/>
      <point x="505" y="369"/>
    </contour>
  </outline>
</glyph>
<glyph name="exclamdown" format="2">
  <advance width="444"/>
  <unicode hex="00A1"/>
  <outline>
    <contour>
      <point x="147" y="-222" type="line"/>
      <point x="147" y="252" type="line"/>
      <point x="297" y="252" type="line"/>
      <point x="297" y="-222" type="line"/>
    </contour>
    <contour>
      <point x="314" y="400" type="curve" smooth="yes"/>
      <point x="314" y="349"/>
      <point x="273" y="308"/>
      <point x="222" y="308" type="curve" smooth="yes"/>
      <point x="171" y="308"/>
      <point x="130" y="349"/>
      <point x="130" y="400" type="curve" smooth="yes"/>
      <point x="130" y="451"/>
      <point x="171" y="492"/>
      <point x="222" y="492" type="curve" smooth="yes"/>
      <point x="273" y="492"/>
      <point x="314" y="451"/>
    </contour>
  </outline>
</glyph>
<glyph name="cent" format="2">
  <advance width="592"/>
  <unicode hex="00A2"/>
  <outline>
    <contour>
      <point x="310" y="-81" type="line"/>
      <point x="310" y="-12" type="line"/>
      <point x="168" y="-4"/>
      <point x="76" y="105"/>
      <point x="76" y="243" type="curve" smooth="yes"/>
      <point x="76" y="385"/>
      <point x="168" y="481"/>
      <point x="310" y="498" type="curve"/>
      <point x="310" y="564" type="line"/>
      <point x="370" y="564" type="line"/>
      <point x="370" y="498" type="line"/>
      <point x="438" y="498"/>
      <point x="490" y="480"/>
      <point x="542" y="436" type="curve"/>
      <point x="446" y="334" type="line"/>
      <point x="420" y="361"/>
      <point x="393" y="372"/>
      <point x="370" y="372" type="curve"/>
      <point x="370" y="114" type="line"/>
      <point x="385" y="114"/>
      <point x="411" y="116"/>
      <point x="453" y="157" type="curve"/>
      <point x="544" y="50" type="line"/>
      <point x="494" y="1"/>
      <point x="416" y="-12"/>
      <point x="370" y="-12" type="curve"/>
      <point x="370" y="-81" type="line"/>
    </contour>
    <contour>
      <point x="310" y="114" type="curve"/>
      <point x="310" y="372" type="line"/>
      <point x="248" y="360"/>
      <point x="220" y="306"/>
      <point x="220" y="244" type="curve" smooth="yes"/>
      <point x="220" y="183"/>
      <point x="248" y="133"/>
    </contour>
  </outline>
</glyph>
<glyph name="sterling" format="2">
  <advance width="592"/>
  <unicode hex="00A3"/>
  <outline>
    <contour>
      <point x="48" y="0" type="line"/>
      <point x="48" y="114" type="line"/>
      <point x="144" y="114" type="line"/>
      <point x="144" y="312" type="line"/>
      <point x="48" y="312" type="line"/>
      <point x="48" y="414" type="line"/>
      <point x="144" y="414" type="line"/>
      <point x="144" y="485" type="line" smooth="yes"/>
      <point x="144" y="604"/>
      <point x="230" y="720"/>
      <point x="392" y="720" type="curve" smooth="yes"/>
      <point x="467" y="720"/>
      <point x="546" y="702"/>
      <point x="601" y="652" type="curve"/>
      <point x="501" y="545" type="line"/>
      <point x="474" y="572"/>
      <point x="437" y="588"/>
      <point x="410" y="588" type="curve" smooth="yes"/>
      <point x="321" y="588"/>
      <point x="294" y="525"/>
      <point x="294" y="463" type="curve" smooth="yes"/>
      <point x="294" y="414" type="line"/>
      <point x="450" y="414" type="line"/>
      <point x="450" y="312" type="line"/>
      <point x="294" y="312" type="line"/>
      <point x="294" y="114" type="line"/>
      <point x="547" y="114" type="line"/>
      <point x="547" y="0" type="line"/>
    </contour>
  </outline>
</glyph>
<glyph name="currency" format="2">
  <advance width="592"/>
  <unicode hex="00A4"/>
  <outline>
    <contour>
      <point x="36" y="153" type="line"/>
      <point x="85" y="202" type="line"/>
      <point x="54" y="245"/>
      <point x="36" y="297"/>
      <point x="36" y="354" type="curve" smooth="yes"/>
      <point x="36" y="411"/>
      <point x="54" y="463"/>
      <point x="85" y="506" type="curve"/>
      <point x="36" y="555" type="line"/>
      <point x="96" y="614" type="line"/>
      <point x="145" y="566" type="line"/>
      <point x="187" y="596"/>
      <point x="239" y="614"/>
      <point x="296" y="614" type="curve" smooth="yes"/>
      <point x="353" y="614"/>
      <point x="405" y="596"/>
      <point x="447" y="566" type="curve"/>
      <point x="496" y="614" type="line"/>
      <point x="556" y="555" type="line"/>
      <point x="507" y="506" type="line"/>
      <point x="539" y="462"/>
      <point x="556" y="411"/>
      <point x="556" y="354" type="curve" smooth="yes"/>
      <point x="556" y="297"/>
      <point x="539" y="246"/>
      <point x="507" y="202" type="curve"/>
      <point x="556" y="153" type="line"/>
      <point x="496" y="94" type="line"/>
      <point x="447" y="142" type="line"/>
      <point x="405" y="112"/>
      <point x="353" y="94"/>
      <point x="296" y="94" type="curve" smooth="yes"/>
      <point x="239" y="94"/>
      <point x="187" y="112"/>
      <point x="145" y="142" type="curve"/>
      <point x="96" y="94" type="line"/>
    </contour>
    <contour>
      <point x="168" y="354" type="curve" smooth="yes"/>
      <point x="168" y="279"/>
      <point x="225" y="220"/>
      <point x="296" y="220" type="curve" smooth="yes"/>
      <point x="367" y="220"/>
      <point x="424" y="279"/>
      <point x="424" y="354" type="curve" smooth="yes"/>
      <point x="424" y="429"/>
      <point x="367" y="488"/>
      <point x="296" y="488" type="curve" smooth="yes"/>
      <point x="225" y="488"/>
      <point x="168" y="429"/>
    </contour>
  </outline>
</glyph>
<glyph name="yen" format="2">
  <advance width="592"/>
  <unicode hex="00A5"/>
  <outline>
    <contour>
      <point x="218" y="0" type="line"/>
      <point x="218" y="158" type="line"/>
      <point x="49" y="158" type="line"/>
      <point x="49" y="254" type="line"/>
      <point x="218" y="254" type="line"/>
      <point x="218" y="302" type="line"/>
      <point x="206" y="322" type="line"/>
      <point x="49" y="322" type="line"/>
      <point x="49" y="418" type="line"/>
      <point x="149" y="418" type="line"/>
      <point x="-36" y="708" type="line"/>
      <point x="146" y="708" type="line"/>
      <point x="296" y="444" type="line"/>
      <point x="446" y="708" type="line"/>
      <point x="628" y="708" type="line"/>
      <point x="443" y="418" type="line"/>
      <point x="543" y="418" type="line"/>
      <point x="543" y="322" type="line"/>
      <point x="386" y="322" type="line"/>
      <point x="374" y="302" type="line"/>
      <point x="374" y="254" type="line"/>
      <point x="543" y="254" type="line"/>
      <point x="543" y="158" type="line"/>
      <point x="374" y="158" type="line"/>
      <point x="374" y="0" type="line"/>
    </contour>
  </outline>
</glyph>
<glyph name="section" format="2">
  <advance width="592"/>
  <unicode hex="00A7"/>
  <outline>
    <contour>
      <point x="517" y="617" type="curve"/>
      <point x="391" y="545" type="line"/>
      <point x="377" y="583"/>
      <point x="339" y="606"/>
      <point x="299" y="606" type="curve" smooth="yes"/>
      <point x="267" y="606"/>
      <point x="234" y="589"/>
      <point x="234" y="553" type="curve" smooth="yes"/>
      <point x="234" y="455"/>
      <point x="546" y="463"/>
      <point x="546" y="281" type="curve" smooth="yes"/>
      <point x="546" y="226"/>
      <point x="510" y="175"/>
      <point x="462" y="151" type="curve"/>
      <point x="497" y="123"/>
      <point x="517" y="78"/>
      <point x="517" y="32" type="curve" smooth="yes"/>
      <point x="517" y="-99"/>
      <point x="379" y="-151"/>
      <point x="271" y="-151" type="curve" smooth="yes"/>
      <point x="172" y="-151"/>
      <point x="83" y="-121"/>
      <point x="38" y="-25" type="curve"/>
      <point x="166" y="38" type="line"/>
      <point x="178" y="-10"/>
      <point x="230" y="-31"/>
      <point x="275" y="-31" type="curve" smooth="yes"/>
      <point x="307" y="-31"/>
      <point x="355" y="-20"/>
      <point x="355" y="21" type="curve" smooth="yes"/>
      <point x="355" y="115"/>
      <point x="54" y="100"/>
      <point x="54" y="293" type="curve" smooth="yes"/>
      <point x="54" y="360"/>
      <point x="86" y="407"/>
      <point x="141" y="441" type="curve"/>
      <point x="102" y="467"/>
      <point x="78" y="508"/>
      <point x="78" y="556" type="curve" smooth="yes"/>
      <point x="78" y="673"/>
      <point x="193" y="726"/>
      <point x="293" y="726" type="curve" smooth="yes"/>
      <point x="378" y="726"/>
      <point x="476" y="701"/>
    </contour>
    <contour>
      <point x="272" y="239" type="curve" smooth="yes"/>
      <point x="374" y="192" type="line"/>
      <point x="396" y="205"/>
      <point x="408" y="227"/>
      <point x="408" y="253" type="curve" smooth="yes"/>
      <point x="408" y="291"/>
      <point x="373" y="312"/>
      <point x="343" y="325" type="curve" smooth="yes"/>
      <point x="227" y="380" type="line"/>
      <point x="204" y="367"/>
      <point x="192" y="347"/>
      <point x="192" y="321" type="curve" smooth="yes"/>
      <point x="192" y="273"/>
      <point x="235" y="256"/>
    </contour>
  </outline>
</glyph>
<glyph name="dieresis" format="2">
  <advance width="260"/>
  <unicode hex="00A8"/>
  <outline>
    <contour>
      <point x="25" y="558" type="curve" smooth="yes"/>
      <point x="-22" y="558"/>
      <point x="-58" y="598"/>
      <point x="-58" y="644" type="curve" smooth="yes"/>
      <point x="-58" y="687"/>
      <point x="-21" y="726"/>
      <point x="23" y="726" type="curve" smooth="yes"/>
      <point x="69" y="726"/>
      <point x="110" y="692"/>
      <point x="110" y="644" type="curve" smooth="yes"/>
      <point x="110" y="596"/>
      <point x="74" y="558"/>
    </contour>
    <contour>
      <point x="233" y="558" type="curve" smooth="yes"/>
      <point x="186" y="558"/>
      <point x="150" y="598"/>
      <point x="150" y="644" type="curve" smooth="yes"/>
      <point x="150" y="687"/>
      <point x="187" y="726"/>
      <point x="231" y="726" type="curve" smooth="yes"/>
      <point x="277" y="726"/>
      <point x="318" y="692"/>
      <point x="318" y="644" type="curve" smooth="yes"/>
      <point x="318" y="596"/>
      <point x="282" y="558"/>
    </contour>
  </outline>
</glyph>
<glyph name="copyright" format="2">
  <advance width="800"/>
  <unicode hex="00A9"/>
  <outline>
    <contour>
      <point x="494" y="300" type="curve"/>
      <point x="588" y="300" type="line"/>
      <point x="574" y="197"/>
      <point x="497" y="143"/>
      <point x="410" y="143" type="curve" smooth="yes"/>
      <point x="284" y="143"/>
      <point x="211" y="237"/>
      <point x="211" y="357" type="curve" smooth="yes"/>
      <point x="211" y="480"/>
      <point x="280" y="567"/>
      <point x="408" y="567" type="curve" smooth="yes"/>
      <point x="498" y="567"/>
      <point x="573" y="519"/>
      <point x="588" y="419" type="curve"/>
      <point x="494" y="419" type="line"/>
      <point x="485" y="462"/>
      <point x="452" y="477"/>
      <point x="416" y="477" type="curve" smooth="yes"/>
      <point x="351" y="477"/>
      <point x="319" y="431"/>
      <point x="319" y="359" type="curve" smooth="yes"/>
      <point x="319" y="285"/>
      <point x="356" y="233"/>
      <point x="414" y="233" type="curve" smooth="yes"/>
      <point x="456" y="233"/>
      <point x="491" y="251"/>
    </contour>
    <contour>
      <point x="28" y="354" type="curve" smooth="yes"/>
      <point x="28" y="559"/>
      <point x="195" y="726"/>
      <point x="400" y="726" type="curve" smooth="yes"/>
      <point x="605" y="726"/>
      <point x="772" y="559"/>
      <point x="772" y="354" type="curve" smooth="yes"/>
      <point x="772" y="149"/>
      <point x="605" y="-18"/>
      <point x="400" y="-18" type="curve" smooth="yes"/>
      <point x="195" y="-18"/>
      <point x="28" y="149"/>
    </contour>
    <contour>
      <point x="130" y="354" type="curve" smooth="yes"/>
      <point x="130" y="199"/>
      <point x="251" y="72"/>
      <point x="400" y="72" type="curve" smooth="yes"/>
      <point x="549" y="72"/>
      <point x="670" y="199"/>
      <point x="670" y="354" type="curve" smooth="yes"/>
      <point x="670" y="509"/>
      <point x="549" y="636"/>
      <point x="400" y="636" type="curve" smooth="yes"/>
      <point x="251" y="636"/>
      <point x="130" y="509"/>
    </contour>
  </outline>
</glyph>
<glyph name="ordfeminine" format="2">
  <advance width="349"/>
  <unicode hex="00AA"/>
  <outline>
    <contour>
      <point x="230" y="431" type="line"/>
      <point x="230" y="468" type="line"/>
      <point x="228" y="468" type="line"/>
      <point x="214" y="437"/>
      <point x="175" y="425"/>
      <point x="135" y="425" type="curve" smooth="yes"/>
      <point x="76" y="425"/>
      <point x="23" y="456"/>
      <point x="23" y="514" type="curve" smooth="yes"/>
      <point x="23" y="615"/>
      <point x="155" y="619"/>
      <point x="230" y="619" type="curve"/>
      <point x="230" y="643"/>
      <point x="208" y="666"/>
      <point x="174" y="666" type="curve" smooth="yes"/>
      <point x="142" y="666"/>
      <point x="116" y="651"/>
      <point x="95" y="630" type="curve"/>
      <point x="43" y="679" type="line"/>
      <point x="79" y="710"/>
      <point x="131" y="726"/>
      <point x="182" y="726" type="curve" smooth="yes"/>
      <point x="296" y="726"/>
      <point x="326" y="672"/>
      <point x="326" y="579" type="curve" smooth="yes"/>
      <point x="326" y="431" type="line"/>
    </contour>
    <contour>
      <point x="236" y="540" type="curve" smooth="yes"/>
      <point x="236" y="559" type="line"/>
      <point x="218" y="559" type="line" smooth="yes"/>
      <point x="189" y="559"/>
      <point x="125" y="556"/>
      <point x="125" y="518" type="curve" smooth="yes"/>
      <point x="125" y="496"/>
      <point x="147" y="491"/>
      <point x="168" y="491" type="curve" smooth="yes"/>
      <point x="207" y="491"/>
      <point x="236" y="517"/>
    </contour>
  </outline>
</glyph>
<glyph name="guillemotleft" format="2">
  <advance width="538"/>
  <unicode hex="00AB"/>
  <outline>
    <contour>
      <point x="268" y="422" type="line"/>
      <point x="152" y="249" type="line"/>
      <point x="268" y="76" type="line"/>
      <point x="177" y="15" type="line"/>
      <point x="18" y="249" type="line"/>
      <point x="177" y="483" type="line"/>
    </contour>
    <contour>
      <point x="510" y="422" type="line"/>
      <point x="394" y="249" type="line"/>
      <point x="510" y="76" type="line"/>
      <point x="419" y="15" type="line"/>
      <point x="260" y="249" type="line"/>
      <point x="419" y="483" type="line"/>
    </contour>
  </outline>
</glyph>
<glyph name="registered" format="2">
  <advance width="800"/>
  <unicode hex="00AE"/>
  <outline>
    <contour>
      <point x="257" y="163" type="line"/>
      <point x="257" y="553" type="line"/>
      <point x="395" y="553" type="line" smooth="yes"/>
      <point x="437" y="553"/>
      <point x="561" y="553"/>
      <point x="561" y="427" type="curve" smooth="yes"/>
      <point x="561" y="348"/>
      <point x="515" y="324"/>
      <point x="470" y="318" type="curve"/>
      <point x="570" y="163" type="line"/>
      <point x="465" y="163" type="line"/>
      <point x="376" y="313" type="line"/>
      <point x="359" y="313" type="line"/>
      <point x="359" y="163" type="line"/>
    </contour>
    <contour>
      <point x="358" y="475" type="line"/>
      <point x="358" y="391" type="line"/>
      <point x="399" y="391" type="line" smooth="yes"/>
      <point x="423" y="391"/>
      <point x="459" y="392"/>
      <point x="459" y="433" type="curve" smooth="yes"/>
      <point x="459" y="473"/>
      <point x="423" y="475"/>
      <point x="399" y="475" type="curve" smooth="yes"/>
    </contour>
    <contour>
      <point x="28" y="354" type="curve" smooth="yes"/>
      <point x="28" y="559"/>
      <point x="195" y="726"/>
      <point x="400" y="726" type="curve" smooth="yes"/>
      <point x="605" y="726"/>
      <point x="772" y="559"/>
      <point x="772" y="354" type="curve" smooth="yes"/>
      <point x="772" y="149"/>
      <point x="605" y="-18"/>
      <point x="400" y="-18" type="curve" smooth="yes"/>
      <point x="195" y="-18"/>
      <point x="28" y="149"/>
    </contour>
    <contour>
      <point x="130" y="354" type="curve" smooth="yes"/>
      <point x="130" y="199"/>
      <point x="251" y="72"/>
      <point x="400" y="72" type="curve" smooth="yes"/>
      <point x="549" y="72"/>
      <point x="670" y="199"/>
      <point x="670" y="354" type="curve" smooth="yes"/>
      <point x="670" y="509"/>
      <point x="549" y="636"/>
      <point x="400" y="636" type="curve" smooth="yes"/>
      <point x="251" y="636"/>
      <point x="130" y="509"/>
    </contour>
  </outline>
</glyph>
<glyph name="degree" format="2">
  <advance width="400"/>
  <unicode hex="00B0"/>
  <outline>
    <contour>
      <point x="200" y="460" type="curve" smooth="yes"/>
      <point x="249" y="460"/>
      <point x="288" y="499"/>
      <point x="288" y="548" type="curve" smooth="yes"/>
      <point x="288" y="597"/>
      <point x="249" y="636"/>
      <point x="200" y="636" type="curve" smooth="yes"/>
      <point x="151" y="636"/>
      <point x="112" y="597"/>
      <point x="112" y="548" type="curve" smooth="yes"/>
      <point x="112" y="499"/>
      <point x="151" y="460"/>
    </contour>
    <contour>
      <point x="200" y="376" type="curve" smooth="yes"/>
      <point x="105" y="376"/>
      <point x="28" y="453"/>
      <point x="28" y="548" type="curve" smooth="yes"/>
      <point x="28" y="643"/>
      <point x="105" y="720"/>
      <point x="200" y="720" type="curve" smooth="yes"/>
      <point x="295" y="720"/>
      <point x="372" y="643"/>
      <point x="372" y="548" type="curve" smooth="yes"/>
      <point x="372" y="453"/>
      <point x="295" y="376"/>
    </contour>
  </outline>
</glyph>
<glyph name="plusminus" format="2">
  <advance width="666"/>
  <unicode hex="00B1"/>
  <outline>
    <contour>
      <point x="59" y="323" type="line"/>
      <point x="59" y="449" type="line"/>
      <point x="270" y="449" type="line"/>
      <point x="270" y="577" type="line"/>
      <point x="396" y="577" type="line"/>
      <point x="396" y="449" type="line"/>
      <point x="607" y="449" type="line"/>
      <point x="607" y="323" type="line"/>
      <point x="396" y="323" type="line"/>
      <point x="396" y="195" type="line"/>
      <point x="270" y="195" type="line"/>
      <point x="270" y="323" type="line"/>
    </contour>
    <contour>
      <point x="59" y="29" type="line"/>
      <point x="59" y="155" type="line"/>
      <point x="607" y="155" type="line"/>
      <point x="607" y="29" type="line"/>
    </contour>
  </outline>
</glyph>
<glyph name="twosuperior" format="2">
  <advance width="385"/>
  <unicode hex="00B2"/>
  <outline>
    <contour>
      <point x="24" y="289" type="line"/>
      <point x="24" y="378" type="line"/>
      <point x="210" y="536" type="line" smooth="yes"/>
      <point x="229" y="552"/>
      <point x="253" y="571"/>
      <point x="253" y="591" type="curve" smooth="yes"/>
      <point x="253" y="619"/>
      <point x="225" y="630"/>
      <point x="194" y="630" type="curve" smooth="yes"/>
      <point x="156" y="630"/>
      <point x="130" y="606"/>
      <point x="128" y="576" type="curve"/>
      <point x="26" y="582" type="line"/>
      <point x="33" y="677"/>
      <point x="103" y="720"/>
      <point x="199" y="720" type="curve" smooth="yes"/>
      <point x="292" y="720"/>
      <point x="361" y="677"/>
      <point x="361" y="600" type="curve" smooth="yes"/>
      <point x="361" y="531"/>
      <point x="339" y="513"/>
      <point x="300" y="483" type="curve" smooth="yes"/>
      <point x="160" y="375" type="line"/>
      <point x="160" y="373" type="line"/>
      <point x="361" y="373" type="line"/>
      <point x="361" y="289" type="line"/>
    </contour>
  </outline>
</glyph>
<glyph name="threesuperior" format="2">
  <advance width="385"/>
  <unicode hex="00B3"/>
  <outline>
    <contour>
      <point x="143" y="468" type="line"/>
      <point x="143" y="552" type="line"/>
      <point x="177" y="552" type="line" smooth="yes"/>
      <point x="215" y="552"/>
      <point x="251" y="559"/>
      <point x="251" y="597" type="curve" smooth="yes"/>
      <point x="251" y="618"/>
      <point x="229" y="630"/>
      <point x="195" y="630" type="curve" smooth="yes"/>
      <point x="163" y="630"/>
      <point x="138" y="614"/>
      <point x="131" y="586" type="curve"/>
      <point x="21" y="606" type="line"/>
      <point x="43" y="691"/>
      <point x="113" y="720"/>
      <point x="195" y="720" type="curve" smooth="yes"/>
      <point x="281" y="720"/>
      <point x="359" y="683"/>
      <point x="359" y="606" type="curve" smooth="yes"/>
      <point x="359" y="559"/>
      <point x="330" y="522"/>
      <point x="276" y="513" type="curve"/>
      <point x="276" y="511" type="line"/>
      <point x="334" y="504"/>
      <point x="368" y="460"/>
      <point x="368" y="411" type="curve" smooth="yes"/>
      <point x="368" y="325"/>
      <point x="287" y="283"/>
      <point x="192" y="283" type="curve" smooth="yes"/>
      <point x="105" y="283"/>
      <point x="37" y="316"/>
      <point x="17" y="401" type="curve"/>
      <point x="126" y="423" type="line"/>
      <point x="133" y="392"/>
      <point x="154" y="373"/>
      <point x="192" y="373" type="curve" smooth="yes"/>
      <point x="230" y="373"/>
      <point x="260" y="386"/>
      <point x="260" y="421" type="curve" smooth="yes"/>
      <point x="260" y="467"/>
      <point x="214" y="468"/>
      <point x="168" y="468" type="curve" smooth="yes"/>
    </contour>
  </outline>
</glyph>
<glyph name="acute" format="2">
  <advance width="260"/>
  <unicode hex="00B4"/>
  <outline>
    <contour>
      <point x="30" y="564" type="line"/>
      <point x="131" y="708" type="line"/>
      <point x="335" y="708" type="line"/>
      <point x="162" y="564" type="line"/>
    </contour>
  </outline>
</glyph>
<glyph name="paragraph" format="2">
  <advance width="620"/>
  <unicode hex="00B6"/>
  <outline>
    <contour>
      <point x="236" y="-133" type="line"/>
      <point x="236" y="359" type="line"/>
      <point x="91" y="359"/>
      <point x="13" y="423"/>
      <point x="13" y="530" type="curve" smooth="yes"/>
      <point x="13" y="674"/>
      <point x="120" y="708"/>
      <point x="259" y="708" type="curve" smooth="yes"/>
      <point x="561" y="708" type="line"/>
      <point x="561" y="-133" type="line"/>
      <point x="453" y="-133" type="line"/>
      <point x="453" y="612" type="line"/>
      <point x="344" y="612" type="line"/>
      <point x="344" y="-133" type="line"/>
    </contour>
  </outline>
</glyph>
<glyph name="cedilla" format="2">
  <advance width="260"/>
  <unicode hex="00B8"/>
  <outline>
    <contour>
      <point x="168" y="0" type="line"/>
      <point x="127" y="-60" type="line"/>
      <point x="186" y="-60"/>
      <point x="253" y="-69"/>
      <point x="253" y="-143" type="curve" smooth="yes"/>
      <point x="253" y="-216"/>
      <point x="165" y="-240"/>
      <point x="114" y="-240" type="curve" smooth="yes"/>
      <point x="74" y="-240"/>
      <point x="24" y="-227"/>
      <point x="-11" y="-210" type="curve"/>
      <point x="14" y="-163" type="line"/>
      <point x="30" y="-169"/>
      <point x="57" y="-180"/>
      <point x="91" y="-180" type="curve" smooth="yes"/>
      <point x="122" y="-180"/>
      <point x="157" y="-174"/>
      <point x="157" y="-148" type="curve" smooth="yes"/>
      <point x="157" y="-124"/>
      <point x="127" y="-114"/>
      <point x="107" y="-114" type="curve" smooth="yes"/>
      <point x="94" y="-114"/>
      <point x="83" y="-117"/>
      <point x="71" y="-122" type="curve"/>
      <point x="39" y="-93" type="line"/>
      <point x="101" y="0" type="line"/>
    </contour>
  </outline>
</glyph>
<glyph name="onesuperior" format="2">
  <advance width="385"/>
  <unicode hex="00B9"/>
  <outline>
    <contour>
      <point x="183" y="289" type="line"/>
      <point x="183" y="606" type="line"/>
      <point x="94" y="531" type="line"/>
      <point x="36" y="597" type="line"/>
      <point x="195" y="714" type="line"/>
      <point x="291" y="714" type="line"/>
      <point x="291" y="289" type="line"/>
    </contour>
  </outline>
</glyph>
<glyph name="ordmasculine" format="2">
  <advance width="397"/>
  <unicode hex="00BA"/>
  <outline>
    <contour>
      <point x="23" y="575" type="curve" smooth="yes"/>
      <point x="23" y="666"/>
      <point x="100" y="726"/>
      <point x="198" y="726" type="curve" smooth="yes"/>
      <point x="296" y="726"/>
      <point x="374" y="666"/>
      <point x="374" y="575" type="curve" smooth="yes"/>
      <point x="374" y="480"/>
      <point x="296" y="425"/>
      <point x="198" y="425" type="curve" smooth="yes"/>
      <point x="100" y="425"/>
      <point x="23" y="480"/>
    </contour>
    <contour>
      <point x="125" y="575" type="curve" smooth="yes"/>
      <point x="126" y="539"/>
      <point x="153" y="509"/>
      <point x="198" y="509" type="curve" smooth="yes"/>
      <point x="243" y="509"/>
      <point x="272" y="539"/>
      <point x="272" y="575" type="curve" smooth="yes"/>
      <point x="272" y="612"/>
      <point x="243" y="642"/>
      <point x="198" y="642" type="curve" smooth="yes"/>
      <point x="153" y="642"/>
      <point x="125" y="612"/>
    </contour>
  </outline>
</glyph>
<glyph name="guillemotright" format="2">
  <advance width="538"/>
  <unicode hex="00BB"/>
  <outline>
    <contour>
      <point x="270" y="76" type="line"/>
      <point x="386" y="249" type="line"/>
      <point x="270" y="422" type="line"/>
      <point x="361" y="483" type="line"/>
      <point x="520" y="249" type="line"/>
      <point x="361" y="15" type="line"/>
    </contour>
    <contour>
      <point x="28" y="76" type="line"/>
      <point x="144" y="249" type="line"/>
      <point x="28" y="422" type="line"/>
      <point x="119" y="483" type="line"/>
      <point x="278" y="249" type="line"/>
      <point x="119" y="15" type="line"/>
    </contour>
  </outline>
</glyph>
<glyph name="onequarter" format="2">
  <advance width="889"/>
  <unicode hex="00BC"/>
  <outline>
    <contour>
      <point x="716" y="0" type="line"/>
      <point x="716" y="85" type="line"/>
      <point x="507" y="85" type="line"/>
      <point x="507" y="163" type="line"/>
      <point x="706" y="425" type="line"/>
      <point x="824" y="425" type="line"/>
      <point x="824" y="169" type="line"/>
      <point x="881" y="169" type="line"/>
      <point x="881" y="85" type="line"/>
      <point x="824" y="85" type="line"/>
      <point x="824" y="0" type="line"/>
    </contour>
    <contour>
      <point x="716" y="169" type="line"/>
      <point x="716" y="305" type="line"/>
      <point x="714" y="305" type="line"/>
      <point x="615" y="169" type="line"/>
    </contour>
    <contour>
      <point x="155" y="289" type="line"/>
      <point x="155" y="606" type="line"/>
      <point x="66" y="531" type="line"/>
      <point x="8" y="597" type="line"/>
      <point x="167" y="714" type="line"/>
      <point x="263" y="714" type="line"/>
      <point x="263" y="289" type="line"/>
    </contour>
    <contour>
      <point x="189" y="11" type="line"/>
      <point x="594" y="740" type="line"/>
      <point x="678" y="693" type="line"/>
      <point x="265" y="-32" type="line"/>
    </contour>
  </outline>
</glyph>
<glyph name="onehalf" format="2">
  <advance width="889"/>
  <unicode hex="00BD"/>
  <outline>
    <contour>
      <point x="155" y="289" type="line"/>
      <point x="155" y="606" type="line"/>
      <point x="66" y="531" type="line"/>
      <point x="8" y="597" type="line"/>
      <point x="167" y="714" type="line"/>
      <point x="263" y="714" type="line"/>
      <point x="263" y="289" type="line"/>
    </contour>
    <contour>
      <point x="544" y="0" type="line"/>
      <point x="544" y="89" type="line"/>
      <point x="730" y="247" type="line" smooth="yes"/>
      <point x="749" y="263"/>
      <point x="773" y="282"/>
      <point x="773" y="302" type="curve" smooth="yes"/>
      <point x="773" y="330"/>
      <point x="745" y="341"/>
      <point x="714" y="341" type="curve" smooth="yes"/>
      <point x="676" y="341"/>
      <point x="650" y="317"/>
      <point x="648" y="287" type="curve"/>
      <point x="546" y="293" type="line"/>
      <point x="553" y="388"/>
      <point x="623" y="431"/>
      <point x="719" y="431" type="curve" smooth="yes"/>
      <point x="812" y="431"/>
      <point x="881" y="388"/>
      <point x="881" y="311" type="curve" smooth="yes"/>
      <point x="881" y="242"/>
      <point x="859" y="224"/>
      <point x="820" y="194" type="curve" smooth="yes"/>
      <point x="680" y="86" type="line"/>
      <point x="680" y="84" type="line"/>
      <point x="881" y="84" type="line"/>
      <point x="881" y="0" type="line"/>
    </contour>
    <contour>
      <point x="189" y="11" type="line"/>
      <point x="594" y="740" type="line"/>
      <point x="678" y="693" type="line"/>
      <point x="265" y="-32" type="line"/>
    </contour>
  </outline>
</glyph>
<glyph name="threequarters" format="2">
  <advance width="889"/>
  <unicode hex="00BE"/>
  <outline>
    <contour>
      <point x="720" y="0" type="line"/>
      <point x="720" y="85" type="line"/>
      <point x="511" y="85" type="line"/>
      <point x="511" y="163" type="line"/>
      <point x="710" y="425" type="line"/>
      <point x="828" y="425" type="line"/>
      <point x="828" y="169" type="line"/>
      <point x="885" y="169" type="line"/>
      <point x="885" y="85" type="line"/>
      <point x="828" y="85" type="line"/>
      <point x="828" y="0" type="line"/>
    </contour>
    <contour>
      <point x="720" y="169" type="line"/>
      <point x="720" y="305" type="line"/>
      <point x="718" y="305" type="line"/>
      <point x="619" y="169" type="line"/>
    </contour>
    <contour>
      <point x="130" y="468" type="line"/>
      <point x="130" y="552" type="line"/>
      <point x="164" y="552" type="line" smooth="yes"/>
      <point x="202" y="552"/>
      <point x="238" y="559"/>
      <point x="238" y="597" type="curve" smooth="yes"/>
      <point x="238" y="618"/>
      <point x="216" y="630"/>
      <point x="182" y="630" type="curve" smooth="yes"/>
      <point x="150" y="630"/>
      <point x="125" y="614"/>
      <point x="118" y="586" type="curve"/>
      <point x="9" y="606" type="line"/>
      <point x="30" y="691"/>
      <point x="100" y="720"/>
      <point x="182" y="720" type="curve" smooth="yes"/>
      <point x="268" y="720"/>
      <point x="346" y="683"/>
      <point x="346" y="606" type="curve" smooth="yes"/>
      <point x="346" y="559"/>
      <point x="317" y="522"/>
      <point x="263" y="513" type="curve"/>
      <point x="263" y="511" type="line"/>
      <point x="321" y="504"/>
      <point x="355" y="460"/>
      <point x="355" y="411" type="curve" smooth="yes"/>
      <point x="355" y="325"/>
      <point x="274" y="283"/>
      <point x="179" y="283" type="curve" smooth="yes"/>
      <point x="92" y="283"/>
      <point x="24" y="316"/>
      <point x="4" y="401" type="curve"/>
      <point x="113" y="423" type="line"/>
      <point x="120" y="392"/>
      <point x="141" y="373"/>
      <point x="179" y="373" type="curve" smooth="yes"/>
      <point x="217" y="373"/>
      <point x="247" y="386"/>
      <point x="247" y="421" type="curve" smooth="yes"/>
      <point x="247" y="467"/>
      <point x="201" y="468"/>
      <point x="155" y="468" type="curve" smooth="yes"/>
    </contour>
    <contour>
      <point x="213" y="11" type="line"/>
      <point x="618" y="740" type="line"/>
      <point x="702" y="693" type="line"/>
      <point x="289" y="-32" type="line"/>
    </contour>
  </outline>
</glyph>
<glyph name="questiondown" format="2">
  <advance width="556"/>
  <unicode hex="00BF"/>
  <outline>
    <contour>
      <point x="340" y="252" type="line"/>
      <point x="340" y="208" type="line" smooth="yes"/>
      <point x="340" y="168"/>
      <point x="330" y="142"/>
      <point x="305" y="118" type="curve" smooth="yes"/>
      <point x="231" y="47"/>
      <point x="177" y="14"/>
      <point x="177" y="-32" type="curve" smooth="yes"/>
      <point x="177" y="-76"/>
      <point x="208" y="-102"/>
      <point x="249" y="-102" type="curve" smooth="yes"/>
      <point x="311" y="-102"/>
      <point x="344" y="-62"/>
      <point x="348" y="-13" type="curve"/>
      <point x="502" y="-23" type="line"/>
      <point x="488" y="-164"/>
      <point x="391" y="-240"/>
      <point x="252" y="-240" type="curve" smooth="yes"/>
      <point x="130" y="-240"/>
      <point x="27" y="-172"/>
      <point x="27" y="-43" type="curve" smooth="yes"/>
      <point x="27" y="33"/>
      <point x="56" y="79"/>
      <point x="151" y="154" type="curve" smooth="yes"/>
      <point x="182" y="178"/>
      <point x="190" y="201"/>
      <point x="190" y="223" type="curve" smooth="yes"/>
      <point x="190" y="252" type="line"/>
    </contour>
    <contour>
      <point x="357" y="400" type="curve" smooth="yes"/>
      <point x="357" y="349"/>
      <point x="316" y="308"/>
      <point x="265" y="308" type="curve" smooth="yes"/>
      <point x="214" y="308"/>
      <point x="173" y="349"/>
      <point x="173" y="400" type="curve" smooth="yes"/>
      <point x="173" y="451"/>
      <point x="214" y="492"/>
      <point x="265" y="492" type="curve" smooth="yes"/>
      <point x="316" y="492"/>
      <point x="357" y="451"/>
    </contour>
  </outline>
</glyph>
<glyph name="Atilde" format="2">
  <advance width="741"/>
  <unicode hex="00C3"/>
  <outline>
    <contour>
      <point x="-1" y="0" type="line"/>
      <point x="305" y="708" type="line"/>
      <point x="434" y="708" type="line"/>
      <point x="742" y="0" type="line"/>
      <point x="566" y="0" type="line"/>
      <point x="505" y="150" type="line"/>
      <point x="230" y="150" type="line"/>
      <point x="171" y="0" type="line"/>
    </contour>
    <contour>
      <point x="452" y="282" type="line"/>
      <point x="365" y="502" type="line"/>
      <point x="279" y="282" type="line"/>
    </contour>
    <contour>
      <point x="254" y="765" type="curve"/>
      <point x="175" y="765" type="line"/>
      <point x="186" y="832"/>
      <point x="227" y="903"/>
      <point x="302" y="903" type="curve" smooth="yes"/>
      <point x="335" y="903"/>
      <point x="360" y="894"/>
      <point x="389" y="882" type="curve" smooth="yes"/>
      <point x="407" y="875"/>
      <point x="425" y="867"/>
      <point x="445" y="867" type="curve" smooth="yes"/>
      <point x="468" y="867"/>
      <point x="480" y="883"/>
      <point x="489" y="903" type="curve"/>
      <point x="567" y="903" type="line"/>
      <point x="554" y="827"/>
      <point x="521" y="765"/>
      <point x="437" y="765" type="curve" smooth="yes"/>
      <point x="408" y="765"/>
      <point x="382" y="776"/>
      <point x="359" y="786" type="curve" smooth="yes"/>
      <point x="336" y="797"/>
      <point x="316" y="807"/>
      <point x="296" y="807" type="curve" smooth="yes"/>
      <point x="273" y="807"/>
      <point x="260" y="784"/>
    </contour>
  </outline>
</glyph>
<glyph name="Adieresis" format="2">
  <advance width="741"/>
  <unicode hex="00C4"/>
  <outline>
    <contour>
      <point x="-1" y="0" type="line"/>
      <point x="305" y="708" type="line"/>
      <point x="434" y="708" type="line"/>
      <point x="742" y="0" type="line"/>
      <point x="566" y="0" type="line"/>
      <point x="505" y="150" type="line"/>
      <point x="230" y="150" type="line"/>
      <point x="171" y="0" type="line"/>
    </contour>
    <contour>
      <point x="452" y="282" type="line"/>
      <point x="365" y="502" type="line"/>
      <point x="279" y="282" type="line"/>
    </contour>
    <contour>
      <point x="266" y="753" type="curve" smooth="yes"/>
      <point x="219" y="753"/>
      <point x="183" y="793"/>
      <point x="183" y="839" type="curve" smooth="yes"/>
      <point x="183" y="882"/>
      <point x="220" y="921"/>
      <point x="264" y="921" type="curve" smooth="yes"/>
      <point x="310" y="921"/>
      <point x="351" y="887"/>
      <point x="351" y="839" type="curve" smooth="yes"/>
      <point x="351" y="791"/>
      <point x="315" y="753"/>
    </contour>
    <contour>
      <point x="474" y="753" type="curve" smooth="yes"/>
      <point x="427" y="753"/>
      <point x="391" y="793"/>
      <point x="391" y="839" type="curve" smooth="yes"/>
      <point x="391" y="882"/>
      <point x="428" y="921"/>
      <point x="472" y="921" type="curve" smooth="yes"/>
      <point x="518" y="921"/>
      <point x="559" y="887"/>
      <point x="559" y="839" type="curve" smooth="yes"/>
      <point x="559" y="791"/>
      <point x="523" y="753"/>
    </contour>
  </outline>
</glyph>
<glyph name="Aring" format="2">
  <advance width="741"/>
  <unicode hex="00C5"/>
  <outline>
    <contour>
      <point x="-1" y="0" type="line"/>
      <point x="305" y="708" type="line"/>
      <point x="434" y="708" type="line"/>
      <point x="742" y="0" type="line"/>
      <point x="566" y="0" type="line"/>
      <point x="505" y="150" type="line"/>
      <point x="230" y="150" type="line"/>
      <point x="171" y="0" type="line"/>
    </contour>
    <contour>
      <point x="452" y="282" type="line"/>
      <point x="365" y="502" type="line"/>
      <point x="279" y="282" type="line"/>
    </contour>
    <contour>
      <point x="371" y="731" type="curve" smooth="yes"/>
      <point x="310" y="731"/>
      <point x="260" y="781"/>
      <point x="260" y="842" type="curve" smooth="yes"/>
      <point x="260" y="903"/>
      <point x="310" y="953"/>
      <point x="371" y="953" type="curve" smooth="yes"/>
      <point x="432" y="953"/>
      <point x="482" y="903"/>
      <point x="482" y="842" type="curve" smooth="yes"/>
      <point x="482" y="781"/>
      <point x="432" y="731"/>
    </contour>
    <contour>
      <point x="320" y="842" type="curve" smooth="yes"/>
      <point x="320" y="814"/>
      <point x="343" y="791"/>
      <point x="371" y="791" type="curve" smooth="yes"/>
      <point x="399" y="791"/>
      <point x="422" y="814"/>
      <point x="422" y="842" type="curve" smooth="yes"/>
      <point x="422" y="870"/>
      <point x="399" y="893"/>
      <point x="371" y="893" type="curve" smooth="yes"/>
      <point x="343" y="893"/>
      <point x="320" y="870"/>
    </contour>
  </outline>
</glyph>
<glyph name="AE" format="2">
  <advance width="1037"/>
  <unicode hex="00C6"/>
  <outline>
    <contour>
      <point x="534" y="0" type="line"/>
      <point x="534" y="150" type="line"/>
      <point x="271" y="150" type="line"/>
      <point x="176" y="0" type="line"/>
      <point x="-15" y="0" type="line"/>
      <point x="434" y="708" type="line"/>
      <point x="972" y="708" type="line"/>
      <point x="972" y="564" type="line"/>
      <point x="690" y="564" type="line"/>
      <point x="690" y="432" type="line"/>
      <point x="948" y="432" type="line"/>
      <point x="948" y="288" type="line"/>
      <point x="690" y="288" type="line"/>
      <point x="690" y="144" type="line"/>
      <point x="984" y="144" type="line"/>
      <point x="984" y="0" type="line"/>
    </contour>
    <contour>
      <point x="534" y="282" type="line"/>
      <point x="534" y="564" type="line"/>
      <point x="517" y="564" type="line"/>
      <point x="338" y="282" type="line"/>
    </contour>
  </outline>
</glyph>
<glyph name="Ccedilla" format="2">
  <advance width="685"/>
  <unicode hex="00C7"/>
  <outline>
    <contour>
      <point x="655" y="622" type="curve"/>
      <point x="535" y="524" type="line"/>
      <point x="504" y="561"/>
      <point x="459" y="582"/>
      <point x="401" y="582" type="curve" smooth="yes"/>
      <point x="283" y="582"/>
      <point x="196" y="486"/>
      <point x="196" y="354" type="curve" smooth="yes"/>
      <point x="196" y="222"/>
      <point x="283" y="126"/>
      <point x="396" y="126" type="curve" smooth="yes"/>
      <point x="459" y="126"/>
      <point x="510" y="154"/>
      <point x="542" y="202" type="curve"/>
      <point x="672" y="105" type="line"/>
      <point x="613" y="21"/>
      <point x="513" y="-18"/>
      <point x="416" y="-18" type="curve" smooth="yes"/>
      <point x="409" y="-18"/>
      <point x="403" y="-18"/>
      <point x="397" y="-17" type="curve"/>
      <point x="368" y="-60" type="line"/>
      <point x="427" y="-60"/>
      <point x="494" y="-69"/>
      <point x="494" y="-143" type="curve" smooth="yes"/>
      <point x="494" y="-216"/>
      <point x="406" y="-240"/>
      <point x="355" y="-240" type="curve" smooth="yes"/>
      <point x="315" y="-240"/>
      <point x="265" y="-227"/>
      <point x="230" y="-210" type="curve"/>
      <point x="255" y="-163" type="line"/>
      <point x="271" y="-169"/>
      <point x="298" y="-180"/>
      <point x="332" y="-180" type="curve" smooth="yes"/>
      <point x="363" y="-180"/>
      <point x="398" y="-174"/>
      <point x="398" y="-148" type="curve" smooth="yes"/>
      <point x="398" y="-124"/>
      <point x="368" y="-114"/>
      <point x="348" y="-114" type="curve" smooth="yes"/>
      <point x="335" y="-114"/>
      <point x="324" y="-117"/>
      <point x="312" y="-122" type="curve"/>
      <point x="280" y="-93" type="line"/>
      <point x="334" y="-11" type="line"/>
      <point x="156" y="21"/>
      <point x="34" y="156"/>
      <point x="34" y="354" type="curve" smooth="yes"/>
      <point x="34" y="581"/>
      <point x="195" y="726"/>
      <point x="416" y="726" type="curve" smooth="yes"/>
      <point x="495" y="726"/>
      <point x="595" y="699"/>
    </contour>
  </outline>
</glyph>
<glyph name="Eacute" format="2">
  <advance width="630"/>
  <unicode hex="00C9"/>
  <outline>
    <contour>
      <point x="78" y="0" type="line"/>
      <point x="78" y="708" type="line"/>
      <point x="559" y="708" type="line"/>
      <point x="559" y="564" type="line"/>
      <point x="234" y="564" type="line"/>
      <point x="234" y="432" type="line"/>
      <point x="541" y="432" type="line"/>
      <point x="541" y="288" type="line"/>
      <point x="234" y="288" type="line"/>
      <point x="234" y="144" type="line"/>
      <point x="577" y="144" type="line"/>
      <point x="577" y="0" type="line"/>
    </contour>
    <contour>
      <point x="215" y="759" type="line"/>
      <point x="316" y="903" type="line"/>
      <point x="520" y="903" type="line"/>
      <point x="347" y="759" type="line"/>
    </contour>
  </outline>
</glyph>
<glyph name="Edieresis" format="2">
  <advance width="630"/>
  <unicode hex="00CB"/>
  <outline>
    <contour>
      <point x="78" y="0" type="line"/>
      <point x="78" y="708" type="line"/>
      <point x="559" y="708" type="line"/>
      <point x="559" y="564" type="line"/>
      <point x="234" y="564" type="line"/>
      <point x="234" y="432" type="line"/>
      <point x="541" y="432" type="line"/>
      <point x="541" y="288" type="line"/>
      <point x="234" y="288" type="line"/>
      <point x="234" y="144" type="line"/>
      <point x="577" y="144" type="line"/>
      <point x="577" y="0" type="line"/>
    </contour>
    <contour>
      <point x="210" y="753" type="curve" smooth="yes"/>
      <point x="163" y="753"/>
      <point x="127" y="793"/>
      <point x="127" y="839" type="curve" smooth="yes"/>
      <point x="127" y="882"/>
      <point x="164" y="921"/>
      <point x="208" y="921" type="curve" smooth="yes"/>
      <point x="254" y="921"/>
      <point x="295" y="887"/>
      <point x="295" y="839" type="curve" smooth="yes"/>
      <point x="295" y="791"/>
      <point x="259" y="753"/>
    </contour>
    <contour>
      <point x="418" y="753" type="curve" smooth="yes"/>
      <point x="371" y="753"/>
      <point x="335" y="793"/>
      <point x="335" y="839" type="curve" smooth="yes"/>
      <point x="335" y="882"/>
      <point x="372" y="921"/>
      <point x="416" y="921" type="curve" smooth="yes"/>
      <point x="462" y="921"/>
      <point x="503" y="887"/>
      <point x="503" y="839" type="curve" smooth="yes"/>
      <point x="503" y="791"/>
      <point x="467" y="753"/>
    </contour>
  </outline>
</glyph>
<glyph name="Igrave" format="2">
  <advance width="296"/>
  <unicode hex="00CC"/>
  <outline>
    <contour>
      <point x="70" y="0" type="line"/>
      <point x="70" y="708" type="line"/>
      <point x="226" y="708" type="line"/>
      <point x="226" y="0" type="line"/>
    </contour>
    <contour>
      <point x="149" y="903" type="line"/>
      <point x="250" y="759" type="line"/>
      <point x="118" y="759" type="line"/>
      <point x="-55" y="903" type="line"/>
    </contour>
  </outline>
</glyph>
<glyph name="Iacute" format="2">
  <advance width="296"/>
  <unicode hex="00CD"/>
  <outline>
    <contour>
      <point x="70" y="0" type="line"/>
      <point x="70" y="708" type="line"/>
      <point x="226" y="708" type="line"/>
      <point x="226" y="0" type="line"/>
    </contour>
    <contour>
      <point x="48" y="759" type="line"/>
      <point x="149" y="903" type="line"/>
      <point x="353" y="903" type="line"/>
      <point x="180" y="759" type="line"/>
    </contour>
  </outline>
</glyph>
<glyph name="Idieresis" format="2">
  <advance width="296"/>
  <unicode hex="00CF"/>
  <outline>
    <contour>
      <point x="70" y="0" type="line"/>
      <point x="70" y="708" type="line"/>
      <point x="226" y="708" type="line"/>
      <point x="226" y="0" type="line"/>
    </contour>
    <contour>
      <point x="43" y="753" type="curve" smooth="yes"/>
      <point x="-4" y="753"/>
      <point x="-40" y="793"/>
      <point x="-40" y="839" type="curve" smooth="yes"/>
      <point x="-40" y="882"/>
      <point x="-3" y="921"/>
      <point x="41" y="921" type="curve" smooth="yes"/>
      <point x="87" y="921"/>
      <point x="128" y="887"/>
      <point x="128" y="839" type="curve" smooth="yes"/>
      <point x="128" y="791"/>
      <point x="92" y="753"/>
    </contour>
    <contour>
      <point x="251" y="753" type="curve" smooth="yes"/>
      <point x="204" y="753"/>
      <point x="168" y="793"/>
      <point x="168" y="839" type="curve" smooth="yes"/>
      <point x="168" y="882"/>
      <point x="205" y="921"/>
      <point x="249" y="921" type="curve" smooth="yes"/>
      <point x="295" y="921"/>
      <point x="336" y="887"/>
      <point x="336" y="839" type="curve" smooth="yes"/>
      <point x="336" y="791"/>
      <point x="300" y="753"/>
    </contour>
  </outline>
</glyph>
<glyph name="Eth" format="2">
  <advance width="759"/>
  <unicode hex="00D0"/>
  <outline>
    <contour>
      <point x="228" y="564" type="line"/>
      <point x="228" y="420" type="line"/>
      <point x="426" y="420" type="line"/>
      <point x="426" y="318" type="line"/>
      <point x="228" y="318" type="line"/>
      <point x="228" y="144" type="line"/>
      <point x="309" y="144" type="line" smooth="yes"/>
      <point x="454" y="144"/>
      <point x="563" y="199"/>
      <point x="563" y="360" type="curve" smooth="yes"/>
      <point x="563" y="499"/>
      <point x="452" y="564"/>
      <point x="320" y="564" type="curve" smooth="yes"/>
    </contour>
    <contour>
      <point x="72" y="0" type="line"/>
      <point x="72" y="318" type="line"/>
      <point x="12" y="318" type="line"/>
      <point x="12" y="420" type="line"/>
      <point x="72" y="420" type="line"/>
      <point x="72" y="708" type="line"/>
      <point x="306" y="708" type="line" smooth="yes"/>
      <point x="534" y="708"/>
      <point x="725" y="611"/>
      <point x="725" y="352" type="curve" smooth="yes"/>
      <point x="725" y="123"/>
      <point x="538" y="0"/>
      <point x="327" y="0" type="curve" smooth="yes"/>
    </contour>
  </outline>
</glyph>
<glyph name="Ntilde" format="2">
  <advance width="815"/>
  <unicode hex="00D1"/>
  <outline>
    <contour>
      <point x="72" y="0" type="line"/>
      <point x="72" y="708" type="line"/>
      <point x="284" y="708" type="line"/>
      <point x="585" y="216" type="line"/>
      <point x="587" y="216" type="line"/>
      <point x="587" y="708" type="line"/>
      <point x="743" y="708" type="line"/>
      <point x="743" y="0" type="line"/>
      <point x="539" y="0" type="line"/>
      <point x="230" y="504" type="line"/>
      <point x="228" y="504" type="line"/>
      <point x="228" y="0" type="line"/>
    </contour>
    <contour>
      <point x="291" y="765" type="curve"/>
      <point x="212" y="765" type="line"/>
      <point x="223" y="832"/>
      <point x="264" y="903"/>
      <point x="339" y="903" type="curve" smooth="yes"/>
      <point x="372" y="903"/>
      <point x="397" y="894"/>
      <point x="426" y="882" type="curve" smooth="yes"/>
      <point x="444" y="875"/>
      <point x="462" y="867"/>
      <point x="482" y="867" type="curve" smooth="yes"/>
      <point x="505" y="867"/>
      <point x="517" y="883"/>
      <point x="526" y="903" type="curve"/>
      <point x="604" y="903" type="line"/>
      <point x="591" y="827"/>
      <point x="558" y="765"/>
      <point x="474" y="765" type="curve" smooth="yes"/>
      <point x="445" y="765"/>
      <point x="419" y="776"/>
      <point x="396" y="786" type="curve" smooth="yes"/>
      <point x="373" y="797"/>
      <point x="353" y="807"/>
      <point x="333" y="807" type="curve" smooth="yes"/>
      <point x="310" y="807"/>
      <point x="297" y="784"/>
    </contour>
  </outline>
</glyph>
<glyph name="Ograve" format="2">
  <advance width="832"/>
  <unicode hex="00D2"/>
  <outline>
    <contour>
      <point x="34" y="354" type="curve" smooth="yes"/>
      <point x="34" y="581"/>
      <point x="195" y="726"/>
      <point x="416" y="726" type="curve" smooth="yes"/>
      <point x="637" y="726"/>
      <point x="798" y="581"/>
      <point x="798" y="354" type="curve" smooth="yes"/>
      <point x="798" y="127"/>
      <point x="637" y="-18"/>
      <point x="416" y="-18" type="curve" smooth="yes"/>
      <point x="195" y="-18"/>
      <point x="34" y="127"/>
    </contour>
    <contour>
      <point x="196" y="354" type="curve" smooth="yes"/>
      <point x="196" y="222"/>
      <point x="283" y="126"/>
      <point x="416" y="126" type="curve" smooth="yes"/>
      <point x="549" y="126"/>
      <point x="636" y="222"/>
      <point x="636" y="354" type="curve" smooth="yes"/>
      <point x="636" y="486"/>
      <point x="549" y="582"/>
      <point x="416" y="582" type="curve" smooth="yes"/>
      <point x="283" y="582"/>
      <point x="196" y="486"/>
    </contour>
    <contour>
      <point x="417" y="903" type="line"/>
      <point x="518" y="759" type="line"/>
      <point x="386" y="759" type="line"/>
      <point x="213" y="903" type="line"/>
    </contour>
  </outline>
</glyph>
<glyph name="Ocircumflex" format="2">
  <advance width="832"/>
  <unicode hex="00D4"/>
  <outline>
    <contour>
      <point x="34" y="354" type="curve" smooth="yes"/>
      <point x="34" y="581"/>
      <point x="195" y="726"/>
      <point x="416" y="726" type="curve" smooth="yes"/>
      <point x="637" y="726"/>
      <point x="798" y="581"/>
      <point x="798" y="354" type="curve" smooth="yes"/>
      <point x="798" y="127"/>
      <point x="637" y="-18"/>
      <point x="416" y="-18" type="curve" smooth="yes"/>
      <point x="195" y="-18"/>
      <point x="34" y="127"/>
    </contour>
    <contour>
      <point x="196" y="354" type="curve" smooth="yes"/>
      <point x="196" y="222"/>
      <point x="283" y="126"/>
      <point x="416" y="126" type="curve" smooth="yes"/>
      <point x="549" y="126"/>
      <point x="636" y="222"/>
      <point x="636" y="354" type="curve" smooth="yes"/>
      <point x="636" y="486"/>
      <point x="549" y="582"/>
      <point x="416" y="582" type="curve" smooth="yes"/>
      <point x="283" y="582"/>
      <point x="196" y="486"/>
    </contour>
    <contour>
      <point x="615" y="759" type="line"/>
      <point x="477" y="759" type="line"/>
      <point x="414" y="837" type="line"/>
      <point x="352" y="759" type="line"/>
      <point x="217" y="759" type="line"/>
      <point x="336" y="903" type="line"/>
      <point x="499" y="903" type="line"/>
    </contour>
  </outline>
</glyph>
<glyph name="Otilde" format="2">
  <advance width="832"/>
  <unicode hex="00D5"/>
  <outline>
    <contour>
      <point x="34" y="354" type="curve" smooth="yes"/>
      <point x="34" y="581"/>
      <point x="195" y="726"/>
      <point x="416" y="726" type="curve" smooth="yes"/>
      <point x="637" y="726"/>
      <point x="798" y="581"/>
      <point x="798" y="354" type="curve" smooth="yes"/>
      <point x="798" y="127"/>
      <point x="637" y="-18"/>
      <point x="416" y="-18" type="curve" smooth="yes"/>
      <point x="195" y="-18"/>
      <point x="34" y="127"/>
    </contour>
    <contour>
      <point x="196" y="354" type="curve" smooth="yes"/>
      <point x="196" y="222"/>
      <point x="283" y="126"/>
      <point x="416" y="126" type="curve" smooth="yes"/>
      <point x="549" y="126"/>
      <point x="636" y="222"/>
      <point x="636" y="354" type="curve" smooth="yes"/>
      <point x="636" y="486"/>
      <point x="549" y="582"/>
      <point x="416" y="582" type="curve" smooth="yes"/>
      <point x="283" y="582"/>
      <point x="196" y="486"/>
    </contour>
    <contour>
      <point x="299" y="765" type="curve"/>
      <point x="220" y="765" type="line"/>
      <point x="231" y="832"/>
      <point x="272" y="903"/>
      <point x="347" y="903" type="curve" smooth="yes"/>
      <point x="380" y="903"/>
      <point x="405" y="894"/>
      <point x="434" y="882" type="curve" smooth="yes"/>
      <point x="452" y="875"/>
      <point x="470" y="867"/>
      <point x="490" y="867" type="curve" smooth="yes"/>
      <point x="513" y="867"/>
      <point x="525" y="883"/>
      <point x="534" y="903" type="curve"/>
      <point x="612" y="903" type="line"/>
      <point x="599" y="827"/>
      <point x="566" y="765"/>
      <point x="482" y="765" type="curve" smooth="yes"/>
      <point x="453" y="765"/>
      <point x="427" y="776"/>
      <point x="404" y="786" type="curve" smooth="yes"/>
      <point x="381" y="797"/>
      <point x="361" y="807"/>
      <point x="341" y="807" type="curve" smooth="yes"/>
      <point x="318" y="807"/>
      <point x="305" y="784"/>
    </contour>
  </outline>
</glyph>
<glyph name="Odieresis" format="2">
  <advance width="832"/>
  <unicode hex="00D6"/>
  <outline>
    <contour>
      <point x="34" y="354" type="curve" smooth="yes"/>
      <point x="34" y="581"/>
      <point x="195" y="726"/>
      <point x="416" y="726" type="curve" smooth="yes"/>
      <point x="637" y="726"/>
      <point x="798" y="581"/>
      <point x="798" y="354" type="curve" smooth="yes"/>
      <point x="798" y="127"/>
      <point x="637" y="-18"/>
      <point x="416" y="-18" type="curve" smooth="yes"/>
      <point x="195" y="-18"/>
      <point x="34" y="127"/>
    </contour>
    <contour>
      <point x="196" y="354" type="curve" smooth="yes"/>
      <point x="196" y="222"/>
      <point x="283" y="126"/>
      <point x="416" y="126" type="curve" smooth="yes"/>
      <point x="549" y="126"/>
      <point x="636" y="222"/>
      <point x="636" y="354" type="curve" smooth="yes"/>
      <point x="636" y="486"/>
      <point x="549" y="582"/>
      <point x="416" y="582" type="curve" smooth="yes"/>
      <point x="283" y="582"/>
      <point x="196" y="486"/>
    </contour>
    <contour>
      <point x="311" y="753" type="curve" smooth="yes"/>
      <point x="264" y="753"/>
      <point x="228" y="793"/>
      <point x="228" y="839" type="curve" smooth="yes"/>
      <point x="228" y="882"/>
      <point x="265" y="921"/>
      <point x="309" y="921" type="curve" smooth="yes"/>
      <point x="355" y="921"/>
      <point x="396" y="887"/>
      <point x="396" y="839" type="curve" smooth="yes"/>
      <point x="396" y="791"/>
      <point x="360" y="753"/>
    </contour>
    <contour>
      <point x="519" y="753" type="curve" smooth="yes"/>
      <point x="472" y="753"/>
      <point x="436" y="793"/>
      <point x="436" y="839" type="curve" smooth="yes"/>
      <point x="436" y="882"/>
      <point x="473" y="921"/>
      <point x="517" y="921" type="curve" smooth="yes"/>
      <point x="563" y="921"/>
      <point x="604" y="887"/>
      <point x="604" y="839" type="curve" smooth="yes"/>
      <point x="604" y="791"/>
      <point x="568" y="753"/>
    </contour>
  </outline>
</glyph>
<glyph name="multiply" format="2">
  <advance width="666"/>
  <unicode hex="00D7"/>
  <outline>
    <contour>
      <point x="64" y="475" type="line"/>
      <point x="157" y="570" type="line"/>
      <point x="334" y="395" type="line"/>
      <point x="506" y="569" type="line"/>
      <point x="595" y="483" type="line"/>
      <point x="422" y="303" type="line"/>
      <point x="602" y="130" type="line"/>
      <point x="510" y="37" type="line"/>
      <point x="334" y="213" type="line"/>
      <point x="157" y="36" type="line"/>
      <point x="68" y="122" type="line"/>
      <point x="242" y="303" type="line"/>
    </contour>
  </outline>
</glyph>
<glyph name="Oslash" format="2">
  <advance width="832"/>
  <unicode hex="00D8"/>
  <outline>
    <contour>
      <point x="34" y="-3" type="line"/>
      <point x="127" y="99" type="line"/>
      <point x="68" y="163"/>
      <point x="34" y="250"/>
      <point x="34" y="354" type="curve" smooth="yes"/>
      <point x="34" y="581"/>
      <point x="195" y="726"/>
      <point x="416" y="726" type="curve" smooth="yes"/>
      <point x="503" y="726"/>
      <point x="580" y="704"/>
      <point x="643" y="662" type="curve"/>
      <point x="735" y="762" type="line"/>
      <point x="790" y="713" type="line"/>
      <point x="700" y="615" type="line"/>
      <point x="762" y="551"/>
      <point x="798" y="462"/>
      <point x="798" y="354" type="curve" smooth="yes"/>
      <point x="798" y="127"/>
      <point x="637" y="-18"/>
      <point x="416" y="-18" type="curve" smooth="yes"/>
      <point x="325" y="-18"/>
      <point x="244" y="7"/>
      <point x="183" y="50" type="curve"/>
      <point x="90" y="-51" type="line"/>
    </contour>
    <contour>
      <point x="235" y="217" type="curve"/>
      <point x="539" y="548" type="line"/>
      <point x="505" y="570"/>
      <point x="463" y="582"/>
      <point x="416" y="582" type="curve" smooth="yes"/>
      <point x="283" y="582"/>
      <point x="196" y="486"/>
      <point x="196" y="354" type="curve" smooth="yes"/>
      <point x="196" y="302"/>
      <point x="210" y="255"/>
    </contour>
    <contour>
      <point x="592" y="497" type="curve"/>
      <point x="287" y="164" type="line"/>
      <point x="321" y="140"/>
      <point x="365" y="126"/>
      <point x="416" y="126" type="curve" smooth="yes"/>
      <point x="549" y="126"/>
      <point x="636" y="222"/>
      <point x="636" y="354" type="curve" smooth="yes"/>
      <point x="636" y="410"/>
      <point x="620" y="460"/>
    </contour>
  </outline>
</glyph>
<glyph name="Udieresis" format="2">
  <advance width="741"/>
  <unicode hex="00DC"/>
  <outline>
    <contour>
      <point x="669" y="708" type="line"/>
      <point x="669" y="273" type="line" smooth="yes"/>
      <point x="669" y="106"/>
      <point x="567" y="-18"/>
      <point x="371" y="-18" type="curve" smooth="yes"/>
      <point x="174" y="-18"/>
      <point x="72" y="106"/>
      <point x="72" y="273" type="curve" smooth="yes"/>
      <point x="72" y="708" type="line"/>
      <point x="228" y="708" type="line"/>
      <point x="228" y="279" type="line" smooth="yes"/>
      <point x="228" y="192"/>
      <point x="288" y="126"/>
      <point x="371" y="126" type="curve" smooth="yes"/>
      <point x="453" y="126"/>
      <point x="513" y="192"/>
      <point x="513" y="279" type="curve" smooth="yes"/>
      <point x="513" y="708" type="line"/>
    </contour>
    <contour>
      <point x="266" y="753" type="curve" smooth="yes"/>
      <point x="219" y="753"/>
      <point x="183" y="793"/>
      <point x="183" y="839" type="curve" smooth="yes"/>
      <point x="183" y="882"/>
      <point x="220" y="921"/>
      <point x="264" y="921" type="curve" smooth="yes"/>
      <point x="310" y="921"/>
      <point x="351" y="887"/>
      <point x="351" y="839" type="curve" smooth="yes"/>
      <point x="351" y="791"/>
      <point x="315" y="753"/>
    </contour>
    <contour>
      <point x="474" y="753" type="curve" smooth="yes"/>
      <point x="427" y="753"/>
      <point x="391" y="793"/>
      <point x="391" y="839" type="curve" smooth="yes"/>
      <point x="391" y="882"/>
      <point x="428" y="921"/>
      <point x="472" y="921" type="curve" smooth="yes"/>
      <point x="518" y="921"/>
      <point x="559" y="887"/>
      <point x="559" y="839" type="curve" smooth="yes"/>
      <point x="559" y="791"/>
      <point x="523" y="753"/>
    </contour>
  </outline>
</glyph>
<glyph name="Yacute" format="2">
  <advance width="648"/>
  <unicode hex="00DD"/>
  <outline>
    <contour>
      <point x="246" y="0" type="line"/>
      <point x="246" y="302" type="line"/>
      <point x="-20" y="708" type="line"/>
      <point x="174" y="708" type="line"/>
      <point x="324" y="443" type="line"/>
      <point x="483" y="708" type="line"/>
      <point x="668" y="708" type="line"/>
      <point x="402" y="302" type="line"/>
      <point x="402" y="0" type="line"/>
    </contour>
    <contour>
      <point x="224" y="786" type="line"/>
      <point x="325" y="930" type="line"/>
      <point x="529" y="930" type="line"/>
      <point x="356" y="786" type="line"/>
    </contour>
  </outline>
</glyph>
<glyph name="Thorn" format="2">
  <advance width="630"/>
  <unicode hex="00DE"/>
  <outline>
    <contour>
      <point x="72" y="0" type="line"/>
      <point x="72" y="708" type="line"/>
      <point x="228" y="708" type="line"/>
      <point x="228" y="582" type="line"/>
      <point x="335" y="582" type="line" smooth="yes"/>
      <point x="482" y="582"/>
      <point x="604" y="535"/>
      <point x="604" y="367" type="curve" smooth="yes"/>
      <point x="604" y="201"/>
      <point x="491" y="150"/>
      <point x="342" y="150" type="curve" smooth="yes"/>
      <point x="228" y="150" type="line"/>
      <point x="228" y="0" type="line"/>
    </contour>
    <contour>
      <point x="228" y="450" type="line"/>
      <point x="228" y="282" type="line"/>
      <point x="332" y="282" type="line" smooth="yes"/>
      <point x="387" y="282"/>
      <point x="442" y="301"/>
      <point x="442" y="367" type="curve" smooth="yes"/>
      <point x="442" y="440"/>
      <point x="368" y="450"/>
      <point x="308" y="450" type="curve" smooth="yes"/>
    </contour>
  </outline>
</glyph>
<glyph name="germandbls" format="2">
  <advance width="630"/>
  <unicode hex="00DF"/>
  <outline>
    <contour>
      <point x="53" y="0" type="line"/>
      <point x="53" y="513" type="line" smooth="yes"/>
      <point x="53" y="682"/>
      <point x="137" y="768"/>
      <point x="309" y="768" type="curve" smooth="yes"/>
      <point x="422" y="768"/>
      <point x="540" y="712"/>
      <point x="540" y="585" type="curve" smooth="yes"/>
      <point x="540" y="508"/>
      <point x="509" y="454"/>
      <point x="438" y="425" type="curve"/>
      <point x="438" y="423" type="line"/>
      <point x="543" y="402"/>
      <point x="594" y="320"/>
      <point x="594" y="217" type="curve" smooth="yes"/>
      <point x="594" y="75"/>
      <point x="494" y="-12"/>
      <point x="356" y="-12" type="curve" smooth="yes"/>
      <point x="324" y="-12"/>
      <point x="294" y="-8"/>
      <point x="263" y="0" type="curve"/>
      <point x="263" y="122" type="line"/>
      <point x="279" y="117"/>
      <point x="295" y="114"/>
      <point x="312" y="114" type="curve" smooth="yes"/>
      <point x="386" y="114"/>
      <point x="450" y="151"/>
      <point x="450" y="231" type="curve" smooth="yes"/>
      <point x="450" y="316"/>
      <point x="392" y="353"/>
      <point x="313" y="353" type="curve" smooth="yes"/>
      <point x="293" y="353" type="line"/>
      <point x="293" y="479" type="line"/>
      <point x="305" y="479" type="line" smooth="yes"/>
      <point x="355" y="479"/>
      <point x="396" y="506"/>
      <point x="396" y="558" type="curve" smooth="yes"/>
      <point x="396" y="608"/>
      <point x="352" y="636"/>
      <point x="305" y="636" type="curve" smooth="yes"/>
      <point x="244" y="636"/>
      <point x="203" y="598"/>
      <point x="203" y="538" type="curve" smooth="yes"/>
      <point x="203" y="0" type="line"/>
    </contour>
  </outline>
</glyph>
<glyph name="agrave" format="2">
  <advance width="537"/>
  <unicode hex="00E0"/>
  <outline>
    <contour>
      <point x="358" y="0" type="line"/>
      <point x="358" y="61" type="line"/>
      <point x="356" y="61" type="line"/>
      <point x="323" y="9"/>
      <point x="263" y="-12"/>
      <point x="202" y="-12" type="curve" smooth="yes"/>
      <point x="111" y="-12"/>
      <point x="29" y="40"/>
      <point x="29" y="138" type="curve" smooth="yes"/>
      <point x="29" y="306"/>
      <point x="233" y="309"/>
      <point x="358" y="309" type="curve"/>
      <point x="358" y="362"/>
      <point x="314" y="396"/>
      <point x="262" y="396" type="curve" smooth="yes"/>
      <point x="213" y="396"/>
      <point x="172" y="374"/>
      <point x="140" y="338" type="curve"/>
      <point x="60" y="420" type="line"/>
      <point x="115" y="472"/>
      <point x="195" y="498"/>
      <point x="274" y="498" type="curve" smooth="yes"/>
      <point x="449" y="498"/>
      <point x="496" y="409"/>
      <point x="496" y="247" type="curve" smooth="yes"/>
      <point x="496" y="0" type="line"/>
    </contour>
    <contour>
      <point x="358" y="213" type="line"/>
      <point x="321" y="213" type="line" smooth="yes"/>
      <point x="275" y="213"/>
      <point x="173" y="209"/>
      <point x="173" y="143" type="curve" smooth="yes"/>
      <point x="173" y="107"/>
      <point x="211" y="90"/>
      <point x="244" y="90" type="curve" smooth="yes"/>
      <point x="303" y="90"/>
      <point x="358" y="121"/>
      <point x="358" y="181" type="curve" smooth="yes"/>
    </contour>
    <contour>
      <point x="270" y="708" type="line"/>
      <point x="371" y="564" type="line"/>
      <point x="239" y="564" type="line"/>
      <point x="66" y="708" type="line"/>
    </contour>
  </outline>
</glyph>
<glyph name="atilde" format="2">
  <advance width="537"/>
  <unicode hex="00E3"/>
  <outline>
    <contour>
      <point x="358" y="0" type="line"/>
      <point x="358" y="61" type="line"/>
      <point x="356" y="61" type="line"/>
      <point x="323" y="9"/>
      <point x="263" y="-12"/>
      <point x="202" y="-12" type="curve" smooth="yes"/>
      <point x="111" y="-12"/>
      <point x="29" y="40"/>
      <point x="29" y="138" type="curve" smooth="yes"/>
      <point x="29" y="306"/>
      <point x="233" y="309"/>
      <point x="358" y="309" type="curve"/>
      <point x="358" y="362"/>
      <point x="314" y="396"/>
      <point x="262" y="396" type="curve" smooth="yes"/>
      <point x="213" y="396"/>
      <point x="172" y="374"/>
      <point x="140" y="338" type="curve"/>
      <point x="60" y="420" type="line"/>
      <point x="115" y="472"/>
      <point x="195" y="498"/>
      <point x="274" y="498" type="curve" smooth="yes"/>
      <point x="449" y="498"/>
      <point x="496" y="409"/>
      <point x="496" y="247" type="curve" smooth="yes"/>
      <point x="496" y="0" type="line"/>
    </contour>
    <contour>
      <point x="358" y="213" type="line"/>
      <point x="321" y="213" type="line" smooth="yes"/>
      <point x="275" y="213"/>
      <point x="173" y="209"/>
      <point x="173" y="143" type="curve" smooth="yes"/>
      <point x="173" y="107"/>
      <point x="211" y="90"/>
      <point x="244" y="90" type="curve" smooth="yes"/>
      <point x="303" y="90"/>
      <point x="358" y="121"/>
      <point x="358" y="181" type="curve" smooth="yes"/>
    </contour>
    <contour>
      <point x="152" y="570" type="curve"/>
      <point x="73" y="570" type="line"/>
      <point x="84" y="637"/>
      <point x="125" y="708"/>
      <point x="200" y="708" type="curve" smooth="yes"/>
      <point x="233" y="708"/>
      <point x="258" y="699"/>
      <point x="287" y="687" type="curve" smooth="yes"/>
      <point x="305" y="680"/>
      <point x="323" y="672"/>
      <point x="343" y="672" type="curve" smooth="yes"/>
      <point x="366" y="672"/>
      <point x="378" y="688"/>
      <point x="387" y="708" type="curve"/>
      <point x="465" y="708" type="line"/>
      <point x="452" y="632"/>
      <point x="419" y="570"/>
      <point x="335" y="570" type="curve" smooth="yes"/>
      <point x="306" y="570"/>
      <point x="280" y="581"/>
      <point x="257" y="591" type="curve" smooth="yes"/>
      <point x="234" y="602"/>
      <point x="214" y="612"/>
      <point x="194" y="612" type="curve" smooth="yes"/>
      <point x="171" y="612"/>
      <point x="158" y="589"/>
    </contour>
  </outline>
</glyph>
<glyph name="aring" format="2">
  <advance width="537"/>
  <unicode hex="00E5"/>
  <outline>
    <contour>
      <point x="358" y="0" type="line"/>
      <point x="358" y="61" type="line"/>
      <point x="356" y="61" type="line"/>
      <point x="323" y="9"/>
      <point x="263" y="-12"/>
      <point x="202" y="-12" type="curve" smooth="yes"/>
      <point x="111" y="-12"/>
      <point x="29" y="40"/>
      <point x="29" y="138" type="curve" smooth="yes"/>
      <point x="29" y="306"/>
      <point x="233" y="309"/>
      <point x="358" y="309" type="curve"/>
      <point x="358" y="362"/>
      <point x="314" y="396"/>
      <point x="262" y="396" type="curve" smooth="yes"/>
      <point x="213" y="396"/>
      <point x="172" y="374"/>
      <point x="140" y="338" type="curve"/>
      <point x="60" y="420" type="line"/>
      <point x="115" y="472"/>
      <point x="195" y="498"/>
      <point x="274" y="498" type="curve" smooth="yes"/>
      <point x="449" y="498"/>
      <point x="496" y="409"/>
      <point x="496" y="247" type="curve" smooth="yes"/>
      <point x="496" y="0" type="line"/>
    </contour>
    <contour>
      <point x="358" y="213" type="line"/>
      <point x="321" y="213" type="line" smooth="yes"/>
      <point x="275" y="213"/>
      <point x="173" y="209"/>
      <point x="173" y="143" type="curve" smooth="yes"/>
      <point x="173" y="107"/>
      <point x="211" y="90"/>
      <point x="244" y="90" type="curve" smooth="yes"/>
      <point x="303" y="90"/>
      <point x="358" y="121"/>
      <point x="358" y="181" type="curve" smooth="yes"/>
    </contour>
    <contour>
      <point x="269" y="545" type="curve" smooth="yes"/>
      <point x="208" y="545"/>
      <point x="158" y="595"/>
      <point x="158" y="656" type="curve" smooth="yes"/>
      <point x="158" y="717"/>
      <point x="208" y="767"/>
      <point x="269" y="767" type="curve" smooth="yes"/>
      <point x="330" y="767"/>
      <point x="380" y="717"/>
      <point x="380" y="656" type="curve" smooth="yes"/>
      <point x="380" y="595"/>
      <point x="330" y="545"/>
    </contour>
    <contour>
      <point x="218" y="656" type="curve" smooth="yes"/>
      <point x="218" y="628"/>
      <point x="241" y="605"/>
      <point x="269" y="605" type="curve" smooth="yes"/>
      <point x="297" y="605"/>
      <point x="320" y="628"/>
      <point x="320" y="656" type="curve" smooth="yes"/>
      <point x="320" y="684"/>
      <point x="297" y="707"/>
      <point x="269" y="707" type="curve" smooth="yes"/>
      <point x="241" y="707"/>
      <point x="218" y="684"/>
    </contour>
  </outline>
</glyph>
<glyph name="ae" format="2">
  <advance width="852"/>
  <unicode hex="00E6"/>
  <outline>
    <contour>
      <point x="140" y="338" type="curve"/>
      <point x="60" y="420" type="line"/>
      <point x="115" y="472"/>
      <point x="195" y="498"/>
      <point x="274" y="498" type="curve" smooth="yes"/>
      <point x="331" y="498"/>
      <point x="390" y="480"/>
      <point x="432" y="439" type="curve"/>
      <point x="472" y="478"/>
      <point x="532" y="498"/>
      <point x="595" y="498" type="curve" smooth="yes"/>
      <point x="735" y="498"/>
      <point x="823" y="398"/>
      <point x="823" y="243" type="curve" smooth="yes"/>
      <point x="823" y="196" type="line"/>
      <point x="475" y="196" type="line"/>
      <point x="487" y="139"/>
      <point x="530" y="102"/>
      <point x="588" y="102" type="curve" smooth="yes"/>
      <point x="637" y="102"/>
      <point x="670" y="127"/>
      <point x="695" y="161" type="curve"/>
      <point x="800" y="84" type="line"/>
      <point x="752" y="23"/>
      <point x="673" y="-12"/>
      <point x="595" y="-12" type="curve" smooth="yes"/>
      <point x="516" y="-12"/>
      <point x="443" y="7"/>
      <point x="401" y="67" type="curve"/>
      <point x="359" y="9"/>
      <point x="287" y="-12"/>
      <point x="202" y="-12" type="curve" smooth="yes"/>
      <point x="111" y="-12"/>
      <point x="29" y="40"/>
      <point x="29" y="138" type="curve" smooth="yes"/>
      <point x="29" y="294"/>
      <point x="222" y="298"/>
      <point x="331" y="298" type="curve" smooth="yes"/>
      <point x="349" y="298" type="line"/>
      <point x="349" y="356"/>
      <point x="316" y="396"/>
      <point x="262" y="396" type="curve" smooth="yes"/>
      <point x="213" y="396"/>
      <point x="172" y="374"/>
    </contour>
    <contour>
      <point x="173" y="139" type="curve" smooth="yes"/>
      <point x="173" y="95"/>
      <point x="217" y="90"/>
      <point x="250" y="90" type="curve" smooth="yes"/>
      <point x="321" y="90"/>
      <point x="349" y="132"/>
      <point x="349" y="196" type="curve"/>
      <point x="331" y="196" type="line" smooth="yes"/>
      <point x="285" y="196"/>
      <point x="173" y="196"/>
    </contour>
    <contour>
      <point x="475" y="298" type="curve"/>
      <point x="673" y="298" type="line"/>
      <point x="674" y="348"/>
      <point x="635" y="390"/>
      <point x="581" y="390" type="curve" smooth="yes"/>
      <point x="515" y="390"/>
      <point x="479" y="345"/>
    </contour>
  </outline>
</glyph>
<glyph name="ccedilla" format="2">
  <advance width="482"/>
  <unicode hex="00E7"/>
  <outline>
    <contour>
      <point x="481" y="433" type="curve"/>
      <point x="382" y="329" type="line"/>
      <point x="367" y="350"/>
      <point x="339" y="366"/>
      <point x="308" y="366" type="curve" smooth="yes"/>
      <point x="233" y="366"/>
      <point x="188" y="316"/>
      <point x="188" y="243" type="curve" smooth="yes"/>
      <point x="188" y="170"/>
      <point x="233" y="120"/>
      <point x="308" y="120" type="curve" smooth="yes"/>
      <point x="341" y="120"/>
      <point x="365" y="137"/>
      <point x="382" y="157" type="curve"/>
      <point x="481" y="53" type="line"/>
      <point x="434" y="5"/>
      <point x="365" y="-12"/>
      <point x="308" y="-12" type="curve" smooth="yes"/>
      <point x="305" y="-12"/>
      <point x="301" y="-12"/>
      <point x="299" y="-11" type="curve" smooth="yes"/>
      <point x="266" y="-60" type="line"/>
      <point x="325" y="-60"/>
      <point x="392" y="-69"/>
      <point x="392" y="-143" type="curve" smooth="yes"/>
      <point x="392" y="-216"/>
      <point x="304" y="-240"/>
      <point x="253" y="-240" type="curve" smooth="yes"/>
      <point x="213" y="-240"/>
      <point x="163" y="-227"/>
      <point x="128" y="-210" type="curve"/>
      <point x="153" y="-163" type="line"/>
      <point x="169" y="-169"/>
      <point x="196" y="-180"/>
      <point x="230" y="-180" type="curve" smooth="yes"/>
      <point x="261" y="-180"/>
      <point x="296" y="-174"/>
      <point x="296" y="-148" type="curve" smooth="yes"/>
      <point x="296" y="-124"/>
      <point x="266" y="-114"/>
      <point x="246" y="-114" type="curve" smooth="yes"/>
      <point x="233" y="-114"/>
      <point x="222" y="-117"/>
      <point x="210" y="-122" type="curve"/>
      <point x="178" y="-93" type="line"/>
      <point x="238" y="-3" type="line"/>
      <point x="122" y="22"/>
      <point x="38" y="113"/>
      <point x="38" y="243" type="curve" smooth="yes"/>
      <point x="38" y="398"/>
      <point x="158" y="498"/>
      <point x="308" y="498" type="curve" smooth="yes"/>
      <point x="365" y="498"/>
      <point x="434" y="481"/>
    </contour>
  </outline>
</glyph>
<glyph name="eacute" format="2">
  <advance width="574"/>
  <unicode hex="00E9"/>
  <outline>
    <contour>
      <point x="408" y="161" type="curve"/>
      <point x="513" y="84" type="line"/>
      <point x="465" y="23"/>
      <point x="386" y="-12"/>
      <point x="308" y="-12" type="curve" smooth="yes"/>
      <point x="158" y="-12"/>
      <point x="38" y="88"/>
      <point x="38" y="243" type="curve" smooth="yes"/>
      <point x="38" y="398"/>
      <point x="158" y="498"/>
      <point x="308" y="498" type="curve" smooth="yes"/>
      <point x="448" y="498"/>
      <point x="536" y="398"/>
      <point x="536" y="243" type="curve" smooth="yes"/>
      <point x="536" y="196" type="line"/>
      <point x="188" y="196" type="line"/>
      <point x="200" y="139"/>
      <point x="243" y="102"/>
      <point x="301" y="102" type="curve" smooth="yes"/>
      <point x="350" y="102"/>
      <point x="383" y="127"/>
    </contour>
    <contour>
      <point x="188" y="298" type="curve"/>
      <point x="386" y="298" type="line"/>
      <point x="387" y="348"/>
      <point x="348" y="390"/>
      <point x="294" y="390" type="curve" smooth="yes"/>
      <point x="228" y="390"/>
      <point x="192" y="345"/>
    </contour>
    <contour>
      <point x="187" y="564" type="line"/>
      <point x="288" y="708" type="line"/>
      <point x="492" y="708" type="line"/>
      <point x="319" y="564" type="line"/>
    </contour>
  </outline>
</glyph>
<glyph name="edieresis" format="2">
  <advance width="574"/>
  <unicode hex="00EB"/>
  <outline>
    <contour>
      <point x="408" y="161" type="curve"/>
      <point x="513" y="84" type="line"/>
      <point x="465" y="23"/>
      <point x="386" y="-12"/>
      <point x="308" y="-12" type="curve" smooth="yes"/>
      <point x="158" y="-12"/>
      <point x="38" y="88"/>
      <point x="38" y="243" type="curve" smooth="yes"/>
      <point x="38" y="398"/>
      <point x="158" y="498"/>
      <point x="308" y="498" type="curve" smooth="yes"/>
      <point x="448" y="498"/>
      <point x="536" y="398"/>
      <point x="536" y="243" type="curve" smooth="yes"/>
      <point x="536" y="196" type="line"/>
      <point x="188" y="196" type="line"/>
      <point x="200" y="139"/>
      <point x="243" y="102"/>
      <point x="301" y="102" type="curve" smooth="yes"/>
      <point x="350" y="102"/>
      <point x="383" y="127"/>
    </contour>
    <contour>
      <point x="188" y="298" type="curve"/>
      <point x="386" y="298" type="line"/>
      <point x="387" y="348"/>
      <point x="348" y="390"/>
      <point x="294" y="390" type="curve" smooth="yes"/>
      <point x="228" y="390"/>
      <point x="192" y="345"/>
    </contour>
    <contour>
      <point x="182" y="558" type="curve" smooth="yes"/>
      <point x="135" y="558"/>
      <point x="99" y="598"/>
      <point x="99" y="644" type="curve" smooth="yes"/>
      <point x="99" y="687"/>
      <point x="136" y="726"/>
      <point x="180" y="726" type="curve" smooth="yes"/>
      <point x="226" y="726"/>
      <point x="267" y="692"/>
      <point x="267" y="644" type="curve" smooth="yes"/>
      <point x="267" y="596"/>
      <point x="231" y="558"/>
    </contour>
    <contour>
      <point x="390" y="558" type="curve" smooth="yes"/>
      <point x="343" y="558"/>
      <point x="307" y="598"/>
      <point x="307" y="644" type="curve" smooth="yes"/>
      <point x="307" y="687"/>
      <point x="344" y="726"/>
      <point x="388" y="726" type="curve" smooth="yes"/>
      <point x="434" y="726"/>
      <point x="475" y="692"/>
      <point x="475" y="644" type="curve" smooth="yes"/>
      <point x="475" y="596"/>
      <point x="439" y="558"/>
    </contour>
  </outline>
</glyph>
<glyph name="iacute" format="2">
  <advance width="260"/>
  <unicode hex="00ED"/>
  <outline>
    <contour>
      <point x="55" y="0" type="line"/>
      <point x="55" y="486" type="line"/>
      <point x="205" y="486" type="line"/>
      <point x="205" y="0" type="line"/>
    </contour>
    <contour>
      <point x="30" y="564" type="line"/>
      <point x="131" y="708" type="line"/>
      <point x="335" y="708" type="line"/>
      <point x="162" y="564" type="line"/>
    </contour>
  </outline>
</glyph>
<glyph name="idieresis" format="2">
  <advance width="260"/>
  <unicode hex="00EF"/>
  <outline>
    <contour>
      <point x="55" y="0" type="line"/>
      <point x="55" y="486" type="line"/>
      <point x="205" y="486" type="line"/>
      <point x="205" y="0" type="line"/>
    </contour>
    <contour>
      <point x="25" y="558" type="curve" smooth="yes"/>
      <point x="-22" y="558"/>
      <point x="-58" y="598"/>
      <point x="-58" y="644" type="curve" smooth="yes"/>
      <point x="-58" y="687"/>
      <point x="-21" y="726"/>
      <point x="23" y="726" type="curve" smooth="yes"/>
      <point x="69" y="726"/>
      <point x="110" y="692"/>
      <point x="110" y="644" type="curve" smooth="yes"/>
      <point x="110" y="596"/>
      <point x="74" y="558"/>
    </contour>
    <contour>
      <point x="233" y="558" type="curve" smooth="yes"/>
      <point x="186" y="558"/>
      <point x="150" y="598"/>
      <point x="150" y="644" type="curve" smooth="yes"/>
      <point x="150" y="687"/>
      <point x="187" y="726"/>
      <point x="231" y="726" type="curve" smooth="yes"/>
      <point x="277" y="726"/>
      <point x="318" y="692"/>
      <point x="318" y="644" type="curve" smooth="yes"/>
      <point x="318" y="596"/>
      <point x="282" y="558"/>
    </contour>
  </outline>
</glyph>
<glyph name="eth" format="2">
  <advance width="610"/>
  <unicode hex="00F0"/>
  <outline>
    <contour>
      <point x="449" y="777" type="line"/>
      <point x="526" y="710" type="line"/>
      <point x="403" y="659" type="line"/>
      <point x="466" y="592"/>
      <point x="575" y="474"/>
      <point x="575" y="284" type="curve" smooth="yes"/>
      <point x="575" y="103"/>
      <point x="480" y="-14"/>
      <point x="305" y="-12" type="curve" smooth="yes"/>
      <point x="155" y="-12"/>
      <point x="35" y="88"/>
      <point x="35" y="243" type="curve" smooth="yes"/>
      <point x="35" y="398"/>
      <point x="160" y="498"/>
      <point x="283" y="498" type="curve" smooth="yes"/>
      <point x="318" y="498"/>
      <point x="354" y="494"/>
      <point x="381" y="472" type="curve"/>
      <point x="383" y="474" type="line"/>
      <point x="357" y="511"/>
      <point x="305" y="574"/>
      <point x="272" y="603" type="curve"/>
      <point x="166" y="558" type="line"/>
      <point x="94" y="626" type="line"/>
      <point x="202" y="672" type="line"/>
      <point x="189" y="686"/>
      <point x="156" y="715"/>
      <point x="133" y="731" type="curve"/>
      <point x="255" y="801" type="line"/>
      <point x="285" y="778"/>
      <point x="311" y="754"/>
      <point x="335" y="729" type="curve"/>
    </contour>
    <contour>
      <point x="185" y="243" type="curve" smooth="yes"/>
      <point x="185" y="170"/>
      <point x="230" y="120"/>
      <point x="305" y="120" type="curve" smooth="yes"/>
      <point x="380" y="120"/>
      <point x="425" y="170"/>
      <point x="425" y="243" type="curve" smooth="yes"/>
      <point x="425" y="316"/>
      <point x="380" y="366"/>
      <point x="305" y="366" type="curve" smooth="yes"/>
      <point x="230" y="366"/>
      <point x="185" y="316"/>
    </contour>
  </outline>
</glyph>
<glyph name="ntilde" format="2">
  <advance width="574"/>
  <unicode hex="00F1"/>
  <outline>
    <contour>
      <point x="53" y="0" type="line"/>
      <point x="53" y="486" type="line"/>
      <point x="197" y="486" type="line"/>
      <point x="197" y="420" type="line"/>
      <point x="199" y="420" type="line"/>
      <point x="219" y="458"/>
      <point x="268" y="498"/>
      <point x="341" y="498" type="curve" smooth="yes"/>
      <point x="493" y="498"/>
      <point x="521" y="398"/>
      <point x="521" y="268" type="curve" smooth="yes"/>
      <point x="521" y="0" type="line"/>
      <point x="371" y="0" type="line"/>
      <point x="371" y="238" type="line" smooth="yes"/>
      <point x="371" y="294"/>
      <point x="370" y="366"/>
      <point x="293" y="366" type="curve" smooth="yes"/>
      <point x="215" y="366"/>
      <point x="203" y="305"/>
      <point x="203" y="242" type="curve" smooth="yes"/>
      <point x="203" y="0" type="line"/>
    </contour>
    <contour>
      <point x="170" y="570" type="curve"/>
      <point x="91" y="570" type="line"/>
      <point x="102" y="637"/>
      <point x="143" y="708"/>
      <point x="218" y="708" type="curve" smooth="yes"/>
      <point x="251" y="708"/>
      <point x="276" y="699"/>
      <point x="305" y="687" type="curve" smooth="yes"/>
      <point x="323" y="680"/>
      <point x="341" y="672"/>
      <point x="361" y="672" type="curve" smooth="yes"/>
      <point x="384" y="672"/>
      <point x="396" y="688"/>
      <point x="405" y="708" type="curve"/>
      <point x="483" y="708" type="line"/>
      <point x="470" y="632"/>
      <point x="437" y="570"/>
      <point x="353" y="570" type="curve" smooth="yes"/>
      <point x="324" y="570"/>
      <point x="298" y="581"/>
      <point x="275" y="591" type="curve" smooth="yes"/>
      <point x="252" y="602"/>
      <point x="232" y="612"/>
      <point x="212" y="612" type="curve" smooth="yes"/>
      <point x="189" y="612"/>
      <point x="176" y="589"/>
    </contour>
  </outline>
</glyph>
<glyph name="otilde" format="2">
  <advance width="610"/>
  <unicode hex="00F5"/>
  <outline>
    <contour>
      <point x="35" y="243" type="curve" smooth="yes"/>
      <point x="35" y="398"/>
      <point x="155" y="498"/>
      <point x="305" y="498" type="curve" smooth="yes"/>
      <point x="455" y="498"/>
      <point x="575" y="398"/>
      <point x="575" y="243" type="curve" smooth="yes"/>
      <point x="575" y="88"/>
      <point x="455" y="-12"/>
      <point x="305" y="-12" type="curve" smooth="yes"/>
      <point x="155" y="-12"/>
      <point x="35" y="88"/>
    </contour>
    <contour>
      <point x="185" y="243" type="curve" smooth="yes"/>
      <point x="185" y="170"/>
      <point x="230" y="120"/>
      <point x="305" y="120" type="curve" smooth="yes"/>
      <point x="380" y="120"/>
      <point x="425" y="170"/>
      <point x="425" y="243" type="curve" smooth="yes"/>
      <point x="425" y="316"/>
      <point x="380" y="366"/>
      <point x="305" y="366" type="curve" smooth="yes"/>
      <point x="230" y="366"/>
      <point x="185" y="316"/>
    </contour>
    <contour>
      <point x="188" y="570" type="curve"/>
      <point x="109" y="570" type="line"/>
      <point x="120" y="637"/>
      <point x="161" y="708"/>
      <point x="236" y="708" type="curve" smooth="yes"/>
      <point x="269" y="708"/>
      <point x="294" y="699"/>
      <point x="323" y="687" type="curve" smooth="yes"/>
      <point x="341" y="680"/>
      <point x="359" y="672"/>
      <point x="379" y="672" type="curve" smooth="yes"/>
      <point x="402" y="672"/>
      <point x="414" y="688"/>
      <point x="423" y="708" type="curve"/>
      <point x="501" y="708" type="line"/>
      <point x="488" y="632"/>
      <point x="455" y="570"/>
      <point x="371" y="570" type="curve" smooth="yes"/>
      <point x="342" y="570"/>
      <point x="316" y="581"/>
      <point x="293" y="591" type="curve" smooth="yes"/>
      <point x="270" y="602"/>
      <point x="250" y="612"/>
      <point x="230" y="612" type="curve" smooth="yes"/>
      <point x="207" y="612"/>
      <point x="194" y="589"/>
    </contour>
  </outline>
</glyph>
<glyph name="odieresis" format="2">
  <advance width="610"/>
  <unicode hex="00F6"/>
  <outline>
    <contour>
      <point x="35" y="243" type="curve" smooth="yes"/>
      <point x="35" y="398"/>
      <point x="155" y="498"/>
      <point x="305" y="498" type="curve" smooth="yes"/>
      <point x="455" y="498"/>
      <point x="575" y="398"/>
      <point x="575" y="243" type="curve" smooth="yes"/>
      <point x="575" y="88"/>
      <point x="455" y="-12"/>
      <point x="305" y="-12" type="curve" smooth="yes"/>
      <point x="155" y="-12"/>
      <point x="35" y="88"/>
    </contour>
    <contour>
      <point x="185" y="243" type="curve" smooth="yes"/>
      <point x="185" y="170"/>
      <point x="230" y="120"/>
      <point x="305" y="120" type="curve" smooth="yes"/>
      <point x="380" y="120"/>
      <point x="425" y="170"/>
      <point x="425" y="243" type="curve" smooth="yes"/>
      <point x="425" y="316"/>
      <point x="380" y="366"/>
      <point x="305" y="366" type="curve" smooth="yes"/>
      <point x="230" y="366"/>
      <point x="185" y="316"/>
    </contour>
    <contour>
      <point x="200" y="558" type="curve" smooth="yes"/>
      <point x="153" y="558"/>
      <point x="117" y="598"/>
      <point x="117" y="644" type="curve" smooth="yes"/>
      <point x="117" y="687"/>
      <point x="154" y="726"/>
      <point x="198" y="726" type="curve" smooth="yes"/>
      <point x="244" y="726"/>
      <point x="285" y="692"/>
      <point x="285" y="644" type="curve" smooth="yes"/>
      <point x="285" y="596"/>
      <point x="249" y="558"/>
    </contour>
    <contour>
      <point x="408" y="558" type="curve" smooth="yes"/>
      <point x="361" y="558"/>
      <point x="325" y="598"/>
      <point x="325" y="644" type="curve" smooth="yes"/>
      <point x="325" y="687"/>
      <point x="362" y="726"/>
      <point x="406" y="726" type="curve" smooth="yes"/>
      <point x="452" y="726"/>
      <point x="493" y="692"/>
      <point x="493" y="644" type="curve" smooth="yes"/>
      <point x="493" y="596"/>
      <point x="457" y="558"/>
    </contour>
  </outline>
</glyph>
<glyph name="divide" format="2">
  <advance width="666"/>
  <unicode hex="00F7"/>
  <outline>
    <contour>
      <point x="59" y="240" type="line"/>
      <point x="59" y="366" type="line"/>
      <point x="607" y="366" type="line"/>
      <point x="607" y="240" type="line"/>
    </contour>
    <contour>
      <point x="247" y="114" type="curve" smooth="yes"/>
      <point x="247" y="161"/>
      <point x="286" y="200"/>
      <point x="333" y="200" type="curve" smooth="yes"/>
      <point x="380" y="200"/>
      <point x="419" y="161"/>
      <point x="419" y="114" type="curve" smooth="yes"/>
      <point x="419" y="67"/>
      <point x="380" y="28"/>
      <point x="333" y="28" type="curve" smooth="yes"/>
      <point x="286" y="28"/>
      <point x="247" y="67"/>
    </contour>
    <contour>
      <point x="247" y="492" type="curve" smooth="yes"/>
      <point x="247" y="539"/>
      <point x="286" y="578"/>
      <point x="333" y="578" type="curve" smooth="yes"/>
      <point x="380" y="578"/>
      <point x="419" y="539"/>
      <point x="419" y="492" type="curve" smooth="yes"/>
      <point x="419" y="445"/>
      <point x="380" y="406"/>
      <point x="333" y="406" type="curve" smooth="yes"/>
      <point x="286" y="406"/>
      <point x="247" y="445"/>
    </contour>
  </outline>
</glyph>
<glyph name="oslash" format="2">
  <advance width="610"/>
  <unicode hex="00F8"/>
  <outline>
    <contour>
      <point x="26" y="6" type="line"/>
      <point x="96" y="76" type="line"/>
      <point x="58" y="118"/>
      <point x="35" y="175"/>
      <point x="35" y="243" type="curve" smooth="yes"/>
      <point x="35" y="398"/>
      <point x="155" y="498"/>
      <point x="305" y="498" type="curve" smooth="yes"/>
      <point x="368" y="498"/>
      <point x="425" y="480"/>
      <point x="470" y="449" type="curve"/>
      <point x="537" y="516" type="line"/>
      <point x="584" y="471" type="line"/>
      <point x="518" y="405" type="line"/>
      <point x="554" y="363"/>
      <point x="575" y="307"/>
      <point x="575" y="243" type="curve" smooth="yes"/>
      <point x="575" y="88"/>
      <point x="455" y="-12"/>
      <point x="305" y="-12" type="curve" smooth="yes"/>
      <point x="246" y="-12"/>
      <point x="191" y="4"/>
      <point x="146" y="34" type="curve"/>
      <point x="73" y="-39" type="line"/>
    </contour>
    <contour>
      <point x="200" y="180" type="curve"/>
      <point x="370" y="350" type="line"/>
      <point x="353" y="360"/>
      <point x="331" y="366"/>
      <point x="305" y="366" type="curve" smooth="yes"/>
      <point x="230" y="366"/>
      <point x="185" y="316"/>
      <point x="185" y="243" type="curve" smooth="yes"/>
      <point x="185" y="219"/>
      <point x="190" y="198"/>
    </contour>
    <contour>
      <point x="413" y="300" type="curve"/>
      <point x="246" y="134" type="line"/>
      <point x="263" y="125"/>
      <point x="283" y="120"/>
      <point x="305" y="120" type="curve" smooth="yes"/>
      <point x="380" y="120"/>
      <point x="425" y="170"/>
      <point x="425" y="243" type="curve" smooth="yes"/>
      <point x="425" y="264"/>
      <point x="421" y="283"/>
    </contour>
  </outline>
</glyph>
<glyph name="ucircumflex" format="2">
  <advance width="574"/>
  <unicode hex="00FB"/>
  <outline>
    <contour>
      <point x="521" y="486" type="line"/>
      <point x="521" y="0" type="line"/>
      <point x="377" y="0" type="line"/>
      <point x="377" y="66" type="line"/>
      <point x="375" y="66" type="line"/>
      <point x="355" y="28"/>
      <point x="306" y="-12"/>
      <point x="233" y="-12" type="curve" smooth="yes"/>
      <point x="81" y="-12"/>
      <point x="53" y="88"/>
      <point x="53" y="218" type="curve" smooth="yes"/>
      <point x="53" y="486" type="line"/>
      <point x="203" y="486" type="line"/>
      <point x="203" y="248" type="line" smooth="yes"/>
      <point x="203" y="192"/>
      <point x="204" y="120"/>
      <point x="281" y="120" type="curve" smooth="yes"/>
      <point x="359" y="120"/>
      <point x="371" y="181"/>
      <point x="371" y="244" type="curve" smooth="yes"/>
      <point x="371" y="486" type="line"/>
    </contour>
    <contour>
      <point x="486" y="564" type="line"/>
      <point x="348" y="564" type="line"/>
      <point x="285" y="642" type="line"/>
      <point x="223" y="564" type="line"/>
      <point x="88" y="564" type="line"/>
      <point x="207" y="708" type="line"/>
      <point x="370" y="708" type="line"/>
    </contour>
  </outline>
</glyph>
<glyph name="udieresis" format="2">
  <advance width="574"/>
  <unicode hex="00FC"/>
  <outline>
    <contour>
      <point x="521" y="486" type="line"/>
      <point x="521" y="0" type="line"/>
      <point x="377" y="0" type="line"/>
      <point x="377" y="66" type="line"/>
      <point x="375" y="66" type="line"/>
      <point x="355" y="28"/>
      <point x="306" y="-12"/>
      <point x="233" y="-12" type="curve" smooth="yes"/>
      <point x="81" y="-12"/>
      <point x="53" y="88"/>
      <point x="53" y="218" type="curve" smooth="yes"/>
      <point x="53" y="486" type="line"/>
      <point x="203" y="486" type="line"/>
      <point x="203" y="248" type="line" smooth="yes"/>
      <point x="203" y="192"/>
      <point x="204" y="120"/>
      <point x="281" y="120" type="curve" smooth="yes"/>
      <point x="359" y="120"/>
      <point x="371" y="181"/>
      <point x="371" y="244" type="curve" smooth="yes"/>
      <point x="371" y="486" type="line"/>
    </contour>
    <contour>
      <point x="182" y="558" type="curve" smooth="yes"/>
      <point x="135" y="558"/>
      <point x="99" y="598"/>
      <point x="99" y="644" type="curve" smooth="yes"/>
      <point x="99" y="687"/>
      <point x="136" y="726"/>
      <point x="180" y="726" type="curve" smooth="yes"/>
      <point x="226" y="726"/>
      <point x="267" y="692"/>
      <point x="267" y="644" type="curve" smooth="yes"/>
      <point x="267" y="596"/>
      <point x="231" y="558"/>
    </contour>
    <contour>
      <point x="390" y="558" type="curve" smooth="yes"/>
      <point x="343" y="558"/>
      <point x="307" y="598"/>
      <point x="307" y="644" type="curve" smooth="yes"/>
      <point x="307" y="687"/>
      <point x="344" y="726"/>
      <point x="388" y="726" type="curve" smooth="yes"/>
      <point x="434" y="726"/>
      <point x="475" y="692"/>
      <point x="475" y="644" type="curve" smooth="yes"/>
      <point x="475" y="596"/>
      <point x="439" y="558"/>
    </contour>
  </outline>
</glyph>
<glyph name="yacute" format="2">
  <advance width="556"/>
  <unicode hex="00FD"/>
  <outline>
    <contour>
      <point x="553" y="486" type="line"/>
      <point x="333" y="-79" type="line" smooth="yes"/>
      <point x="293" y="-182"/>
      <point x="270" y="-240"/>
      <point x="127" y="-240" type="curve" smooth="yes"/>
      <point x="89" y="-240"/>
      <point x="51" y="-234"/>
      <point x="15" y="-222" type="curve"/>
      <point x="35" y="-99" type="line"/>
      <point x="58" y="-109"/>
      <point x="80" y="-114"/>
      <point x="105" y="-114" type="curve" smooth="yes"/>
      <point x="173" y="-114"/>
      <point x="184" y="-85"/>
      <point x="205" y="-32" type="curve" smooth="yes"/>
      <point x="216" y="-4" type="line"/>
      <point x="3" y="486" type="line"/>
      <point x="165" y="486" type="line"/>
      <point x="290" y="165" type="line"/>
      <point x="292" y="165" type="line"/>
      <point x="399" y="486" type="line"/>
    </contour>
    <contour>
      <point x="178" y="564" type="line"/>
      <point x="279" y="708" type="line"/>
      <point x="483" y="708" type="line"/>
      <point x="310" y="564" type="line"/>
    </contour>
  </outline>
</glyph>
<glyph name="ydieresis" format="2">
  <advance width="556"/>
  <unicode hex="00FF"/>
  <outline>
    <contour>
      <point x="553" y="486" type="line"/>
      <point x="333" y="-79" type="line" smooth="yes"/>
      <point x="293" y="-182"/>
      <point x="270" y="-240"/>
      <point x="127" y="-240" type="curve" smooth="yes"/>
      <point x="89" y="-240"/>
      <point x="51" y="-234"/>
      <point x="15" y="-222" type="curve"/>
      <point x="35" y="-99" type="line"/>
      <point x="58" y="-109"/>
      <point x="80" y="-114"/>
      <point x="105" y="-114" type="curve" smooth="yes"/>
      <point x="173" y="-114"/>
      <point x="184" y="-85"/>
      <point x="205" y="-32" type="curve" smooth="yes"/>
      <point x="216" y="-4" type="line"/>
      <point x="3" y="486" type="line"/>
      <point x="165" y="486" type="line"/>
      <point x="290" y="165" type="line"/>
      <point x="292" y="165" type="line"/>
      <point x="399" y="486" type="line"/>
    </contour>
    <contour>
      <point x="173" y="558" type="curve" smooth="yes"/>
      <point x="126" y="558"/>
      <point x="90" y="598"/>
      <point x="90" y="644" type="curve" smooth="yes"/>
      <point x="90" y="687"/>
      <point x="127" y="726"/>
      <point x="171" y="726" type="curve" smooth="yes"/>
      <point x="217" y="726"/>
      <point x="258" y="692"/>
      <point x="258" y="644" type="curve" smooth="yes"/>
      <point x="258" y="596"/>
      <point x="222" y="558"/>
    </contour>
    <contour>
      <point x="381" y="558" type="curve" smooth="yes"/>
      <point x="334" y="558"/>
      <point x="298" y="598"/>
      <point x="298" y="644" type="curve" smooth="yes"/>
      <point x="298" y="687"/>
      <point x="335" y="726"/>
      <point x="379" y="726" type="curve" smooth="yes"/>
      <point x="425" y="726"/>
      <point x="466" y="692"/>
      <point x="466" y="644" type="curve" smooth="yes"/>
      <point x="466" y="596"/>
      <point x="430" y="558"/>
    </contour>
  </outline>
</glyph>
<glyph name="Lslash" format="2">
  <advance width="537"/>
  <unicode hex="0141"/>
  <outline>
    <contour>
      <point x="78" y="0" type="line"/>
      <point x="78" y="160" type="line"/>
      <point x="18" y="108" type="line"/>
      <point x="18" y="240" type="line"/>
      <point x="78" y="292" type="line"/>
      <point x="78" y="708" type="line"/>
      <point x="234" y="708" type="line"/>
      <point x="234" y="427" type="line"/>
      <point x="444" y="612" type="line"/>
      <point x="444" y="482" type="line"/>
      <point x="234" y="298" type="line"/>
      <point x="234" y="144" type="line"/>
      <point x="523" y="144" type="line"/>
      <point x="523" y="0" type="line"/>
    </contour>
  </outline>
</glyph>
<glyph name="lslash" format="2">
  <advance width="260"/>
  <unicode hex="0142"/>
  <outline>
    <contour>
      <point x="55" y="0" type="line"/>
      <point x="55" y="248" type="line"/>
      <point x="-5" y="187" type="line"/>
      <point x="-5" y="316" type="line"/>
      <point x="55" y="377" type="line"/>
      <point x="55" y="756" type="line"/>
      <point x="205" y="756" type="line"/>
      <point x="205" y="527" type="line"/>
      <point x="265" y="588" type="line"/>
      <point x="265" y="459" type="line"/>
      <point x="205" y="398" type="line"/>
      <point x="205" y="0" type="line"/>
    </contour>
  </outline>
</glyph>
<glyph name="OE" format="2">
  <advance width="1018"/>
  <unicode hex="0152"/>
  <outline>
    <contour>
      <point x="665" y="564" type="line"/>
      <point x="665" y="432" type="line"/>
      <point x="929" y="432" type="line"/>
      <point x="929" y="288" type="line"/>
      <point x="665" y="288" type="line"/>
      <point x="665" y="144" type="line"/>
      <point x="965" y="144" type="line"/>
      <point x="965" y="0" type="line"/>
      <point x="434" y="0" type="line" smooth="yes"/>
      <point x="244" y="0"/>
      <point x="34" y="106"/>
      <point x="34" y="354" type="curve" smooth="yes"/>
      <point x="34" y="584"/>
      <point x="207" y="708"/>
      <point x="426" y="708" type="curve" smooth="yes"/>
      <point x="953" y="708" type="line"/>
      <point x="953" y="564" type="line"/>
    </contour>
    <contour>
      <point x="509" y="144" type="line"/>
      <point x="509" y="564" type="line"/>
      <point x="458" y="564" type="line" smooth="yes"/>
      <point x="304" y="564"/>
      <point x="196" y="494"/>
      <point x="196" y="354" type="curve" smooth="yes"/>
      <point x="196" y="214"/>
      <point x="304" y="144"/>
      <point x="458" y="144" type="curve" smooth="yes"/>
    </contour>
  </outline>
</glyph>
<glyph name="oe" format="2">
  <advance width="944"/>
  <unicode hex="0153"/>
  <outline>
    <contour>
      <point x="778" y="161" type="curve"/>
      <point x="883" y="84" type="line"/>
      <point x="835" y="23"/>
      <point x="756" y="-12"/>
      <point x="678" y="-12" type="curve" smooth="yes"/>
      <point x="595" y="-12"/>
      <point x="534" y="7"/>
      <point x="488" y="57" type="curve"/>
      <point x="438" y="5"/>
      <point x="373" y="-12"/>
      <point x="306" y="-12" type="curve" smooth="yes"/>
      <point x="155" y="-12"/>
      <point x="35" y="88"/>
      <point x="35" y="243" type="curve" smooth="yes"/>
      <point x="35" y="398"/>
      <point x="155" y="498"/>
      <point x="306" y="498" type="curve" smooth="yes"/>
      <point x="377" y="498"/>
      <point x="440" y="474"/>
      <point x="488" y="425" type="curve"/>
      <point x="531" y="470"/>
      <point x="591" y="498"/>
      <point x="678" y="498" type="curve" smooth="yes"/>
      <point x="818" y="498"/>
      <point x="906" y="398"/>
      <point x="906" y="243" type="curve" smooth="yes"/>
      <point x="906" y="196" type="line"/>
      <point x="558" y="196" type="line"/>
      <point x="570" y="139"/>
      <point x="613" y="102"/>
      <point x="671" y="102" type="curve" smooth="yes"/>
      <point x="720" y="102"/>
      <point x="753" y="127"/>
    </contour>
    <contour>
      <point x="306" y="366" type="curve" smooth="yes"/>
      <point x="230" y="366"/>
      <point x="185" y="316"/>
      <point x="185" y="243" type="curve" smooth="yes"/>
      <point x="185" y="170"/>
      <point x="230" y="120"/>
      <point x="306" y="120" type="curve" smooth="yes"/>
      <point x="381" y="120"/>
      <point x="426" y="170"/>
      <point x="426" y="243" type="curve" smooth="yes"/>
      <point x="426" y="316"/>
      <point x="381" y="366"/>
    </contour>
    <contour>
      <point x="558" y="298" type="curve"/>
      <point x="756" y="298" type="line"/>
      <point x="757" y="348"/>
      <point x="718" y="390"/>
      <point x="664" y="390" type="curve" smooth="yes"/>
      <point x="598" y="390"/>
      <point x="562" y="345"/>
    </contour>
  </outline>
</glyph>
<glyph name="Ydieresis" format="2">
  <advance width="648"/>
  <unicode hex="0178"/>
  <outline>
    <contour>
      <point x="246" y="0" type="line"/>
      <point x="246" y="302" type="line"/>
      <point x="-20" y="708" type="line"/>
      <point x="174" y="708" type="line"/>
      <point x="324" y="443" type="line"/>
      <point x="483" y="708" type="line"/>
      <point x="668" y="708" type="line"/>
      <point x="402" y="302" type="line"/>
      <point x="402" y="0" type="line"/>
    </contour>
    <contour>
      <point x="219" y="780" type="curve" smooth="yes"/>
      <point x="172" y="780"/>
      <point x="136" y="820"/>
      <point x="136" y="866" type="curve" smooth="yes"/>
      <point x="136" y="909"/>
      <point x="173" y="948"/>
      <point x="217" y="948" type="curve" smooth="yes"/>
      <point x="263" y="948"/>
      <point x="304" y="914"/>
      <point x="304" y="866" type="curve" smooth="yes"/>
      <point x="304" y="818"/>
      <point x="268" y="780"/>
    </contour>
    <contour>
      <point x="427" y="780" type="curve" smooth="yes"/>
      <point x="380" y="780"/>
      <point x="344" y="820"/>
      <point x="344" y="866" type="curve" smooth="yes"/>
      <point x="344" y="909"/>
      <point x="381" y="948"/>
      <point x="425" y="948" type="curve" smooth="yes"/>
      <point x="471" y="948"/>
      <point x="512" y="914"/>
      <point x="512" y="866" type="curve" smooth="yes"/>
      <point x="512" y="818"/>
      <point x="476" y="780"/>
    </contour>
  </outline>
</glyph>
<glyph name="Zcaron" format="2">
  <advance width="630"/>
  <unicode hex="017D"/>
  <outline>
    <contour>
      <point x="35" y="0" type="line"/>
      <point x="35" y="144" type="line"/>
      <point x="394" y="570" type="line"/>
      <point x="48" y="570" type="line"/>
      <point x="48" y="708" type="line"/>
      <point x="583" y="708" type="line"/>
      <point x="583" y="570" type="line"/>
      <point x="231" y="144" type="line"/>
      <point x="595" y="144" type="line"/>
      <point x="595" y="0" type="line"/>
    </contour>
    <contour>
      <point x="112" y="930" type="line"/>
      <point x="250" y="930" type="line"/>
      <point x="313" y="852" type="line"/>
      <point x="375" y="930" type="line"/>
      <point x="510" y="930" type="line"/>
      <point x="391" y="786" type="line"/>
      <point x="228" y="786" type="line"/>
    </contour>
  </outline>
</glyph>
<glyph name="florin" format="2">
  <advance width="592"/>
  <unicode hex="0192"/>
  <outline>
    <contour>
      <point x="496" y="434" type="line"/>
      <point x="496" y="332" type="line"/>
      <point x="350" y="332" type="line"/>
      <point x="292" y="40" type="line" smooth="yes"/>
      <point x="270" y="-69"/>
      <point x="216" y="-139"/>
      <point x="91" y="-139" type="curve" smooth="yes"/>
      <point x="54" y="-139"/>
      <point x="14" y="-130"/>
      <point x="-20" y="-115" type="curve"/>
      <point x="32" y="4" type="line"/>
      <point x="46" y="-4"/>
      <point x="62" y="-7"/>
      <point x="78" y="-7" type="curve" smooth="yes"/>
      <point x="120" y="-7"/>
      <point x="139" y="19"/>
      <point x="153" y="88" type="curve" smooth="yes"/>
      <point x="203" y="332" type="line"/>
      <point x="89" y="332" type="line"/>
      <point x="89" y="434" type="line"/>
      <point x="223" y="434" type="line"/>
      <point x="241" y="525" type="line" smooth="yes"/>
      <point x="270" y="673"/>
      <point x="316" y="720"/>
      <point x="439" y="720" type="curve" smooth="yes"/>
      <point x="486" y="720"/>
      <point x="526" y="710"/>
      <point x="569" y="690" type="curve"/>
      <point x="516" y="577" type="line"/>
      <point x="500" y="584"/>
      <point x="482" y="588"/>
      <point x="464" y="588" type="curve" smooth="yes"/>
      <point x="416" y="588"/>
      <point x="397" y="563"/>
      <point x="385" y="505" type="curve" smooth="yes"/>
      <point x="370" y="434" type="line"/>
    </contour>
  </outline>
</glyph>
<glyph name="circumflex" format="2">
  <advance width="260"/>
  <unicode hex="02C6"/>
  <outline>
    <contour>
      <point x="329" y="564" type="line"/>
      <point x="191" y="564" type="line"/>
      <point x="128" y="642" type="line"/>
      <point x="66" y="564" type="line"/>
      <point x="-69" y="564" type="line"/>
      <point x="50" y="708" type="line"/>
      <point x="213" y="708" type="line"/>
    </contour>
  </outline>
</glyph>
<glyph name="caron" format="2">
  <advance width="260"/>
  <unicode hex="02C7"/>
  <outline>
    <contour>
      <point x="-73" y="708" type="line"/>
      <point x="65" y="708" type="line"/>
      <point x="128" y="630" type="line"/>
      <point x="190" y="708" type="line"/>
      <point x="325" y="708" type="line"/>
      <point x="206" y="564" type="line"/>
      <point x="43" y="564" type="line"/>
    </contour>
  </outline>
</glyph>
<glyph name="breve" format="2">
  <advance width="260"/>
  <unicode hex="02D8"/>
  <outline>
    <contour>
      <point x="-54" y="708" type="curve"/>
      <point x="26" y="708" type="line"/>
      <point x="35" y="669"/>
      <point x="86" y="660"/>
      <point x="130" y="660" type="curve" smooth="yes"/>
      <point x="182" y="660"/>
      <point x="220" y="664"/>
      <point x="235" y="708" type="curve"/>
      <point x="314" y="708" type="line"/>
      <point x="303" y="606"/>
      <point x="225" y="564"/>
      <point x="130" y="564" type="curve" smooth="yes"/>
      <point x="35" y="564"/>
      <point x="-48" y="603"/>
    </contour>
  </outline>
</glyph>
<glyph name="dotaccent" format="2">
  <advance width="260"/>
  <unicode hex="02D9"/>
  <outline>
    <contour>
      <point x="129" y="558" type="curve" smooth="yes"/>
      <point x="82" y="558"/>
      <point x="46" y="598"/>
      <point x="46" y="644" type="curve" smooth="yes"/>
      <point x="46" y="687"/>
      <point x="83" y="726"/>
      <point x="127" y="726" type="curve" smooth="yes"/>
      <point x="173" y="726"/>
      <point x="214" y="692"/>
      <point x="214" y="644" type="curve" smooth="yes"/>
      <point x="214" y="596"/>
      <point x="178" y="558"/>
    </contour>
  </outline>
</glyph>
<glyph name="ring" format="2">
  <advance width="260"/>
  <unicode hex="02DA"/>
  <outline>
    <contour>
      <point x="130" y="545" type="curve" smooth="yes"/>
      <point x="69" y="545"/>
      <point x="19" y="595"/>
      <point x="19" y="656" type="curve" smooth="yes"/>
      <point x="19" y="717"/>
      <point x="69" y="767"/>
      <point x="130" y="767" type="curve" smooth="yes"/>
      <point x="191" y="767"/>
      <point x="241" y="717"/>
      <point x="241" y="656" type="curve" smooth="yes"/>
      <point x="241" y="595"/>
      <point x="191" y="545"/>
    </contour>
    <contour>
      <point x="79" y="656" type="curve" smooth="yes"/>
      <point x="79" y="628"/>
      <point x="102" y="605"/>
      <point x="130" y="605" type="curve" smooth="yes"/>
      <point x="158" y="605"/>
      <point x="181" y="628"/>
      <point x="181" y="656" type="curve" smooth="yes"/>
      <point x="181" y="684"/>
      <point x="158" y="707"/>
      <point x="130" y="707" type="curve" smooth="yes"/>
      <point x="102" y="707"/>
      <point x="79" y="684"/>
    </contour>
  </outline>
</glyph>
<glyph name="ogonek" format="2">
  <advance width="260"/>
  <unicode hex="02DB"/>
  <outline>
    <contour>
      <point x="177" y="-145" type="curve"/>
      <point x="205" y="-198" type="line"/>
      <point x="172" y="-223"/>
      <point x="139" y="-240"/>
      <point x="96" y="-240" type="curve" smooth="yes"/>
      <point x="41" y="-240"/>
      <point x="-9" y="-206"/>
      <point x="-9" y="-147" type="curve" smooth="yes"/>
      <point x="-9" y="-89"/>
      <point x="52" y="-22"/>
      <point x="96" y="12" type="curve"/>
      <point x="164" y="12" type="line"/>
      <point x="131" y="-16"/>
      <point x="81" y="-77"/>
      <point x="81" y="-122" type="curve" smooth="yes"/>
      <point x="81" y="-144"/>
      <point x="99" y="-168"/>
      <point x="123" y="-168" type="curve" smooth="yes"/>
      <point x="142" y="-168"/>
      <point x="163" y="-157"/>
    </contour>
  </outline>
</glyph>
<glyph name="tilde" format="2">
  <advance width="260"/>
  <unicode hex="02DC"/>
  <outline>
    <contour>
      <point x="13" y="570" type="curve"/>
      <point x="-66" y="570" type="line"/>
      <point x="-55" y="637"/>
      <point x="-14" y="708"/>
      <point x="61" y="708" type="curve" smooth="yes"/>
      <point x="94" y="708"/>
      <point x="119" y="699"/>
      <point x="148" y="687" type="curve" smooth="yes"/>
      <point x="166" y="680"/>
      <point x="184" y="672"/>
      <point x="204" y="672" type="curve" smooth="yes"/>
      <point x="227" y="672"/>
      <point x="239" y="688"/>
      <point x="248" y="708" type="curve"/>
      <point x="326" y="708" type="line"/>
      <point x="313" y="632"/>
      <point x="280" y="570"/>
      <point x="196" y="570" type="curve" smooth="yes"/>
      <point x="167" y="570"/>
      <point x="141" y="581"/>
      <point x="118" y="591" type="curve" smooth="yes"/>
      <point x="95" y="602"/>
      <point x="75" y="612"/>
      <point x="55" y="612" type="curve" smooth="yes"/>
      <point x="32" y="612"/>
      <point x="19" y="589"/>
    </contour>
  </outline>
</glyph>
<glyph name="hungarumlaut" format="2">
  <advance width="260"/>
  <unicode hex="02DD"/>
  <outline>
    <contour>
      <point x="-102" y="564" type="line"/>
      <point x="-1" y="708" type="line"/>
      <point x="203" y="708" type="line"/>
      <point x="30" y="564" type="line"/>
    </contour>
    <contour>
      <point x="162" y="564" type="line"/>
      <point x="263" y="708" type="line"/>
      <point x="467" y="708" type="line"/>
      <point x="294" y="564" type="line"/>
    </contour>
  </outline>
</glyph>
<glyph name="uni03BC" format="2">
  <advance width="574"/>
  <unicode hex="03BC"/>
  <outline>
    <contour>
      <point x="521" y="486" type="line"/>
      <point x="521" y="0" type="line"/>
      <point x="377" y="0" type="line"/>
      <point x="377" y="66" type="line"/>
      <point x="375" y="66" type="line"/>
      <point x="355" y="28"/>
      <point x="306" y="-12"/>
      <point x="233" y="-12" type="curve" smooth="yes"/>
      <point x="222" y="-12"/>
      <point x="212" y="-11"/>
      <point x="203" y="-9" type="curve"/>
      <point x="203" y="-228" type="line"/>
      <point x="53" y="-228" type="line"/>
      <point x="53" y="486" type="line"/>
      <point x="203" y="486" type="line"/>
      <point x="203" y="248" type="line" smooth="yes"/>
      <point x="203" y="192"/>
      <point x="204" y="120"/>
      <point x="281" y="120" type="curve" smooth="yes"/>
      <point x="359" y="120"/>
      <point x="371" y="181"/>
      <point x="371" y="244" type="curve" smooth="yes"/>
      <point x="371" y="486" type="line"/>
    </contour>
  </outline>
</glyph>
<glyph name="pi" format="2">
  <advance width="637"/>
  <unicode hex="03C0"/>
  <outline>
    <contour>
      <point x="612" y="416" type="line"/>
      <point x="538" y="416" type="line"/>
      <point x="538" y="154" type="line" smooth="yes"/>
      <point x="538" y="79"/>
      <point x="544" y="32"/>
      <point x="552" y="0" type="curve"/>
      <point x="418" y="0" type="line"/>
      <point x="405" y="21"/>
      <point x="400" y="75"/>
      <point x="400" y="147" type="curve" smooth="yes"/>
      <point x="400" y="416" type="line"/>
      <point x="258" y="416" type="line"/>
      <point x="253" y="306"/>
      <point x="228" y="101"/>
      <point x="192" y="0" type="curve"/>
      <point x="58" y="0" type="line"/>
      <point x="92" y="116"/>
      <point x="120" y="306"/>
      <point x="122" y="416" type="curve"/>
      <point x="73" y="416"/>
      <point x="42" y="413"/>
      <point x="19" y="406" type="curve"/>
      <point x="4" y="495" type="line"/>
      <point x="30" y="516"/>
      <point x="86" y="530"/>
      <point x="178" y="530" type="curve" smooth="yes"/>
      <point x="622" y="530" type="line"/>
    </contour>
  </outline>
</glyph>
<glyph name="endash" format="2">
  <advance width="500"/>
  <unicode hex="2013"/>
  <outline>
    <contour>
      <point x="0" y="189" type="line"/>
      <point x="0" y="309" type="line"/>
      <point x="500" y="309" type="line"/>
      <point x="500" y="189" type="line"/>
    </contour>
  </outline>
</glyph>
<glyph name="quotesinglbase" format="2">
  <advance width="296"/>
  <unicode hex="201A"/>
  <outline>
    <contour>
      <point x="257" y="156" type="line"/>
      <point x="167" y="-126" type="line"/>
      <point x="39" y="-126" type="line"/>
      <point x="113" y="156" type="line"/>
    </contour>
  </outline>
</glyph>
<glyph name="quotedblleft" format="2">
  <advance width="520"/>
  <unicode hex="201C"/>
  <outline>
    <contour>
      <point x="44" y="426" type="line"/>
      <point x="134" y="708" type="line"/>
      <point x="262" y="708" type="line"/>
      <point x="188" y="426" type="line"/>
    </contour>
    <contour>
      <point x="258" y="426" type="line"/>
      <point x="348" y="708" type="line"/>
      <point x="476" y="708" type="line"/>
      <point x="402" y="426" type="line"/>
    </contour>
  </outline>
</glyph>
<glyph name="quotedblbase" format="2">
  <advance width="520"/>
  <unicode hex="201E"/>
  <outline>
    <contour>
      <point x="476" y="156" type="line"/>
      <point x="386" y="-126" type="line"/>
      <point x="258" y="-126" type="line"/>
      <point x="332" y="156" type="line"/>
    </contour>
    <contour>
      <point x="262" y="156" type="line"/>
      <point x="172" y="-126" type="line"/>
      <point x="44" y="-126" type="line"/>
      <point x="118" y="156" type="line"/>
    </contour>
  </outline>
</glyph>
<glyph name="dagger" format="2">
  <advance width="592"/>
  <unicode hex="2020"/>
  <outline>
    <contour>
      <point x="224" y="-133" type="line"/>
      <point x="224" y="372" type="line"/>
      <point x="34" y="372" type="line"/>
      <point x="34" y="498" type="line"/>
      <point x="224" y="498" type="line"/>
      <point x="224" y="708" type="line"/>
      <point x="362" y="708" type="line"/>
      <point x="362" y="498" type="line"/>
      <point x="558" y="498" type="line"/>
      <point x="558" y="372" type="line"/>
      <point x="362" y="372" type="line"/>
      <point x="362" y="-133" type="line"/>
    </contour>
  </outline>
</glyph>
<glyph name="daggerdbl" format="2">
  <advance width="592"/>
  <unicode hex="2021"/>
  <outline>
    <contour>
      <point x="227" y="-133" type="line"/>
      <point x="227" y="47" type="line"/>
      <point x="34" y="47" type="line"/>
      <point x="34" y="167" type="line"/>
      <point x="227" y="167" type="line"/>
      <point x="227" y="408" type="line"/>
      <point x="34" y="408" type="line"/>
      <point x="34" y="528" type="line"/>
      <point x="227" y="528" type="line"/>
      <point x="227" y="708" type="line"/>
      <point x="365" y="708" type="line"/>
      <point x="365" y="528" type="line"/>
      <point x="558" y="528" type="line"/>
      <point x="558" y="408" type="line"/>
      <point x="365" y="408" type="line"/>
      <point x="365" y="167" type="line"/>
      <point x="558" y="167" type="line"/>
      <point x="558" y="47" type="line"/>
      <point x="365" y="47" type="line"/>
      <point x="365" y="-133" type="line"/>
    </contour>
  </outline>
</glyph>
<glyph name="ellipsis" format="2">
  <advance width="1000"/>
  <unicode hex="2026"/>
  <outline>
    <contour>
      <point x="75" y="86" type="curve" smooth="yes"/>
      <point x="75" y="137"/>
      <point x="116" y="178"/>
      <point x="167" y="178" type="curve" smooth="yes"/>
      <point x="218" y="178"/>
      <point x="259" y="137"/>
      <point x="259" y="86" type="curve" smooth="yes"/>
      <point x="259" y="35"/>
      <point x="218" y="-6"/>
      <point x="167" y="-6" type="curve" smooth="yes"/>
      <point x="116" y="-6"/>
      <point x="75" y="35"/>
    </contour>
    <contour>
      <point x="408" y="86" type="curve" smooth="yes"/>
      <point x="408" y="137"/>
      <point x="449" y="178"/>
      <point x="500" y="178" type="curve" smooth="yes"/>
      <point x="551" y="178"/>
      <point x="592" y="137"/>
      <point x="592" y="86" type="curve" smooth="yes"/>
      <point x="592" y="35"/>
      <point x="551" y="-6"/>
      <point x="500" y="-6" type="curve" smooth="yes"/>
      <point x="449" y="-6"/>
      <point x="408" y="35"/>
    </contour>
    <contour>
      <point x="741" y="86" type="curve" smooth="yes"/>
      <point x="741" y="137"/>
      <point x="782" y="178"/>
      <point x="833" y="178" type="curve" smooth="yes"/>
      <point x="884" y="178"/>
      <point x="925" y="137"/>
      <point x="925" y="86" type="curve" smooth="yes"/>
      <point x="925" y="35"/>
      <point x="884" y="-6"/>
      <point x="833" y="-6" type="curve" smooth="yes"/>
      <point x="782" y="-6"/>
      <point x="741" y="35"/>
    </contour>
  </outline>
</glyph>
